<?xml version="1.0" encoding="utf-8" standalone="no"?>
<!DOCTYPE svg PUBLIC "-//W3C//DTD SVG 1.1//EN"
  "http://www.w3.org/Graphics/SVG/1.1/DTD/svg11.dtd">
<svg height="288pt" version="1.1" viewBox="0 0 432 288" width="432pt" xmlns="http://www.w3.org/2000/svg" xmlns:xlink="http://www.w3.org/1999/xlink">
 <metadata>
  <rdf:RDF xmlns:cc="http://creativecommons.org/ns#" xmlns:dc="http://purl.org/dc/elements/1.1/" xmlns:rdf="http://www.w3.org/1999/02/22-rdf-syntax-ns#">
   <cc:Work>
    <dc:type rdf:resource="http://purl.org/dc/dcmitype/StillImage"/>
    <dc:date>2021-08-29T20:46:30.661365</dc:date>
    <dc:format>image/svg+xml</dc:format>
    <dc:creator>
     <cc:Agent>
      <dc:title>Matplotlib v3.4.2, https://matplotlib.org/</dc:title>
     </cc:Agent>
    </dc:creator>
   </cc:Work>
  </rdf:RDF>
 </metadata>
 <defs>
  <style type="text/css">*{stroke-linecap:butt;stroke-linejoin:round;}</style>
 </defs>
 <g id="figure_1">
  <g id="patch_1">
   <path d="M 0 288 
L 432 288 
L 432 0 
L 0 0 
z
" style="fill:none;"/>
  </g>
  <g id="axes_1">
   <g id="patch_2">
    <path d="M 54 252 
L 388.8 252 
L 388.8 34.56 
L 54 34.56 
z
" style="fill:#ffffff;"/>
   </g>
   <g id="PathCollection_1">
    <defs>
     <path d="M 0 3 
C 0.795609 3 1.55874 2.683901 2.12132 2.12132 
C 2.683901 1.55874 3 0.795609 3 0 
C 3 -0.795609 2.683901 -1.55874 2.12132 -2.12132 
C 1.55874 -2.683901 0.795609 -3 0 -3 
C -0.795609 -3 -1.55874 -2.683901 -2.12132 -2.12132 
C -2.683901 -1.55874 -3 -0.795609 -3 0 
C -3 0.795609 -2.683901 1.55874 -2.12132 2.12132 
C -1.55874 2.683901 -0.795609 3 0 3 
z
" id="m1fde971961" style="stroke:#1f77b4;"/>
    </defs>
    <g clip-path="url(#p1bfd091eca)">
     <use style="fill:#1f77b4;stroke:#1f77b4;" x="69.218182" xlink:href="#m1fde971961" y="242.116364"/>
     <use style="fill:#1f77b4;stroke:#1f77b4;" x="75.694004" xlink:href="#m1fde971961" y="232.509661"/>
     <use style="fill:#1f77b4;stroke:#1f77b4;" x="82.169826" xlink:href="#m1fde971961" y="207.27082"/>
     <use style="fill:#1f77b4;stroke:#1f77b4;" x="88.645648" xlink:href="#m1fde971961" y="183.94962"/>
     <use style="fill:#1f77b4;stroke:#1f77b4;" x="95.12147" xlink:href="#m1fde971961" y="178.576844"/>
     <use style="fill:#1f77b4;stroke:#1f77b4;" x="101.597292" xlink:href="#m1fde971961" y="173.725765"/>
     <use style="fill:#1f77b4;stroke:#1f77b4;" x="108.073114" xlink:href="#m1fde971961" y="164.619669"/>
     <use style="fill:#1f77b4;stroke:#1f77b4;" x="114.548936" xlink:href="#m1fde971961" y="160.251718"/>
     <use style="fill:#1f77b4;stroke:#1f77b4;" x="121.024758" xlink:href="#m1fde971961" y="153.692127"/>
     <use style="fill:#1f77b4;stroke:#1f77b4;" x="127.50058" xlink:href="#m1fde971961" y="135.863196"/>
     <use style="fill:#1f77b4;stroke:#1f77b4;" x="133.976402" xlink:href="#m1fde971961" y="120.986881"/>
     <use style="fill:#1f77b4;stroke:#1f77b4;" x="140.452224" xlink:href="#m1fde971961" y="117.882533"/>
     <use style="fill:#1f77b4;stroke:#1f77b4;" x="146.928046" xlink:href="#m1fde971961" y="114.91447"/>
     <use style="fill:#1f77b4;stroke:#1f77b4;" x="153.403868" xlink:href="#m1fde971961" y="112.220987"/>
     <use style="fill:#1f77b4;stroke:#1f77b4;" x="159.879691" xlink:href="#m1fde971961" y="109.766951"/>
     <use style="fill:#1f77b4;stroke:#1f77b4;" x="166.355513" xlink:href="#m1fde971961" y="106.178062"/>
     <use style="fill:#1f77b4;stroke:#1f77b4;" x="172.831335" xlink:href="#m1fde971961" y="96.855964"/>
     <use style="fill:#1f77b4;stroke:#1f77b4;" x="179.307157" xlink:href="#m1fde971961" y="88.87134"/>
     <use style="fill:#1f77b4;stroke:#1f77b4;" x="185.782979" xlink:href="#m1fde971961" y="87.083857"/>
     <use style="fill:#1f77b4;stroke:#1f77b4;" x="192.258801" xlink:href="#m1fde971961" y="85.209382"/>
     <use style="fill:#1f77b4;stroke:#1f77b4;" x="198.734623" xlink:href="#m1fde971961" y="83.300265"/>
     <use style="fill:#1f77b4;stroke:#1f77b4;" x="205.210445" xlink:href="#m1fde971961" y="81.51383"/>
     <use style="fill:#1f77b4;stroke:#1f77b4;" x="211.686267" xlink:href="#m1fde971961" y="78.79445"/>
     <use style="fill:#1f77b4;stroke:#1f77b4;" x="218.162089" xlink:href="#m1fde971961" y="72.784391"/>
     <use style="fill:#1f77b4;stroke:#1f77b4;" x="224.637911" xlink:href="#m1fde971961" y="67.914092"/>
     <use style="fill:#1f77b4;stroke:#1f77b4;" x="231.113733" xlink:href="#m1fde971961" y="66.662625"/>
     <use style="fill:#1f77b4;stroke:#1f77b4;" x="237.589555" xlink:href="#m1fde971961" y="65.204602"/>
     <use style="fill:#1f77b4;stroke:#1f77b4;" x="244.065377" xlink:href="#m1fde971961" y="64.012096"/>
     <use style="fill:#1f77b4;stroke:#1f77b4;" x="250.541199" xlink:href="#m1fde971961" y="63.193977"/>
     <use style="fill:#1f77b4;stroke:#1f77b4;" x="257.017021" xlink:href="#m1fde971961" y="62.152543"/>
     <use style="fill:#1f77b4;stroke:#1f77b4;" x="263.492843" xlink:href="#m1fde971961" y="59.966958"/>
     <use style="fill:#1f77b4;stroke:#1f77b4;" x="269.968665" xlink:href="#m1fde971961" y="57.892414"/>
     <use style="fill:#1f77b4;stroke:#1f77b4;" x="276.444487" xlink:href="#m1fde971961" y="57.074603"/>
     <use style="fill:#1f77b4;stroke:#1f77b4;" x="282.920309" xlink:href="#m1fde971961" y="56.066886"/>
     <use style="fill:#1f77b4;stroke:#1f77b4;" x="289.396132" xlink:href="#m1fde971961" y="53.522367"/>
     <use style="fill:#1f77b4;stroke:#1f77b4;" x="295.871954" xlink:href="#m1fde971961" y="52.789921"/>
     <use style="fill:#1f77b4;stroke:#1f77b4;" x="302.347776" xlink:href="#m1fde971961" y="52.185855"/>
     <use style="fill:#1f77b4;stroke:#1f77b4;" x="308.823598" xlink:href="#m1fde971961" y="51.023909"/>
     <use style="fill:#1f77b4;stroke:#1f77b4;" x="315.29942" xlink:href="#m1fde971961" y="49.883988"/>
     <use style="fill:#1f77b4;stroke:#1f77b4;" x="321.775242" xlink:href="#m1fde971961" y="49.148854"/>
     <use style="fill:#1f77b4;stroke:#1f77b4;" x="328.251064" xlink:href="#m1fde971961" y="48.306539"/>
     <use style="fill:#1f77b4;stroke:#1f77b4;" x="334.726886" xlink:href="#m1fde971961" y="47.037954"/>
     <use style="fill:#1f77b4;stroke:#1f77b4;" x="341.202708" xlink:href="#m1fde971961" y="46.600536"/>
     <use style="fill:#1f77b4;stroke:#1f77b4;" x="347.67853" xlink:href="#m1fde971961" y="46.193024"/>
     <use style="fill:#1f77b4;stroke:#1f77b4;" x="354.154352" xlink:href="#m1fde971961" y="45.493753"/>
     <use style="fill:#1f77b4;stroke:#1f77b4;" x="360.630174" xlink:href="#m1fde971961" y="44.891463"/>
     <use style="fill:#1f77b4;stroke:#1f77b4;" x="367.105996" xlink:href="#m1fde971961" y="44.670121"/>
     <use style="fill:#1f77b4;stroke:#1f77b4;" x="373.581818" xlink:href="#m1fde971961" y="44.443636"/>
    </g>
   </g>
   <g id="PathCollection_2">
    <defs>
     <path d="M 0 3 
C 0.795609 3 1.55874 2.683901 2.12132 2.12132 
C 2.683901 1.55874 3 0.795609 3 0 
C 3 -0.795609 2.683901 -1.55874 2.12132 -2.12132 
C 1.55874 -2.683901 0.795609 -3 0 -3 
C -0.795609 -3 -1.55874 -2.683901 -2.12132 -2.12132 
C -2.683901 -1.55874 -3 -0.795609 -3 0 
C -3 0.795609 -2.683901 1.55874 -2.12132 2.12132 
C -1.55874 2.683901 -0.795609 3 0 3 
z
" id="mce13529fcc" style="stroke:#ff7f0e;"/>
    </defs>
    <g clip-path="url(#p1bfd091eca)">
     <use style="fill:#ff7f0e;stroke:#ff7f0e;" x="69.218182" xlink:href="#mce13529fcc" y="242.116364"/>
     <use style="fill:#ff7f0e;stroke:#ff7f0e;" x="75.694004" xlink:href="#mce13529fcc" y="238.989919"/>
     <use style="fill:#ff7f0e;stroke:#ff7f0e;" x="82.169826" xlink:href="#mce13529fcc" y="234.89268"/>
     <use style="fill:#ff7f0e;stroke:#ff7f0e;" x="88.645648" xlink:href="#mce13529fcc" y="229.588852"/>
     <use style="fill:#ff7f0e;stroke:#ff7f0e;" x="95.12147" xlink:href="#mce13529fcc" y="222.831382"/>
     <use style="fill:#ff7f0e;stroke:#ff7f0e;" x="101.597292" xlink:href="#mce13529fcc" y="214.394106"/>
     <use style="fill:#ff7f0e;stroke:#ff7f0e;" x="108.073114" xlink:href="#mce13529fcc" y="204.121273"/>
     <use style="fill:#ff7f0e;stroke:#ff7f0e;" x="114.548936" xlink:href="#mce13529fcc" y="191.990043"/>
     <use style="fill:#ff7f0e;stroke:#ff7f0e;" x="121.024758" xlink:href="#mce13529fcc" y="178.17067"/>
     <use style="fill:#ff7f0e;stroke:#ff7f0e;" x="127.50058" xlink:href="#mce13529fcc" y="163.059103"/>
     <use style="fill:#ff7f0e;stroke:#ff7f0e;" x="133.976402" xlink:href="#mce13529fcc" y="147.255953"/>
     <use style="fill:#ff7f0e;stroke:#ff7f0e;" x="140.452224" xlink:href="#mce13529fcc" y="131.482567"/>
     <use style="fill:#ff7f0e;stroke:#ff7f0e;" x="146.928046" xlink:href="#mce13529fcc" y="116.454996"/>
     <use style="fill:#ff7f0e;stroke:#ff7f0e;" x="153.403868" xlink:href="#mce13529fcc" y="102.759681"/>
     <use style="fill:#ff7f0e;stroke:#ff7f0e;" x="159.879691" xlink:href="#mce13529fcc" y="90.774377"/>
     <use style="fill:#ff7f0e;stroke:#ff7f0e;" x="166.355513" xlink:href="#mce13529fcc" y="80.652092"/>
     <use style="fill:#ff7f0e;stroke:#ff7f0e;" x="172.831335" xlink:href="#mce13529fcc" y="72.356851"/>
     <use style="fill:#ff7f0e;stroke:#ff7f0e;" x="179.307157" xlink:href="#mce13529fcc" y="65.725103"/>
     <use style="fill:#ff7f0e;stroke:#ff7f0e;" x="185.782979" xlink:href="#mce13529fcc" y="60.527379"/>
     <use style="fill:#ff7f0e;stroke:#ff7f0e;" x="192.258801" xlink:href="#mce13529fcc" y="56.516562"/>
     <use style="fill:#ff7f0e;stroke:#ff7f0e;" x="198.734623" xlink:href="#mce13529fcc" y="53.45867"/>
     <use style="fill:#ff7f0e;stroke:#ff7f0e;" x="205.210445" xlink:href="#mce13529fcc" y="51.148639"/>
     <use style="fill:#ff7f0e;stroke:#ff7f0e;" x="211.686267" xlink:href="#mce13529fcc" y="49.415665"/>
     <use style="fill:#ff7f0e;stroke:#ff7f0e;" x="218.162089" xlink:href="#mce13529fcc" y="48.122366"/>
     <use style="fill:#ff7f0e;stroke:#ff7f0e;" x="224.637911" xlink:href="#mce13529fcc" y="47.160933"/>
     <use style="fill:#ff7f0e;stroke:#ff7f0e;" x="231.113733" xlink:href="#mce13529fcc" y="46.448305"/>
     <use style="fill:#ff7f0e;stroke:#ff7f0e;" x="237.589555" xlink:href="#mce13529fcc" y="45.921206"/>
     <use style="fill:#ff7f0e;stroke:#ff7f0e;" x="244.065377" xlink:href="#mce13529fcc" y="45.531971"/>
     <use style="fill:#ff7f0e;stroke:#ff7f0e;" x="250.541199" xlink:href="#mce13529fcc" y="45.244872"/>
     <use style="fill:#ff7f0e;stroke:#ff7f0e;" x="257.017021" xlink:href="#mce13529fcc" y="45.033285"/>
     <use style="fill:#ff7f0e;stroke:#ff7f0e;" x="263.492843" xlink:href="#mce13529fcc" y="44.877466"/>
     <use style="fill:#ff7f0e;stroke:#ff7f0e;" x="269.968665" xlink:href="#mce13529fcc" y="44.76275"/>
     <use style="fill:#ff7f0e;stroke:#ff7f0e;" x="276.444487" xlink:href="#mce13529fcc" y="44.678334"/>
     <use style="fill:#ff7f0e;stroke:#ff7f0e;" x="282.920309" xlink:href="#mce13529fcc" y="44.616253"/>
     <use style="fill:#ff7f0e;stroke:#ff7f0e;" x="289.396132" xlink:href="#mce13529fcc" y="44.570561"/>
     <use style="fill:#ff7f0e;stroke:#ff7f0e;" x="295.871954" xlink:href="#mce13529fcc" y="44.536956"/>
     <use style="fill:#ff7f0e;stroke:#ff7f0e;" x="302.347776" xlink:href="#mce13529fcc" y="44.512254"/>
     <use style="fill:#ff7f0e;stroke:#ff7f0e;" x="308.823598" xlink:href="#mce13529fcc" y="44.494088"/>
     <use style="fill:#ff7f0e;stroke:#ff7f0e;" x="315.29942" xlink:href="#mce13529fcc" y="44.480732"/>
     <use style="fill:#ff7f0e;stroke:#ff7f0e;" x="321.775242" xlink:href="#mce13529fcc" y="44.470916"/>
     <use style="fill:#ff7f0e;stroke:#ff7f0e;" x="328.251064" xlink:href="#mce13529fcc" y="44.463677"/>
     <use style="fill:#ff7f0e;stroke:#ff7f0e;" x="334.726886" xlink:href="#mce13529fcc" y="44.458374"/>
     <use style="fill:#ff7f0e;stroke:#ff7f0e;" x="341.202708" xlink:href="#mce13529fcc" y="44.454464"/>
     <use style="fill:#ff7f0e;stroke:#ff7f0e;" x="347.67853" xlink:href="#mce13529fcc" y="44.451603"/>
     <use style="fill:#ff7f0e;stroke:#ff7f0e;" x="354.154352" xlink:href="#mce13529fcc" y="44.449507"/>
     <use style="fill:#ff7f0e;stroke:#ff7f0e;" x="360.630174" xlink:href="#mce13529fcc" y="44.447953"/>
     <use style="fill:#ff7f0e;stroke:#ff7f0e;" x="367.105996" xlink:href="#mce13529fcc" y="44.446806"/>
     <use style="fill:#ff7f0e;stroke:#ff7f0e;" x="373.581818" xlink:href="#mce13529fcc" y="44.445955"/>
    </g>
   </g>
   <g id="matplotlib.axis_1">
    <g id="xtick_1">
     <g id="line2d_1">
      <defs>
       <path d="M 0 0 
L 0 3.5 
" id="m43f30135b5" style="stroke:#000000;stroke-width:0.8;"/>
      </defs>
      <g>
       <use style="stroke:#000000;stroke-width:0.8;" x="69.218182" xlink:href="#m43f30135b5" y="252"/>
      </g>
     </g>
     <g id="text_1">
      <!-- 0 -->
      <g transform="translate(66.036932 266.598437)scale(0.1 -0.1)">
       <defs>
        <path d="M 2034 4250 
Q 1547 4250 1301 3770 
Q 1056 3291 1056 2328 
Q 1056 1369 1301 889 
Q 1547 409 2034 409 
Q 2525 409 2770 889 
Q 3016 1369 3016 2328 
Q 3016 3291 2770 3770 
Q 2525 4250 2034 4250 
z
M 2034 4750 
Q 2819 4750 3233 4129 
Q 3647 3509 3647 2328 
Q 3647 1150 3233 529 
Q 2819 -91 2034 -91 
Q 1250 -91 836 529 
Q 422 1150 422 2328 
Q 422 3509 836 4129 
Q 1250 4750 2034 4750 
z
" id="DejaVuSans-30" transform="scale(0.015625)"/>
       </defs>
       <use xlink:href="#DejaVuSans-30"/>
      </g>
     </g>
    </g>
    <g id="xtick_2">
     <g id="line2d_2">
      <g>
       <use style="stroke:#000000;stroke-width:0.8;" x="133.976402" xlink:href="#m43f30135b5" y="252"/>
      </g>
     </g>
     <g id="text_2">
      <!-- 10 -->
      <g transform="translate(127.613902 266.598437)scale(0.1 -0.1)">
       <defs>
        <path d="M 794 531 
L 1825 531 
L 1825 4091 
L 703 3866 
L 703 4441 
L 1819 4666 
L 2450 4666 
L 2450 531 
L 3481 531 
L 3481 0 
L 794 0 
L 794 531 
z
" id="DejaVuSans-31" transform="scale(0.015625)"/>
       </defs>
       <use xlink:href="#DejaVuSans-31"/>
       <use x="63.623047" xlink:href="#DejaVuSans-30"/>
      </g>
     </g>
    </g>
    <g id="xtick_3">
     <g id="line2d_3">
      <g>
       <use style="stroke:#000000;stroke-width:0.8;" x="198.734623" xlink:href="#m43f30135b5" y="252"/>
      </g>
     </g>
     <g id="text_3">
      <!-- 20 -->
      <g transform="translate(192.372123 266.598437)scale(0.1 -0.1)">
       <defs>
        <path d="M 1228 531 
L 3431 531 
L 3431 0 
L 469 0 
L 469 531 
Q 828 903 1448 1529 
Q 2069 2156 2228 2338 
Q 2531 2678 2651 2914 
Q 2772 3150 2772 3378 
Q 2772 3750 2511 3984 
Q 2250 4219 1831 4219 
Q 1534 4219 1204 4116 
Q 875 4013 500 3803 
L 500 4441 
Q 881 4594 1212 4672 
Q 1544 4750 1819 4750 
Q 2544 4750 2975 4387 
Q 3406 4025 3406 3419 
Q 3406 3131 3298 2873 
Q 3191 2616 2906 2266 
Q 2828 2175 2409 1742 
Q 1991 1309 1228 531 
z
" id="DejaVuSans-32" transform="scale(0.015625)"/>
       </defs>
       <use xlink:href="#DejaVuSans-32"/>
       <use x="63.623047" xlink:href="#DejaVuSans-30"/>
      </g>
     </g>
    </g>
    <g id="xtick_4">
     <g id="line2d_4">
      <g>
       <use style="stroke:#000000;stroke-width:0.8;" x="263.492843" xlink:href="#m43f30135b5" y="252"/>
      </g>
     </g>
     <g id="text_4">
      <!-- 30 -->
      <g transform="translate(257.130343 266.598437)scale(0.1 -0.1)">
       <defs>
        <path d="M 2597 2516 
Q 3050 2419 3304 2112 
Q 3559 1806 3559 1356 
Q 3559 666 3084 287 
Q 2609 -91 1734 -91 
Q 1441 -91 1130 -33 
Q 819 25 488 141 
L 488 750 
Q 750 597 1062 519 
Q 1375 441 1716 441 
Q 2309 441 2620 675 
Q 2931 909 2931 1356 
Q 2931 1769 2642 2001 
Q 2353 2234 1838 2234 
L 1294 2234 
L 1294 2753 
L 1863 2753 
Q 2328 2753 2575 2939 
Q 2822 3125 2822 3475 
Q 2822 3834 2567 4026 
Q 2313 4219 1838 4219 
Q 1578 4219 1281 4162 
Q 984 4106 628 3988 
L 628 4550 
Q 988 4650 1302 4700 
Q 1616 4750 1894 4750 
Q 2613 4750 3031 4423 
Q 3450 4097 3450 3541 
Q 3450 3153 3228 2886 
Q 3006 2619 2597 2516 
z
" id="DejaVuSans-33" transform="scale(0.015625)"/>
       </defs>
       <use xlink:href="#DejaVuSans-33"/>
       <use x="63.623047" xlink:href="#DejaVuSans-30"/>
      </g>
     </g>
    </g>
    <g id="xtick_5">
     <g id="line2d_5">
      <g>
       <use style="stroke:#000000;stroke-width:0.8;" x="328.251064" xlink:href="#m43f30135b5" y="252"/>
      </g>
     </g>
     <g id="text_5">
      <!-- 40 -->
      <g transform="translate(321.888564 266.598437)scale(0.1 -0.1)">
       <defs>
        <path d="M 2419 4116 
L 825 1625 
L 2419 1625 
L 2419 4116 
z
M 2253 4666 
L 3047 4666 
L 3047 1625 
L 3713 1625 
L 3713 1100 
L 3047 1100 
L 3047 0 
L 2419 0 
L 2419 1100 
L 313 1100 
L 313 1709 
L 2253 4666 
z
" id="DejaVuSans-34" transform="scale(0.015625)"/>
       </defs>
       <use xlink:href="#DejaVuSans-34"/>
       <use x="63.623047" xlink:href="#DejaVuSans-30"/>
      </g>
     </g>
    </g>
   </g>
   <g id="matplotlib.axis_2">
    <g id="ytick_1">
     <g id="line2d_6">
      <defs>
       <path d="M 0 0 
L -3.5 0 
" id="m276a40ea65" style="stroke:#000000;stroke-width:0.8;"/>
      </defs>
      <g>
       <use style="stroke:#000000;stroke-width:0.8;" x="54" xlink:href="#m276a40ea65" y="251.346967"/>
      </g>
     </g>
     <g id="text_6">
      <!-- 0.0 -->
      <g transform="translate(31.096875 255.146185)scale(0.1 -0.1)">
       <defs>
        <path d="M 684 794 
L 1344 794 
L 1344 0 
L 684 0 
L 684 794 
z
" id="DejaVuSans-2e" transform="scale(0.015625)"/>
       </defs>
       <use xlink:href="#DejaVuSans-30"/>
       <use x="63.623047" xlink:href="#DejaVuSans-2e"/>
       <use x="95.410156" xlink:href="#DejaVuSans-30"/>
      </g>
     </g>
    </g>
    <g id="ytick_2">
     <g id="line2d_7">
      <g>
       <use style="stroke:#000000;stroke-width:0.8;" x="54" xlink:href="#m276a40ea65" y="209.966301"/>
      </g>
     </g>
     <g id="text_7">
      <!-- 0.2 -->
      <g transform="translate(31.096875 213.765519)scale(0.1 -0.1)">
       <use xlink:href="#DejaVuSans-30"/>
       <use x="63.623047" xlink:href="#DejaVuSans-2e"/>
       <use x="95.410156" xlink:href="#DejaVuSans-32"/>
      </g>
     </g>
    </g>
    <g id="ytick_3">
     <g id="line2d_8">
      <g>
       <use style="stroke:#000000;stroke-width:0.8;" x="54" xlink:href="#m276a40ea65" y="168.585634"/>
      </g>
     </g>
     <g id="text_8">
      <!-- 0.4 -->
      <g transform="translate(31.096875 172.384853)scale(0.1 -0.1)">
       <use xlink:href="#DejaVuSans-30"/>
       <use x="63.623047" xlink:href="#DejaVuSans-2e"/>
       <use x="95.410156" xlink:href="#DejaVuSans-34"/>
      </g>
     </g>
    </g>
    <g id="ytick_4">
     <g id="line2d_9">
      <g>
       <use style="stroke:#000000;stroke-width:0.8;" x="54" xlink:href="#m276a40ea65" y="127.204968"/>
      </g>
     </g>
     <g id="text_9">
      <!-- 0.6 -->
      <g transform="translate(31.096875 131.004187)scale(0.1 -0.1)">
       <defs>
        <path d="M 2113 2584 
Q 1688 2584 1439 2293 
Q 1191 2003 1191 1497 
Q 1191 994 1439 701 
Q 1688 409 2113 409 
Q 2538 409 2786 701 
Q 3034 994 3034 1497 
Q 3034 2003 2786 2293 
Q 2538 2584 2113 2584 
z
M 3366 4563 
L 3366 3988 
Q 3128 4100 2886 4159 
Q 2644 4219 2406 4219 
Q 1781 4219 1451 3797 
Q 1122 3375 1075 2522 
Q 1259 2794 1537 2939 
Q 1816 3084 2150 3084 
Q 2853 3084 3261 2657 
Q 3669 2231 3669 1497 
Q 3669 778 3244 343 
Q 2819 -91 2113 -91 
Q 1303 -91 875 529 
Q 447 1150 447 2328 
Q 447 3434 972 4092 
Q 1497 4750 2381 4750 
Q 2619 4750 2861 4703 
Q 3103 4656 3366 4563 
z
" id="DejaVuSans-36" transform="scale(0.015625)"/>
       </defs>
       <use xlink:href="#DejaVuSans-30"/>
       <use x="63.623047" xlink:href="#DejaVuSans-2e"/>
       <use x="95.410156" xlink:href="#DejaVuSans-36"/>
      </g>
     </g>
    </g>
    <g id="ytick_5">
     <g id="line2d_10">
      <g>
       <use style="stroke:#000000;stroke-width:0.8;" x="54" xlink:href="#m276a40ea65" y="85.824302"/>
      </g>
     </g>
     <g id="text_10">
      <!-- 0.8 -->
      <g transform="translate(31.096875 89.623521)scale(0.1 -0.1)">
       <defs>
        <path d="M 2034 2216 
Q 1584 2216 1326 1975 
Q 1069 1734 1069 1313 
Q 1069 891 1326 650 
Q 1584 409 2034 409 
Q 2484 409 2743 651 
Q 3003 894 3003 1313 
Q 3003 1734 2745 1975 
Q 2488 2216 2034 2216 
z
M 1403 2484 
Q 997 2584 770 2862 
Q 544 3141 544 3541 
Q 544 4100 942 4425 
Q 1341 4750 2034 4750 
Q 2731 4750 3128 4425 
Q 3525 4100 3525 3541 
Q 3525 3141 3298 2862 
Q 3072 2584 2669 2484 
Q 3125 2378 3379 2068 
Q 3634 1759 3634 1313 
Q 3634 634 3220 271 
Q 2806 -91 2034 -91 
Q 1263 -91 848 271 
Q 434 634 434 1313 
Q 434 1759 690 2068 
Q 947 2378 1403 2484 
z
M 1172 3481 
Q 1172 3119 1398 2916 
Q 1625 2713 2034 2713 
Q 2441 2713 2670 2916 
Q 2900 3119 2900 3481 
Q 2900 3844 2670 4047 
Q 2441 4250 2034 4250 
Q 1625 4250 1398 4047 
Q 1172 3844 1172 3481 
z
" id="DejaVuSans-38" transform="scale(0.015625)"/>
       </defs>
       <use xlink:href="#DejaVuSans-30"/>
       <use x="63.623047" xlink:href="#DejaVuSans-2e"/>
       <use x="95.410156" xlink:href="#DejaVuSans-38"/>
      </g>
     </g>
    </g>
    <g id="ytick_6">
     <g id="line2d_11">
      <g>
       <use style="stroke:#000000;stroke-width:0.8;" x="54" xlink:href="#m276a40ea65" y="44.443636"/>
      </g>
     </g>
     <g id="text_11">
      <!-- 1.0 -->
      <g transform="translate(31.096875 48.242855)scale(0.1 -0.1)">
       <use xlink:href="#DejaVuSans-31"/>
       <use x="63.623047" xlink:href="#DejaVuSans-2e"/>
       <use x="95.410156" xlink:href="#DejaVuSans-30"/>
      </g>
     </g>
    </g>
   </g>
   <g id="patch_3">
    <path d="M 54 252 
L 54 34.56 
" style="fill:none;stroke:#000000;stroke-linecap:square;stroke-linejoin:miter;stroke-width:0.8;"/>
   </g>
   <g id="patch_4">
    <path d="M 388.8 252 
L 388.8 34.56 
" style="fill:none;stroke:#000000;stroke-linecap:square;stroke-linejoin:miter;stroke-width:0.8;"/>
   </g>
   <g id="patch_5">
    <path d="M 54 252 
L 388.8 252 
" style="fill:none;stroke:#000000;stroke-linecap:square;stroke-linejoin:miter;stroke-width:0.8;"/>
   </g>
   <g id="patch_6">
    <path d="M 54 34.56 
L 388.8 34.56 
" style="fill:none;stroke:#000000;stroke-linecap:square;stroke-linejoin:miter;stroke-width:0.8;"/>
   </g>
   <g id="legend_1">
    <g id="patch_7">
     <path d="M 61 71.91625 
L 135.503125 71.91625 
Q 137.503125 71.91625 137.503125 69.91625 
L 137.503125 41.56 
Q 137.503125 39.56 135.503125 39.56 
L 61 39.56 
Q 59 39.56 59 41.56 
L 59 69.91625 
Q 59 71.91625 61 71.91625 
z
" style="fill:#ffffff;opacity:0.8;stroke:#cccccc;stroke-linejoin:miter;"/>
    </g>
    <g id="PathCollection_3">
     <g>
      <use style="fill:#1f77b4;stroke:#1f77b4;" x="73" xlink:href="#m1fde971961" y="48.533437"/>
     </g>
    </g>
    <g id="text_12">
     <!-- Actual -->
     <g transform="translate(91 51.158437)scale(0.1 -0.1)">
      <defs>
       <path d="M 2188 4044 
L 1331 1722 
L 3047 1722 
L 2188 4044 
z
M 1831 4666 
L 2547 4666 
L 4325 0 
L 3669 0 
L 3244 1197 
L 1141 1197 
L 716 0 
L 50 0 
L 1831 4666 
z
" id="DejaVuSans-41" transform="scale(0.015625)"/>
       <path d="M 3122 3366 
L 3122 2828 
Q 2878 2963 2633 3030 
Q 2388 3097 2138 3097 
Q 1578 3097 1268 2742 
Q 959 2388 959 1747 
Q 959 1106 1268 751 
Q 1578 397 2138 397 
Q 2388 397 2633 464 
Q 2878 531 3122 666 
L 3122 134 
Q 2881 22 2623 -34 
Q 2366 -91 2075 -91 
Q 1284 -91 818 406 
Q 353 903 353 1747 
Q 353 2603 823 3093 
Q 1294 3584 2113 3584 
Q 2378 3584 2631 3529 
Q 2884 3475 3122 3366 
z
" id="DejaVuSans-63" transform="scale(0.015625)"/>
       <path d="M 1172 4494 
L 1172 3500 
L 2356 3500 
L 2356 3053 
L 1172 3053 
L 1172 1153 
Q 1172 725 1289 603 
Q 1406 481 1766 481 
L 2356 481 
L 2356 0 
L 1766 0 
Q 1100 0 847 248 
Q 594 497 594 1153 
L 594 3053 
L 172 3053 
L 172 3500 
L 594 3500 
L 594 4494 
L 1172 4494 
z
" id="DejaVuSans-74" transform="scale(0.015625)"/>
       <path d="M 544 1381 
L 544 3500 
L 1119 3500 
L 1119 1403 
Q 1119 906 1312 657 
Q 1506 409 1894 409 
Q 2359 409 2629 706 
Q 2900 1003 2900 1516 
L 2900 3500 
L 3475 3500 
L 3475 0 
L 2900 0 
L 2900 538 
Q 2691 219 2414 64 
Q 2138 -91 1772 -91 
Q 1169 -91 856 284 
Q 544 659 544 1381 
z
M 1991 3584 
L 1991 3584 
z
" id="DejaVuSans-75" transform="scale(0.015625)"/>
       <path d="M 2194 1759 
Q 1497 1759 1228 1600 
Q 959 1441 959 1056 
Q 959 750 1161 570 
Q 1363 391 1709 391 
Q 2188 391 2477 730 
Q 2766 1069 2766 1631 
L 2766 1759 
L 2194 1759 
z
M 3341 1997 
L 3341 0 
L 2766 0 
L 2766 531 
Q 2569 213 2275 61 
Q 1981 -91 1556 -91 
Q 1019 -91 701 211 
Q 384 513 384 1019 
Q 384 1609 779 1909 
Q 1175 2209 1959 2209 
L 2766 2209 
L 2766 2266 
Q 2766 2663 2505 2880 
Q 2244 3097 1772 3097 
Q 1472 3097 1187 3025 
Q 903 2953 641 2809 
L 641 3341 
Q 956 3463 1253 3523 
Q 1550 3584 1831 3584 
Q 2591 3584 2966 3190 
Q 3341 2797 3341 1997 
z
" id="DejaVuSans-61" transform="scale(0.015625)"/>
       <path d="M 603 4863 
L 1178 4863 
L 1178 0 
L 603 0 
L 603 4863 
z
" id="DejaVuSans-6c" transform="scale(0.015625)"/>
      </defs>
      <use xlink:href="#DejaVuSans-41"/>
      <use x="66.658203" xlink:href="#DejaVuSans-63"/>
      <use x="121.638672" xlink:href="#DejaVuSans-74"/>
      <use x="160.847656" xlink:href="#DejaVuSans-75"/>
      <use x="224.226562" xlink:href="#DejaVuSans-61"/>
      <use x="285.505859" xlink:href="#DejaVuSans-6c"/>
     </g>
    </g>
    <g id="PathCollection_4">
     <g>
      <use style="fill:#ff7f0e;stroke:#ff7f0e;" x="73" xlink:href="#mce13529fcc" y="63.211562"/>
     </g>
    </g>
    <g id="text_13">
     <!-- SI Model -->
     <g transform="translate(91 65.836562)scale(0.1 -0.1)">
      <defs>
       <path d="M 3425 4513 
L 3425 3897 
Q 3066 4069 2747 4153 
Q 2428 4238 2131 4238 
Q 1616 4238 1336 4038 
Q 1056 3838 1056 3469 
Q 1056 3159 1242 3001 
Q 1428 2844 1947 2747 
L 2328 2669 
Q 3034 2534 3370 2195 
Q 3706 1856 3706 1288 
Q 3706 609 3251 259 
Q 2797 -91 1919 -91 
Q 1588 -91 1214 -16 
Q 841 59 441 206 
L 441 856 
Q 825 641 1194 531 
Q 1563 422 1919 422 
Q 2459 422 2753 634 
Q 3047 847 3047 1241 
Q 3047 1584 2836 1778 
Q 2625 1972 2144 2069 
L 1759 2144 
Q 1053 2284 737 2584 
Q 422 2884 422 3419 
Q 422 4038 858 4394 
Q 1294 4750 2059 4750 
Q 2388 4750 2728 4690 
Q 3069 4631 3425 4513 
z
" id="DejaVuSans-53" transform="scale(0.015625)"/>
       <path d="M 628 4666 
L 1259 4666 
L 1259 0 
L 628 0 
L 628 4666 
z
" id="DejaVuSans-49" transform="scale(0.015625)"/>
       <path id="DejaVuSans-20" transform="scale(0.015625)"/>
       <path d="M 628 4666 
L 1569 4666 
L 2759 1491 
L 3956 4666 
L 4897 4666 
L 4897 0 
L 4281 0 
L 4281 4097 
L 3078 897 
L 2444 897 
L 1241 4097 
L 1241 0 
L 628 0 
L 628 4666 
z
" id="DejaVuSans-4d" transform="scale(0.015625)"/>
       <path d="M 1959 3097 
Q 1497 3097 1228 2736 
Q 959 2375 959 1747 
Q 959 1119 1226 758 
Q 1494 397 1959 397 
Q 2419 397 2687 759 
Q 2956 1122 2956 1747 
Q 2956 2369 2687 2733 
Q 2419 3097 1959 3097 
z
M 1959 3584 
Q 2709 3584 3137 3096 
Q 3566 2609 3566 1747 
Q 3566 888 3137 398 
Q 2709 -91 1959 -91 
Q 1206 -91 779 398 
Q 353 888 353 1747 
Q 353 2609 779 3096 
Q 1206 3584 1959 3584 
z
" id="DejaVuSans-6f" transform="scale(0.015625)"/>
       <path d="M 2906 2969 
L 2906 4863 
L 3481 4863 
L 3481 0 
L 2906 0 
L 2906 525 
Q 2725 213 2448 61 
Q 2172 -91 1784 -91 
Q 1150 -91 751 415 
Q 353 922 353 1747 
Q 353 2572 751 3078 
Q 1150 3584 1784 3584 
Q 2172 3584 2448 3432 
Q 2725 3281 2906 2969 
z
M 947 1747 
Q 947 1113 1208 752 
Q 1469 391 1925 391 
Q 2381 391 2643 752 
Q 2906 1113 2906 1747 
Q 2906 2381 2643 2742 
Q 2381 3103 1925 3103 
Q 1469 3103 1208 2742 
Q 947 2381 947 1747 
z
" id="DejaVuSans-64" transform="scale(0.015625)"/>
       <path d="M 3597 1894 
L 3597 1613 
L 953 1613 
Q 991 1019 1311 708 
Q 1631 397 2203 397 
Q 2534 397 2845 478 
Q 3156 559 3463 722 
L 3463 178 
Q 3153 47 2828 -22 
Q 2503 -91 2169 -91 
Q 1331 -91 842 396 
Q 353 884 353 1716 
Q 353 2575 817 3079 
Q 1281 3584 2069 3584 
Q 2775 3584 3186 3129 
Q 3597 2675 3597 1894 
z
M 3022 2063 
Q 3016 2534 2758 2815 
Q 2500 3097 2075 3097 
Q 1594 3097 1305 2825 
Q 1016 2553 972 2059 
L 3022 2063 
z
" id="DejaVuSans-65" transform="scale(0.015625)"/>
      </defs>
      <use xlink:href="#DejaVuSans-53"/>
      <use x="63.476562" xlink:href="#DejaVuSans-49"/>
      <use x="92.96875" xlink:href="#DejaVuSans-20"/>
      <use x="124.755859" xlink:href="#DejaVuSans-4d"/>
      <use x="211.035156" xlink:href="#DejaVuSans-6f"/>
      <use x="272.216797" xlink:href="#DejaVuSans-64"/>
      <use x="335.693359" xlink:href="#DejaVuSans-65"/>
      <use x="397.216797" xlink:href="#DejaVuSans-6c"/>
     </g>
    </g>
   </g>
  </g>
 </g>
 <defs>
  <clipPath id="p1bfd091eca">
   <rect height="217.44" width="334.8" x="54" y="34.56"/>
  </clipPath>
 </defs>
</svg>
