<?xml version="1.0" encoding="utf-8" standalone="no"?>
<!DOCTYPE svg PUBLIC "-//W3C//DTD SVG 1.1//EN"
  "http://www.w3.org/Graphics/SVG/1.1/DTD/svg11.dtd">
<svg height="288pt" version="1.1" viewBox="0 0 432 288" width="432pt" xmlns="http://www.w3.org/2000/svg" xmlns:xlink="http://www.w3.org/1999/xlink">
 <metadata>
  <rdf:RDF xmlns:cc="http://creativecommons.org/ns#" xmlns:dc="http://purl.org/dc/elements/1.1/" xmlns:rdf="http://www.w3.org/1999/02/22-rdf-syntax-ns#">
   <cc:Work>
    <dc:type rdf:resource="http://purl.org/dc/dcmitype/StillImage"/>
    <dc:date>2021-08-29T20:46:37.143862</dc:date>
    <dc:format>image/svg+xml</dc:format>
    <dc:creator>
     <cc:Agent>
      <dc:title>Matplotlib v3.4.2, https://matplotlib.org/</dc:title>
     </cc:Agent>
    </dc:creator>
   </cc:Work>
  </rdf:RDF>
 </metadata>
 <defs>
  <style type="text/css">*{stroke-linecap:butt;stroke-linejoin:round;}</style>
 </defs>
 <g id="figure_1">
  <g id="patch_1">
   <path d="M 0 288 
L 432 288 
L 432 0 
L 0 0 
z
" style="fill:none;"/>
  </g>
  <g id="axes_1">
   <g id="patch_2">
    <path d="M 54 252 
L 388.8 252 
L 388.8 34.56 
L 54 34.56 
z
" style="fill:#ffffff;"/>
   </g>
   <g id="PathCollection_1">
    <defs>
     <path d="M 0 3 
C 0.795609 3 1.55874 2.683901 2.12132 2.12132 
C 2.683901 1.55874 3 0.795609 3 0 
C 3 -0.795609 2.683901 -1.55874 2.12132 -2.12132 
C 1.55874 -2.683901 0.795609 -3 0 -3 
C -0.795609 -3 -1.55874 -2.683901 -2.12132 -2.12132 
C -2.683901 -1.55874 -3 -0.795609 -3 0 
C -3 0.795609 -2.683901 1.55874 -2.12132 2.12132 
C -1.55874 2.683901 -0.795609 3 0 3 
z
" id="m6decfea3d8" style="stroke:#1f77b4;"/>
    </defs>
    <g clip-path="url(#p2bb782e63a)">
     <use style="fill:#1f77b4;stroke:#1f77b4;" x="69.218182" xlink:href="#m6decfea3d8" y="242.116364"/>
     <use style="fill:#1f77b4;stroke:#1f77b4;" x="74.752066" xlink:href="#m6decfea3d8" y="235.050557"/>
     <use style="fill:#1f77b4;stroke:#1f77b4;" x="80.28595" xlink:href="#m6decfea3d8" y="226.22729"/>
     <use style="fill:#1f77b4;stroke:#1f77b4;" x="85.819835" xlink:href="#m6decfea3d8" y="210.810821"/>
     <use style="fill:#1f77b4;stroke:#1f77b4;" x="91.353719" xlink:href="#m6decfea3d8" y="195.371056"/>
     <use style="fill:#1f77b4;stroke:#1f77b4;" x="96.887603" xlink:href="#m6decfea3d8" y="188.472883"/>
     <use style="fill:#1f77b4;stroke:#1f77b4;" x="102.421488" xlink:href="#m6decfea3d8" y="181.958582"/>
     <use style="fill:#1f77b4;stroke:#1f77b4;" x="107.955372" xlink:href="#m6decfea3d8" y="173.934833"/>
     <use style="fill:#1f77b4;stroke:#1f77b4;" x="113.489256" xlink:href="#m6decfea3d8" y="168.493837"/>
     <use style="fill:#1f77b4;stroke:#1f77b4;" x="119.02314" xlink:href="#m6decfea3d8" y="162.0803"/>
     <use style="fill:#1f77b4;stroke:#1f77b4;" x="124.557025" xlink:href="#m6decfea3d8" y="152.567716"/>
     <use style="fill:#1f77b4;stroke:#1f77b4;" x="130.090909" xlink:href="#m6decfea3d8" y="143.356438"/>
     <use style="fill:#1f77b4;stroke:#1f77b4;" x="135.624793" xlink:href="#m6decfea3d8" y="136.542296"/>
     <use style="fill:#1f77b4;stroke:#1f77b4;" x="141.158678" xlink:href="#m6decfea3d8" y="130.283362"/>
     <use style="fill:#1f77b4;stroke:#1f77b4;" x="146.692562" xlink:href="#m6decfea3d8" y="125.850015"/>
     <use style="fill:#1f77b4;stroke:#1f77b4;" x="152.226446" xlink:href="#m6decfea3d8" y="121.89856"/>
     <use style="fill:#1f77b4;stroke:#1f77b4;" x="157.760331" xlink:href="#m6decfea3d8" y="117.452489"/>
     <use style="fill:#1f77b4;stroke:#1f77b4;" x="163.294215" xlink:href="#m6decfea3d8" y="110.686755"/>
     <use style="fill:#1f77b4;stroke:#1f77b4;" x="168.828099" xlink:href="#m6decfea3d8" y="104.356588"/>
     <use style="fill:#1f77b4;stroke:#1f77b4;" x="174.361983" xlink:href="#m6decfea3d8" y="101.365445"/>
     <use style="fill:#1f77b4;stroke:#1f77b4;" x="179.895868" xlink:href="#m6decfea3d8" y="98.573723"/>
     <use style="fill:#1f77b4;stroke:#1f77b4;" x="185.429752" xlink:href="#m6decfea3d8" y="95.901606"/>
     <use style="fill:#1f77b4;stroke:#1f77b4;" x="190.963636" xlink:href="#m6decfea3d8" y="93.188705"/>
     <use style="fill:#1f77b4;stroke:#1f77b4;" x="196.497521" xlink:href="#m6decfea3d8" y="88.243054"/>
     <use style="fill:#1f77b4;stroke:#1f77b4;" x="202.031405" xlink:href="#m6decfea3d8" y="82.205839"/>
     <use style="fill:#1f77b4;stroke:#1f77b4;" x="207.565289" xlink:href="#m6decfea3d8" y="77.114079"/>
     <use style="fill:#1f77b4;stroke:#1f77b4;" x="213.099174" xlink:href="#m6decfea3d8" y="74.807325"/>
     <use style="fill:#1f77b4;stroke:#1f77b4;" x="218.633058" xlink:href="#m6decfea3d8" y="72.813785"/>
     <use style="fill:#1f77b4;stroke:#1f77b4;" x="224.166942" xlink:href="#m6decfea3d8" y="71.155208"/>
     <use style="fill:#1f77b4;stroke:#1f77b4;" x="229.700826" xlink:href="#m6decfea3d8" y="69.727383"/>
     <use style="fill:#1f77b4;stroke:#1f77b4;" x="235.234711" xlink:href="#m6decfea3d8" y="68.047818"/>
     <use style="fill:#1f77b4;stroke:#1f77b4;" x="240.768595" xlink:href="#m6decfea3d8" y="64.947036"/>
     <use style="fill:#1f77b4;stroke:#1f77b4;" x="246.302479" xlink:href="#m6decfea3d8" y="61.863367"/>
     <use style="fill:#1f77b4;stroke:#1f77b4;" x="251.836364" xlink:href="#m6decfea3d8" y="60.843356"/>
     <use style="fill:#1f77b4;stroke:#1f77b4;" x="257.370248" xlink:href="#m6decfea3d8" y="59.684554"/>
     <use style="fill:#1f77b4;stroke:#1f77b4;" x="262.904132" xlink:href="#m6decfea3d8" y="58.512575"/>
     <use style="fill:#1f77b4;stroke:#1f77b4;" x="268.438017" xlink:href="#m6decfea3d8" y="57.669048"/>
     <use style="fill:#1f77b4;stroke:#1f77b4;" x="273.971901" xlink:href="#m6decfea3d8" y="56.590637"/>
     <use style="fill:#1f77b4;stroke:#1f77b4;" x="279.505785" xlink:href="#m6decfea3d8" y="54.265605"/>
     <use style="fill:#1f77b4;stroke:#1f77b4;" x="285.039669" xlink:href="#m6decfea3d8" y="52.068649"/>
     <use style="fill:#1f77b4;stroke:#1f77b4;" x="290.573554" xlink:href="#m6decfea3d8" y="51.292323"/>
     <use style="fill:#1f77b4;stroke:#1f77b4;" x="296.107438" xlink:href="#m6decfea3d8" y="50.646206"/>
     <use style="fill:#1f77b4;stroke:#1f77b4;" x="301.641322" xlink:href="#m6decfea3d8" y="50.037501"/>
     <use style="fill:#1f77b4;stroke:#1f77b4;" x="307.175207" xlink:href="#m6decfea3d8" y="49.655626"/>
     <use style="fill:#1f77b4;stroke:#1f77b4;" x="312.709091" xlink:href="#m6decfea3d8" y="49.13783"/>
     <use style="fill:#1f77b4;stroke:#1f77b4;" x="318.242975" xlink:href="#m6decfea3d8" y="48.141575"/>
     <use style="fill:#1f77b4;stroke:#1f77b4;" x="323.77686" xlink:href="#m6decfea3d8" y="47.173245"/>
     <use style="fill:#1f77b4;stroke:#1f77b4;" x="329.310744" xlink:href="#m6decfea3d8" y="46.857199"/>
     <use style="fill:#1f77b4;stroke:#1f77b4;" x="334.844628" xlink:href="#m6decfea3d8" y="46.582132"/>
     <use style="fill:#1f77b4;stroke:#1f77b4;" x="340.378512" xlink:href="#m6decfea3d8" y="46.312434"/>
     <use style="fill:#1f77b4;stroke:#1f77b4;" x="345.912397" xlink:href="#m6decfea3d8" y="46.106272"/>
     <use style="fill:#1f77b4;stroke:#1f77b4;" x="351.446281" xlink:href="#m6decfea3d8" y="45.842201"/>
     <use style="fill:#1f77b4;stroke:#1f77b4;" x="356.980165" xlink:href="#m6decfea3d8" y="45.285153"/>
     <use style="fill:#1f77b4;stroke:#1f77b4;" x="362.51405" xlink:href="#m6decfea3d8" y="44.789018"/>
     <use style="fill:#1f77b4;stroke:#1f77b4;" x="368.047934" xlink:href="#m6decfea3d8" y="44.614078"/>
     <use style="fill:#1f77b4;stroke:#1f77b4;" x="373.581818" xlink:href="#m6decfea3d8" y="44.443636"/>
    </g>
   </g>
   <g id="PathCollection_2">
    <defs>
     <path d="M 0 3 
C 0.795609 3 1.55874 2.683901 2.12132 2.12132 
C 2.683901 1.55874 3 0.795609 3 0 
C 3 -0.795609 2.683901 -1.55874 2.12132 -2.12132 
C 1.55874 -2.683901 0.795609 -3 0 -3 
C -0.795609 -3 -1.55874 -2.683901 -2.12132 -2.12132 
C -2.683901 -1.55874 -3 -0.795609 -3 0 
C -3 0.795609 -2.683901 1.55874 -2.12132 2.12132 
C -1.55874 2.683901 -0.795609 3 0 3 
z
" id="mfa3026794f" style="stroke:#ff7f0e;"/>
    </defs>
    <g clip-path="url(#p2bb782e63a)">
     <use style="fill:#ff7f0e;stroke:#ff7f0e;" x="69.218182" xlink:href="#mfa3026794f" y="242.116364"/>
     <use style="fill:#ff7f0e;stroke:#ff7f0e;" x="74.752066" xlink:href="#mfa3026794f" y="240.002839"/>
     <use style="fill:#ff7f0e;stroke:#ff7f0e;" x="80.28595" xlink:href="#mfa3026794f" y="237.366246"/>
     <use style="fill:#ff7f0e;stroke:#ff7f0e;" x="85.819835" xlink:href="#mfa3026794f" y="234.09791"/>
     <use style="fill:#ff7f0e;stroke:#ff7f0e;" x="91.353719" xlink:href="#mfa3026794f" y="230.078138"/>
     <use style="fill:#ff7f0e;stroke:#ff7f0e;" x="96.887603" xlink:href="#mfa3026794f" y="225.181615"/>
     <use style="fill:#ff7f0e;stroke:#ff7f0e;" x="102.421488" xlink:href="#mfa3026794f" y="219.286713"/>
     <use style="fill:#ff7f0e;stroke:#ff7f0e;" x="107.955372" xlink:href="#mfa3026794f" y="212.289316"/>
     <use style="fill:#ff7f0e;stroke:#ff7f0e;" x="113.489256" xlink:href="#mfa3026794f" y="204.121028"/>
     <use style="fill:#ff7f0e;stroke:#ff7f0e;" x="119.02314" xlink:href="#mfa3026794f" y="194.770081"/>
     <use style="fill:#ff7f0e;stroke:#ff7f0e;" x="124.557025" xlink:href="#mfa3026794f" y="184.301278"/>
     <use style="fill:#ff7f0e;stroke:#ff7f0e;" x="130.090909" xlink:href="#mfa3026794f" y="172.869495"/>
     <use style="fill:#ff7f0e;stroke:#ff7f0e;" x="135.624793" xlink:href="#mfa3026794f" y="160.721006"/>
     <use style="fill:#ff7f0e;stroke:#ff7f0e;" x="141.158678" xlink:href="#mfa3026794f" y="148.178267"/>
     <use style="fill:#ff7f0e;stroke:#ff7f0e;" x="146.692562" xlink:href="#mfa3026794f" y="135.608571"/>
     <use style="fill:#ff7f0e;stroke:#ff7f0e;" x="152.226446" xlink:href="#mfa3026794f" y="123.382406"/>
     <use style="fill:#ff7f0e;stroke:#ff7f0e;" x="157.760331" xlink:href="#mfa3026794f" y="111.830871"/>
     <use style="fill:#ff7f0e;stroke:#ff7f0e;" x="163.294215" xlink:href="#mfa3026794f" y="101.212484"/>
     <use style="fill:#ff7f0e;stroke:#ff7f0e;" x="168.828099" xlink:href="#mfa3026794f" y="91.695506"/>
     <use style="fill:#ff7f0e;stroke:#ff7f0e;" x="174.361983" xlink:href="#mfa3026794f" y="83.357028"/>
     <use style="fill:#ff7f0e;stroke:#ff7f0e;" x="179.895868" xlink:href="#mfa3026794f" y="76.195077"/>
     <use style="fill:#ff7f0e;stroke:#ff7f0e;" x="185.429752" xlink:href="#mfa3026794f" y="70.14808"/>
     <use style="fill:#ff7f0e;stroke:#ff7f0e;" x="190.963636" xlink:href="#mfa3026794f" y="65.115835"/>
     <use style="fill:#ff7f0e;stroke:#ff7f0e;" x="196.497521" xlink:href="#mfa3026794f" y="60.978247"/>
     <use style="fill:#ff7f0e;stroke:#ff7f0e;" x="202.031405" xlink:href="#mfa3026794f" y="57.609864"/>
     <use style="fill:#ff7f0e;stroke:#ff7f0e;" x="207.565289" xlink:href="#mfa3026794f" y="54.889767"/>
     <use style="fill:#ff7f0e;stroke:#ff7f0e;" x="213.099174" xlink:href="#mfa3026794f" y="52.707522"/>
     <use style="fill:#ff7f0e;stroke:#ff7f0e;" x="218.633058" xlink:href="#mfa3026794f" y="50.96593"/>
     <use style="fill:#ff7f0e;stroke:#ff7f0e;" x="224.166942" xlink:href="#mfa3026794f" y="49.581806"/>
     <use style="fill:#ff7f0e;stroke:#ff7f0e;" x="229.700826" xlink:href="#mfa3026794f" y="48.485461"/>
     <use style="fill:#ff7f0e;stroke:#ff7f0e;" x="235.234711" xlink:href="#mfa3026794f" y="47.619342"/>
     <use style="fill:#ff7f0e;stroke:#ff7f0e;" x="240.768595" xlink:href="#mfa3026794f" y="46.936523"/>
     <use style="fill:#ff7f0e;stroke:#ff7f0e;" x="246.302479" xlink:href="#mfa3026794f" y="46.399101"/>
     <use style="fill:#ff7f0e;stroke:#ff7f0e;" x="251.836364" xlink:href="#mfa3026794f" y="45.976676"/>
     <use style="fill:#ff7f0e;stroke:#ff7f0e;" x="257.370248" xlink:href="#mfa3026794f" y="45.64495"/>
     <use style="fill:#ff7f0e;stroke:#ff7f0e;" x="262.904132" xlink:href="#mfa3026794f" y="45.384679"/>
     <use style="fill:#ff7f0e;stroke:#ff7f0e;" x="268.438017" xlink:href="#mfa3026794f" y="45.180601"/>
     <use style="fill:#ff7f0e;stroke:#ff7f0e;" x="273.971901" xlink:href="#mfa3026794f" y="45.020641"/>
     <use style="fill:#ff7f0e;stroke:#ff7f0e;" x="279.505785" xlink:href="#mfa3026794f" y="44.895335"/>
     <use style="fill:#ff7f0e;stroke:#ff7f0e;" x="285.039669" xlink:href="#mfa3026794f" y="44.797206"/>
     <use style="fill:#ff7f0e;stroke:#ff7f0e;" x="290.573554" xlink:href="#mfa3026794f" y="44.720358"/>
     <use style="fill:#ff7f0e;stroke:#ff7f0e;" x="296.107438" xlink:href="#mfa3026794f" y="44.660194"/>
     <use style="fill:#ff7f0e;stroke:#ff7f0e;" x="301.641322" xlink:href="#mfa3026794f" y="44.613097"/>
     <use style="fill:#ff7f0e;stroke:#ff7f0e;" x="307.175207" xlink:href="#mfa3026794f" y="44.576236"/>
     <use style="fill:#ff7f0e;stroke:#ff7f0e;" x="312.709091" xlink:href="#mfa3026794f" y="44.547392"/>
     <use style="fill:#ff7f0e;stroke:#ff7f0e;" x="318.242975" xlink:href="#mfa3026794f" y="44.524812"/>
     <use style="fill:#ff7f0e;stroke:#ff7f0e;" x="323.77686" xlink:href="#mfa3026794f" y="44.507147"/>
     <use style="fill:#ff7f0e;stroke:#ff7f0e;" x="329.310744" xlink:href="#mfa3026794f" y="44.493332"/>
     <use style="fill:#ff7f0e;stroke:#ff7f0e;" x="334.844628" xlink:href="#mfa3026794f" y="44.482508"/>
     <use style="fill:#ff7f0e;stroke:#ff7f0e;" x="340.378512" xlink:href="#mfa3026794f" y="44.47405"/>
     <use style="fill:#ff7f0e;stroke:#ff7f0e;" x="345.912397" xlink:href="#mfa3026794f" y="44.46743"/>
     <use style="fill:#ff7f0e;stroke:#ff7f0e;" x="351.446281" xlink:href="#mfa3026794f" y="44.462257"/>
     <use style="fill:#ff7f0e;stroke:#ff7f0e;" x="356.980165" xlink:href="#mfa3026794f" y="44.458199"/>
     <use style="fill:#ff7f0e;stroke:#ff7f0e;" x="362.51405" xlink:href="#mfa3026794f" y="44.455037"/>
     <use style="fill:#ff7f0e;stroke:#ff7f0e;" x="368.047934" xlink:href="#mfa3026794f" y="44.452548"/>
     <use style="fill:#ff7f0e;stroke:#ff7f0e;" x="373.581818" xlink:href="#mfa3026794f" y="44.450611"/>
    </g>
   </g>
   <g id="matplotlib.axis_1">
    <g id="xtick_1">
     <g id="line2d_1">
      <defs>
       <path d="M 0 0 
L 0 3.5 
" id="m1653eb45fc" style="stroke:#000000;stroke-width:0.8;"/>
      </defs>
      <g>
       <use style="stroke:#000000;stroke-width:0.8;" x="69.218182" xlink:href="#m1653eb45fc" y="252"/>
      </g>
     </g>
     <g id="text_1">
      <!-- 0 -->
      <g transform="translate(66.036932 266.598437)scale(0.1 -0.1)">
       <defs>
        <path d="M 2034 4250 
Q 1547 4250 1301 3770 
Q 1056 3291 1056 2328 
Q 1056 1369 1301 889 
Q 1547 409 2034 409 
Q 2525 409 2770 889 
Q 3016 1369 3016 2328 
Q 3016 3291 2770 3770 
Q 2525 4250 2034 4250 
z
M 2034 4750 
Q 2819 4750 3233 4129 
Q 3647 3509 3647 2328 
Q 3647 1150 3233 529 
Q 2819 -91 2034 -91 
Q 1250 -91 836 529 
Q 422 1150 422 2328 
Q 422 3509 836 4129 
Q 1250 4750 2034 4750 
z
" id="DejaVuSans-30" transform="scale(0.015625)"/>
       </defs>
       <use xlink:href="#DejaVuSans-30"/>
      </g>
     </g>
    </g>
    <g id="xtick_2">
     <g id="line2d_2">
      <g>
       <use style="stroke:#000000;stroke-width:0.8;" x="124.557025" xlink:href="#m1653eb45fc" y="252"/>
      </g>
     </g>
     <g id="text_2">
      <!-- 10 -->
      <g transform="translate(118.194525 266.598437)scale(0.1 -0.1)">
       <defs>
        <path d="M 794 531 
L 1825 531 
L 1825 4091 
L 703 3866 
L 703 4441 
L 1819 4666 
L 2450 4666 
L 2450 531 
L 3481 531 
L 3481 0 
L 794 0 
L 794 531 
z
" id="DejaVuSans-31" transform="scale(0.015625)"/>
       </defs>
       <use xlink:href="#DejaVuSans-31"/>
       <use x="63.623047" xlink:href="#DejaVuSans-30"/>
      </g>
     </g>
    </g>
    <g id="xtick_3">
     <g id="line2d_3">
      <g>
       <use style="stroke:#000000;stroke-width:0.8;" x="179.895868" xlink:href="#m1653eb45fc" y="252"/>
      </g>
     </g>
     <g id="text_3">
      <!-- 20 -->
      <g transform="translate(173.533368 266.598437)scale(0.1 -0.1)">
       <defs>
        <path d="M 1228 531 
L 3431 531 
L 3431 0 
L 469 0 
L 469 531 
Q 828 903 1448 1529 
Q 2069 2156 2228 2338 
Q 2531 2678 2651 2914 
Q 2772 3150 2772 3378 
Q 2772 3750 2511 3984 
Q 2250 4219 1831 4219 
Q 1534 4219 1204 4116 
Q 875 4013 500 3803 
L 500 4441 
Q 881 4594 1212 4672 
Q 1544 4750 1819 4750 
Q 2544 4750 2975 4387 
Q 3406 4025 3406 3419 
Q 3406 3131 3298 2873 
Q 3191 2616 2906 2266 
Q 2828 2175 2409 1742 
Q 1991 1309 1228 531 
z
" id="DejaVuSans-32" transform="scale(0.015625)"/>
       </defs>
       <use xlink:href="#DejaVuSans-32"/>
       <use x="63.623047" xlink:href="#DejaVuSans-30"/>
      </g>
     </g>
    </g>
    <g id="xtick_4">
     <g id="line2d_4">
      <g>
       <use style="stroke:#000000;stroke-width:0.8;" x="235.234711" xlink:href="#m1653eb45fc" y="252"/>
      </g>
     </g>
     <g id="text_4">
      <!-- 30 -->
      <g transform="translate(228.872211 266.598437)scale(0.1 -0.1)">
       <defs>
        <path d="M 2597 2516 
Q 3050 2419 3304 2112 
Q 3559 1806 3559 1356 
Q 3559 666 3084 287 
Q 2609 -91 1734 -91 
Q 1441 -91 1130 -33 
Q 819 25 488 141 
L 488 750 
Q 750 597 1062 519 
Q 1375 441 1716 441 
Q 2309 441 2620 675 
Q 2931 909 2931 1356 
Q 2931 1769 2642 2001 
Q 2353 2234 1838 2234 
L 1294 2234 
L 1294 2753 
L 1863 2753 
Q 2328 2753 2575 2939 
Q 2822 3125 2822 3475 
Q 2822 3834 2567 4026 
Q 2313 4219 1838 4219 
Q 1578 4219 1281 4162 
Q 984 4106 628 3988 
L 628 4550 
Q 988 4650 1302 4700 
Q 1616 4750 1894 4750 
Q 2613 4750 3031 4423 
Q 3450 4097 3450 3541 
Q 3450 3153 3228 2886 
Q 3006 2619 2597 2516 
z
" id="DejaVuSans-33" transform="scale(0.015625)"/>
       </defs>
       <use xlink:href="#DejaVuSans-33"/>
       <use x="63.623047" xlink:href="#DejaVuSans-30"/>
      </g>
     </g>
    </g>
    <g id="xtick_5">
     <g id="line2d_5">
      <g>
       <use style="stroke:#000000;stroke-width:0.8;" x="290.573554" xlink:href="#m1653eb45fc" y="252"/>
      </g>
     </g>
     <g id="text_5">
      <!-- 40 -->
      <g transform="translate(284.211054 266.598437)scale(0.1 -0.1)">
       <defs>
        <path d="M 2419 4116 
L 825 1625 
L 2419 1625 
L 2419 4116 
z
M 2253 4666 
L 3047 4666 
L 3047 1625 
L 3713 1625 
L 3713 1100 
L 3047 1100 
L 3047 0 
L 2419 0 
L 2419 1100 
L 313 1100 
L 313 1709 
L 2253 4666 
z
" id="DejaVuSans-34" transform="scale(0.015625)"/>
       </defs>
       <use xlink:href="#DejaVuSans-34"/>
       <use x="63.623047" xlink:href="#DejaVuSans-30"/>
      </g>
     </g>
    </g>
    <g id="xtick_6">
     <g id="line2d_6">
      <g>
       <use style="stroke:#000000;stroke-width:0.8;" x="345.912397" xlink:href="#m1653eb45fc" y="252"/>
      </g>
     </g>
     <g id="text_6">
      <!-- 50 -->
      <g transform="translate(339.549897 266.598437)scale(0.1 -0.1)">
       <defs>
        <path d="M 691 4666 
L 3169 4666 
L 3169 4134 
L 1269 4134 
L 1269 2991 
Q 1406 3038 1543 3061 
Q 1681 3084 1819 3084 
Q 2600 3084 3056 2656 
Q 3513 2228 3513 1497 
Q 3513 744 3044 326 
Q 2575 -91 1722 -91 
Q 1428 -91 1123 -41 
Q 819 9 494 109 
L 494 744 
Q 775 591 1075 516 
Q 1375 441 1709 441 
Q 2250 441 2565 725 
Q 2881 1009 2881 1497 
Q 2881 1984 2565 2268 
Q 2250 2553 1709 2553 
Q 1456 2553 1204 2497 
Q 953 2441 691 2322 
L 691 4666 
z
" id="DejaVuSans-35" transform="scale(0.015625)"/>
       </defs>
       <use xlink:href="#DejaVuSans-35"/>
       <use x="63.623047" xlink:href="#DejaVuSans-30"/>
      </g>
     </g>
    </g>
   </g>
   <g id="matplotlib.axis_2">
    <g id="ytick_1">
     <g id="line2d_7">
      <defs>
       <path d="M 0 0 
L -3.5 0 
" id="m0fa1cc8121" style="stroke:#000000;stroke-width:0.8;"/>
      </defs>
      <g>
       <use style="stroke:#000000;stroke-width:0.8;" x="54" xlink:href="#m0fa1cc8121" y="250.105955"/>
      </g>
     </g>
     <g id="text_7">
      <!-- 0.0 -->
      <g transform="translate(31.096875 253.905174)scale(0.1 -0.1)">
       <defs>
        <path d="M 684 794 
L 1344 794 
L 1344 0 
L 684 0 
L 684 794 
z
" id="DejaVuSans-2e" transform="scale(0.015625)"/>
       </defs>
       <use xlink:href="#DejaVuSans-30"/>
       <use x="63.623047" xlink:href="#DejaVuSans-2e"/>
       <use x="95.410156" xlink:href="#DejaVuSans-30"/>
      </g>
     </g>
    </g>
    <g id="ytick_2">
     <g id="line2d_8">
      <g>
       <use style="stroke:#000000;stroke-width:0.8;" x="54" xlink:href="#m0fa1cc8121" y="208.973491"/>
      </g>
     </g>
     <g id="text_8">
      <!-- 0.2 -->
      <g transform="translate(31.096875 212.77271)scale(0.1 -0.1)">
       <use xlink:href="#DejaVuSans-30"/>
       <use x="63.623047" xlink:href="#DejaVuSans-2e"/>
       <use x="95.410156" xlink:href="#DejaVuSans-32"/>
      </g>
     </g>
    </g>
    <g id="ytick_3">
     <g id="line2d_9">
      <g>
       <use style="stroke:#000000;stroke-width:0.8;" x="54" xlink:href="#m0fa1cc8121" y="167.841028"/>
      </g>
     </g>
     <g id="text_9">
      <!-- 0.4 -->
      <g transform="translate(31.096875 171.640246)scale(0.1 -0.1)">
       <use xlink:href="#DejaVuSans-30"/>
       <use x="63.623047" xlink:href="#DejaVuSans-2e"/>
       <use x="95.410156" xlink:href="#DejaVuSans-34"/>
      </g>
     </g>
    </g>
    <g id="ytick_4">
     <g id="line2d_10">
      <g>
       <use style="stroke:#000000;stroke-width:0.8;" x="54" xlink:href="#m0fa1cc8121" y="126.708564"/>
      </g>
     </g>
     <g id="text_10">
      <!-- 0.6 -->
      <g transform="translate(31.096875 130.507783)scale(0.1 -0.1)">
       <defs>
        <path d="M 2113 2584 
Q 1688 2584 1439 2293 
Q 1191 2003 1191 1497 
Q 1191 994 1439 701 
Q 1688 409 2113 409 
Q 2538 409 2786 701 
Q 3034 994 3034 1497 
Q 3034 2003 2786 2293 
Q 2538 2584 2113 2584 
z
M 3366 4563 
L 3366 3988 
Q 3128 4100 2886 4159 
Q 2644 4219 2406 4219 
Q 1781 4219 1451 3797 
Q 1122 3375 1075 2522 
Q 1259 2794 1537 2939 
Q 1816 3084 2150 3084 
Q 2853 3084 3261 2657 
Q 3669 2231 3669 1497 
Q 3669 778 3244 343 
Q 2819 -91 2113 -91 
Q 1303 -91 875 529 
Q 447 1150 447 2328 
Q 447 3434 972 4092 
Q 1497 4750 2381 4750 
Q 2619 4750 2861 4703 
Q 3103 4656 3366 4563 
z
" id="DejaVuSans-36" transform="scale(0.015625)"/>
       </defs>
       <use xlink:href="#DejaVuSans-30"/>
       <use x="63.623047" xlink:href="#DejaVuSans-2e"/>
       <use x="95.410156" xlink:href="#DejaVuSans-36"/>
      </g>
     </g>
    </g>
    <g id="ytick_5">
     <g id="line2d_11">
      <g>
       <use style="stroke:#000000;stroke-width:0.8;" x="54" xlink:href="#m0fa1cc8121" y="85.5761"/>
      </g>
     </g>
     <g id="text_11">
      <!-- 0.8 -->
      <g transform="translate(31.096875 89.375319)scale(0.1 -0.1)">
       <defs>
        <path d="M 2034 2216 
Q 1584 2216 1326 1975 
Q 1069 1734 1069 1313 
Q 1069 891 1326 650 
Q 1584 409 2034 409 
Q 2484 409 2743 651 
Q 3003 894 3003 1313 
Q 3003 1734 2745 1975 
Q 2488 2216 2034 2216 
z
M 1403 2484 
Q 997 2584 770 2862 
Q 544 3141 544 3541 
Q 544 4100 942 4425 
Q 1341 4750 2034 4750 
Q 2731 4750 3128 4425 
Q 3525 4100 3525 3541 
Q 3525 3141 3298 2862 
Q 3072 2584 2669 2484 
Q 3125 2378 3379 2068 
Q 3634 1759 3634 1313 
Q 3634 634 3220 271 
Q 2806 -91 2034 -91 
Q 1263 -91 848 271 
Q 434 634 434 1313 
Q 434 1759 690 2068 
Q 947 2378 1403 2484 
z
M 1172 3481 
Q 1172 3119 1398 2916 
Q 1625 2713 2034 2713 
Q 2441 2713 2670 2916 
Q 2900 3119 2900 3481 
Q 2900 3844 2670 4047 
Q 2441 4250 2034 4250 
Q 1625 4250 1398 4047 
Q 1172 3844 1172 3481 
z
" id="DejaVuSans-38" transform="scale(0.015625)"/>
       </defs>
       <use xlink:href="#DejaVuSans-30"/>
       <use x="63.623047" xlink:href="#DejaVuSans-2e"/>
       <use x="95.410156" xlink:href="#DejaVuSans-38"/>
      </g>
     </g>
    </g>
    <g id="ytick_6">
     <g id="line2d_12">
      <g>
       <use style="stroke:#000000;stroke-width:0.8;" x="54" xlink:href="#m0fa1cc8121" y="44.443636"/>
      </g>
     </g>
     <g id="text_12">
      <!-- 1.0 -->
      <g transform="translate(31.096875 48.242855)scale(0.1 -0.1)">
       <use xlink:href="#DejaVuSans-31"/>
       <use x="63.623047" xlink:href="#DejaVuSans-2e"/>
       <use x="95.410156" xlink:href="#DejaVuSans-30"/>
      </g>
     </g>
    </g>
   </g>
   <g id="patch_3">
    <path d="M 54 252 
L 54 34.56 
" style="fill:none;stroke:#000000;stroke-linecap:square;stroke-linejoin:miter;stroke-width:0.8;"/>
   </g>
   <g id="patch_4">
    <path d="M 388.8 252 
L 388.8 34.56 
" style="fill:none;stroke:#000000;stroke-linecap:square;stroke-linejoin:miter;stroke-width:0.8;"/>
   </g>
   <g id="patch_5">
    <path d="M 54 252 
L 388.8 252 
" style="fill:none;stroke:#000000;stroke-linecap:square;stroke-linejoin:miter;stroke-width:0.8;"/>
   </g>
   <g id="patch_6">
    <path d="M 54 34.56 
L 388.8 34.56 
" style="fill:none;stroke:#000000;stroke-linecap:square;stroke-linejoin:miter;stroke-width:0.8;"/>
   </g>
   <g id="legend_1">
    <g id="patch_7">
     <path d="M 61 71.91625 
L 135.503125 71.91625 
Q 137.503125 71.91625 137.503125 69.91625 
L 137.503125 41.56 
Q 137.503125 39.56 135.503125 39.56 
L 61 39.56 
Q 59 39.56 59 41.56 
L 59 69.91625 
Q 59 71.91625 61 71.91625 
z
" style="fill:#ffffff;opacity:0.8;stroke:#cccccc;stroke-linejoin:miter;"/>
    </g>
    <g id="PathCollection_3">
     <g>
      <use style="fill:#1f77b4;stroke:#1f77b4;" x="73" xlink:href="#m6decfea3d8" y="48.533437"/>
     </g>
    </g>
    <g id="text_13">
     <!-- Actual -->
     <g transform="translate(91 51.158437)scale(0.1 -0.1)">
      <defs>
       <path d="M 2188 4044 
L 1331 1722 
L 3047 1722 
L 2188 4044 
z
M 1831 4666 
L 2547 4666 
L 4325 0 
L 3669 0 
L 3244 1197 
L 1141 1197 
L 716 0 
L 50 0 
L 1831 4666 
z
" id="DejaVuSans-41" transform="scale(0.015625)"/>
       <path d="M 3122 3366 
L 3122 2828 
Q 2878 2963 2633 3030 
Q 2388 3097 2138 3097 
Q 1578 3097 1268 2742 
Q 959 2388 959 1747 
Q 959 1106 1268 751 
Q 1578 397 2138 397 
Q 2388 397 2633 464 
Q 2878 531 3122 666 
L 3122 134 
Q 2881 22 2623 -34 
Q 2366 -91 2075 -91 
Q 1284 -91 818 406 
Q 353 903 353 1747 
Q 353 2603 823 3093 
Q 1294 3584 2113 3584 
Q 2378 3584 2631 3529 
Q 2884 3475 3122 3366 
z
" id="DejaVuSans-63" transform="scale(0.015625)"/>
       <path d="M 1172 4494 
L 1172 3500 
L 2356 3500 
L 2356 3053 
L 1172 3053 
L 1172 1153 
Q 1172 725 1289 603 
Q 1406 481 1766 481 
L 2356 481 
L 2356 0 
L 1766 0 
Q 1100 0 847 248 
Q 594 497 594 1153 
L 594 3053 
L 172 3053 
L 172 3500 
L 594 3500 
L 594 4494 
L 1172 4494 
z
" id="DejaVuSans-74" transform="scale(0.015625)"/>
       <path d="M 544 1381 
L 544 3500 
L 1119 3500 
L 1119 1403 
Q 1119 906 1312 657 
Q 1506 409 1894 409 
Q 2359 409 2629 706 
Q 2900 1003 2900 1516 
L 2900 3500 
L 3475 3500 
L 3475 0 
L 2900 0 
L 2900 538 
Q 2691 219 2414 64 
Q 2138 -91 1772 -91 
Q 1169 -91 856 284 
Q 544 659 544 1381 
z
M 1991 3584 
L 1991 3584 
z
" id="DejaVuSans-75" transform="scale(0.015625)"/>
       <path d="M 2194 1759 
Q 1497 1759 1228 1600 
Q 959 1441 959 1056 
Q 959 750 1161 570 
Q 1363 391 1709 391 
Q 2188 391 2477 730 
Q 2766 1069 2766 1631 
L 2766 1759 
L 2194 1759 
z
M 3341 1997 
L 3341 0 
L 2766 0 
L 2766 531 
Q 2569 213 2275 61 
Q 1981 -91 1556 -91 
Q 1019 -91 701 211 
Q 384 513 384 1019 
Q 384 1609 779 1909 
Q 1175 2209 1959 2209 
L 2766 2209 
L 2766 2266 
Q 2766 2663 2505 2880 
Q 2244 3097 1772 3097 
Q 1472 3097 1187 3025 
Q 903 2953 641 2809 
L 641 3341 
Q 956 3463 1253 3523 
Q 1550 3584 1831 3584 
Q 2591 3584 2966 3190 
Q 3341 2797 3341 1997 
z
" id="DejaVuSans-61" transform="scale(0.015625)"/>
       <path d="M 603 4863 
L 1178 4863 
L 1178 0 
L 603 0 
L 603 4863 
z
" id="DejaVuSans-6c" transform="scale(0.015625)"/>
      </defs>
      <use xlink:href="#DejaVuSans-41"/>
      <use x="66.658203" xlink:href="#DejaVuSans-63"/>
      <use x="121.638672" xlink:href="#DejaVuSans-74"/>
      <use x="160.847656" xlink:href="#DejaVuSans-75"/>
      <use x="224.226562" xlink:href="#DejaVuSans-61"/>
      <use x="285.505859" xlink:href="#DejaVuSans-6c"/>
     </g>
    </g>
    <g id="PathCollection_4">
     <g>
      <use style="fill:#ff7f0e;stroke:#ff7f0e;" x="73" xlink:href="#mfa3026794f" y="63.211562"/>
     </g>
    </g>
    <g id="text_14">
     <!-- SI Model -->
     <g transform="translate(91 65.836562)scale(0.1 -0.1)">
      <defs>
       <path d="M 3425 4513 
L 3425 3897 
Q 3066 4069 2747 4153 
Q 2428 4238 2131 4238 
Q 1616 4238 1336 4038 
Q 1056 3838 1056 3469 
Q 1056 3159 1242 3001 
Q 1428 2844 1947 2747 
L 2328 2669 
Q 3034 2534 3370 2195 
Q 3706 1856 3706 1288 
Q 3706 609 3251 259 
Q 2797 -91 1919 -91 
Q 1588 -91 1214 -16 
Q 841 59 441 206 
L 441 856 
Q 825 641 1194 531 
Q 1563 422 1919 422 
Q 2459 422 2753 634 
Q 3047 847 3047 1241 
Q 3047 1584 2836 1778 
Q 2625 1972 2144 2069 
L 1759 2144 
Q 1053 2284 737 2584 
Q 422 2884 422 3419 
Q 422 4038 858 4394 
Q 1294 4750 2059 4750 
Q 2388 4750 2728 4690 
Q 3069 4631 3425 4513 
z
" id="DejaVuSans-53" transform="scale(0.015625)"/>
       <path d="M 628 4666 
L 1259 4666 
L 1259 0 
L 628 0 
L 628 4666 
z
" id="DejaVuSans-49" transform="scale(0.015625)"/>
       <path id="DejaVuSans-20" transform="scale(0.015625)"/>
       <path d="M 628 4666 
L 1569 4666 
L 2759 1491 
L 3956 4666 
L 4897 4666 
L 4897 0 
L 4281 0 
L 4281 4097 
L 3078 897 
L 2444 897 
L 1241 4097 
L 1241 0 
L 628 0 
L 628 4666 
z
" id="DejaVuSans-4d" transform="scale(0.015625)"/>
       <path d="M 1959 3097 
Q 1497 3097 1228 2736 
Q 959 2375 959 1747 
Q 959 1119 1226 758 
Q 1494 397 1959 397 
Q 2419 397 2687 759 
Q 2956 1122 2956 1747 
Q 2956 2369 2687 2733 
Q 2419 3097 1959 3097 
z
M 1959 3584 
Q 2709 3584 3137 3096 
Q 3566 2609 3566 1747 
Q 3566 888 3137 398 
Q 2709 -91 1959 -91 
Q 1206 -91 779 398 
Q 353 888 353 1747 
Q 353 2609 779 3096 
Q 1206 3584 1959 3584 
z
" id="DejaVuSans-6f" transform="scale(0.015625)"/>
       <path d="M 2906 2969 
L 2906 4863 
L 3481 4863 
L 3481 0 
L 2906 0 
L 2906 525 
Q 2725 213 2448 61 
Q 2172 -91 1784 -91 
Q 1150 -91 751 415 
Q 353 922 353 1747 
Q 353 2572 751 3078 
Q 1150 3584 1784 3584 
Q 2172 3584 2448 3432 
Q 2725 3281 2906 2969 
z
M 947 1747 
Q 947 1113 1208 752 
Q 1469 391 1925 391 
Q 2381 391 2643 752 
Q 2906 1113 2906 1747 
Q 2906 2381 2643 2742 
Q 2381 3103 1925 3103 
Q 1469 3103 1208 2742 
Q 947 2381 947 1747 
z
" id="DejaVuSans-64" transform="scale(0.015625)"/>
       <path d="M 3597 1894 
L 3597 1613 
L 953 1613 
Q 991 1019 1311 708 
Q 1631 397 2203 397 
Q 2534 397 2845 478 
Q 3156 559 3463 722 
L 3463 178 
Q 3153 47 2828 -22 
Q 2503 -91 2169 -91 
Q 1331 -91 842 396 
Q 353 884 353 1716 
Q 353 2575 817 3079 
Q 1281 3584 2069 3584 
Q 2775 3584 3186 3129 
Q 3597 2675 3597 1894 
z
M 3022 2063 
Q 3016 2534 2758 2815 
Q 2500 3097 2075 3097 
Q 1594 3097 1305 2825 
Q 1016 2553 972 2059 
L 3022 2063 
z
" id="DejaVuSans-65" transform="scale(0.015625)"/>
      </defs>
      <use xlink:href="#DejaVuSans-53"/>
      <use x="63.476562" xlink:href="#DejaVuSans-49"/>
      <use x="92.96875" xlink:href="#DejaVuSans-20"/>
      <use x="124.755859" xlink:href="#DejaVuSans-4d"/>
      <use x="211.035156" xlink:href="#DejaVuSans-6f"/>
      <use x="272.216797" xlink:href="#DejaVuSans-64"/>
      <use x="335.693359" xlink:href="#DejaVuSans-65"/>
      <use x="397.216797" xlink:href="#DejaVuSans-6c"/>
     </g>
    </g>
   </g>
  </g>
 </g>
 <defs>
  <clipPath id="p2bb782e63a">
   <rect height="217.44" width="334.8" x="54" y="34.56"/>
  </clipPath>
 </defs>
</svg>
