<?xml version="1.0" encoding="utf-8" standalone="no"?>
<!DOCTYPE svg PUBLIC "-//W3C//DTD SVG 1.1//EN"
  "http://www.w3.org/Graphics/SVG/1.1/DTD/svg11.dtd">
<svg height="288pt" version="1.1" viewBox="0 0 432 288" width="432pt" xmlns="http://www.w3.org/2000/svg" xmlns:xlink="http://www.w3.org/1999/xlink">
 <metadata>
  <rdf:RDF xmlns:cc="http://creativecommons.org/ns#" xmlns:dc="http://purl.org/dc/elements/1.1/" xmlns:rdf="http://www.w3.org/1999/02/22-rdf-syntax-ns#">
   <cc:Work>
    <dc:type rdf:resource="http://purl.org/dc/dcmitype/StillImage"/>
    <dc:date>2021-08-29T20:46:37.669992</dc:date>
    <dc:format>image/svg+xml</dc:format>
    <dc:creator>
     <cc:Agent>
      <dc:title>Matplotlib v3.4.2, https://matplotlib.org/</dc:title>
     </cc:Agent>
    </dc:creator>
   </cc:Work>
  </rdf:RDF>
 </metadata>
 <defs>
  <style type="text/css">*{stroke-linecap:butt;stroke-linejoin:round;}</style>
 </defs>
 <g id="figure_1">
  <g id="patch_1">
   <path d="M 0 288 
L 432 288 
L 432 0 
L 0 0 
z
" style="fill:none;"/>
  </g>
  <g id="axes_1">
   <g id="patch_2">
    <path d="M 54 252 
L 388.8 252 
L 388.8 34.56 
L 54 34.56 
z
" style="fill:#ffffff;"/>
   </g>
   <g id="PathCollection_1">
    <defs>
     <path d="M 0 3 
C 0.795609 3 1.55874 2.683901 2.12132 2.12132 
C 2.683901 1.55874 3 0.795609 3 0 
C 3 -0.795609 2.683901 -1.55874 2.12132 -2.12132 
C 1.55874 -2.683901 0.795609 -3 0 -3 
C -0.795609 -3 -1.55874 -2.683901 -2.12132 -2.12132 
C -2.683901 -1.55874 -3 -0.795609 -3 0 
C -3 0.795609 -2.683901 1.55874 -2.12132 2.12132 
C -1.55874 2.683901 -0.795609 3 0 3 
z
" id="me971804bc0" style="stroke:#1f77b4;"/>
    </defs>
    <g clip-path="url(#pd48e64be6c)">
     <use style="fill:#1f77b4;stroke:#1f77b4;" x="69.218182" xlink:href="#me971804bc0" y="242.116364"/>
     <use style="fill:#1f77b4;stroke:#1f77b4;" x="72.841558" xlink:href="#me971804bc0" y="239.074785"/>
     <use style="fill:#1f77b4;stroke:#1f77b4;" x="76.464935" xlink:href="#me971804bc0" y="235.449942"/>
     <use style="fill:#1f77b4;stroke:#1f77b4;" x="80.088312" xlink:href="#me971804bc0" y="229.939165"/>
     <use style="fill:#1f77b4;stroke:#1f77b4;" x="83.711688" xlink:href="#me971804bc0" y="224.463232"/>
     <use style="fill:#1f77b4;stroke:#1f77b4;" x="87.335065" xlink:href="#me971804bc0" y="221.039363"/>
     <use style="fill:#1f77b4;stroke:#1f77b4;" x="90.958442" xlink:href="#me971804bc0" y="217.83725"/>
     <use style="fill:#1f77b4;stroke:#1f77b4;" x="94.581818" xlink:href="#me971804bc0" y="214.801248"/>
     <use style="fill:#1f77b4;stroke:#1f77b4;" x="98.205195" xlink:href="#me971804bc0" y="211.624138"/>
     <use style="fill:#1f77b4;stroke:#1f77b4;" x="101.828571" xlink:href="#me971804bc0" y="207.895108"/>
     <use style="fill:#1f77b4;stroke:#1f77b4;" x="105.451948" xlink:href="#me971804bc0" y="201.611338"/>
     <use style="fill:#1f77b4;stroke:#1f77b4;" x="109.075325" xlink:href="#me971804bc0" y="195.705482"/>
     <use style="fill:#1f77b4;stroke:#1f77b4;" x="112.698701" xlink:href="#me971804bc0" y="192.467518"/>
     <use style="fill:#1f77b4;stroke:#1f77b4;" x="116.322078" xlink:href="#me971804bc0" y="189.199957"/>
     <use style="fill:#1f77b4;stroke:#1f77b4;" x="119.945455" xlink:href="#me971804bc0" y="185.948408"/>
     <use style="fill:#1f77b4;stroke:#1f77b4;" x="123.568831" xlink:href="#me971804bc0" y="182.825227"/>
     <use style="fill:#1f77b4;stroke:#1f77b4;" x="127.192208" xlink:href="#me971804bc0" y="179.007575"/>
     <use style="fill:#1f77b4;stroke:#1f77b4;" x="130.815584" xlink:href="#me971804bc0" y="172.120407"/>
     <use style="fill:#1f77b4;stroke:#1f77b4;" x="134.438961" xlink:href="#me971804bc0" y="165.564283"/>
     <use style="fill:#1f77b4;stroke:#1f77b4;" x="138.062338" xlink:href="#me971804bc0" y="162.198796"/>
     <use style="fill:#1f77b4;stroke:#1f77b4;" x="141.685714" xlink:href="#me971804bc0" y="158.892286"/>
     <use style="fill:#1f77b4;stroke:#1f77b4;" x="145.309091" xlink:href="#me971804bc0" y="155.750038"/>
     <use style="fill:#1f77b4;stroke:#1f77b4;" x="148.932468" xlink:href="#me971804bc0" y="152.91935"/>
     <use style="fill:#1f77b4;stroke:#1f77b4;" x="152.555844" xlink:href="#me971804bc0" y="149.644885"/>
     <use style="fill:#1f77b4;stroke:#1f77b4;" x="156.179221" xlink:href="#me971804bc0" y="144.074087"/>
     <use style="fill:#1f77b4;stroke:#1f77b4;" x="159.802597" xlink:href="#me971804bc0" y="138.783807"/>
     <use style="fill:#1f77b4;stroke:#1f77b4;" x="163.425974" xlink:href="#me971804bc0" y="136.239521"/>
     <use style="fill:#1f77b4;stroke:#1f77b4;" x="167.049351" xlink:href="#me971804bc0" y="133.763148"/>
     <use style="fill:#1f77b4;stroke:#1f77b4;" x="170.672727" xlink:href="#me971804bc0" y="131.499642"/>
     <use style="fill:#1f77b4;stroke:#1f77b4;" x="174.296104" xlink:href="#me971804bc0" y="129.216439"/>
     <use style="fill:#1f77b4;stroke:#1f77b4;" x="177.919481" xlink:href="#me971804bc0" y="125.807871"/>
     <use style="fill:#1f77b4;stroke:#1f77b4;" x="181.542857" xlink:href="#me971804bc0" y="121.246643"/>
     <use style="fill:#1f77b4;stroke:#1f77b4;" x="185.166234" xlink:href="#me971804bc0" y="115.9992"/>
     <use style="fill:#1f77b4;stroke:#1f77b4;" x="188.78961" xlink:href="#me971804bc0" y="109.916695"/>
     <use style="fill:#1f77b4;stroke:#1f77b4;" x="192.412987" xlink:href="#me971804bc0" y="105.523146"/>
     <use style="fill:#1f77b4;stroke:#1f77b4;" x="196.036364" xlink:href="#me971804bc0" y="102.777723"/>
     <use style="fill:#1f77b4;stroke:#1f77b4;" x="199.65974" xlink:href="#me971804bc0" y="100.457667"/>
     <use style="fill:#1f77b4;stroke:#1f77b4;" x="203.283117" xlink:href="#me971804bc0" y="98.272712"/>
     <use style="fill:#1f77b4;stroke:#1f77b4;" x="206.906494" xlink:href="#me971804bc0" y="93.849208"/>
     <use style="fill:#1f77b4;stroke:#1f77b4;" x="210.52987" xlink:href="#me971804bc0" y="89.723367"/>
     <use style="fill:#1f77b4;stroke:#1f77b4;" x="214.153247" xlink:href="#me971804bc0" y="88.156463"/>
     <use style="fill:#1f77b4;stroke:#1f77b4;" x="217.776623" xlink:href="#me971804bc0" y="86.73144"/>
     <use style="fill:#1f77b4;stroke:#1f77b4;" x="221.4" xlink:href="#me971804bc0" y="85.460122"/>
     <use style="fill:#1f77b4;stroke:#1f77b4;" x="225.023377" xlink:href="#me971804bc0" y="84.429229"/>
     <use style="fill:#1f77b4;stroke:#1f77b4;" x="228.646753" xlink:href="#me971804bc0" y="82.879945"/>
     <use style="fill:#1f77b4;stroke:#1f77b4;" x="232.27013" xlink:href="#me971804bc0" y="79.816698"/>
     <use style="fill:#1f77b4;stroke:#1f77b4;" x="235.893506" xlink:href="#me971804bc0" y="76.778431"/>
     <use style="fill:#1f77b4;stroke:#1f77b4;" x="239.516883" xlink:href="#me971804bc0" y="75.318775"/>
     <use style="fill:#1f77b4;stroke:#1f77b4;" x="243.14026" xlink:href="#me971804bc0" y="73.704974"/>
     <use style="fill:#1f77b4;stroke:#1f77b4;" x="246.763636" xlink:href="#me971804bc0" y="72.387233"/>
     <use style="fill:#1f77b4;stroke:#1f77b4;" x="250.387013" xlink:href="#me971804bc0" y="71.227662"/>
     <use style="fill:#1f77b4;stroke:#1f77b4;" x="254.01039" xlink:href="#me971804bc0" y="69.987878"/>
     <use style="fill:#1f77b4;stroke:#1f77b4;" x="257.633766" xlink:href="#me971804bc0" y="67.382056"/>
     <use style="fill:#1f77b4;stroke:#1f77b4;" x="261.257143" xlink:href="#me971804bc0" y="64.906276"/>
     <use style="fill:#1f77b4;stroke:#1f77b4;" x="264.880519" xlink:href="#me971804bc0" y="63.923895"/>
     <use style="fill:#1f77b4;stroke:#1f77b4;" x="268.503896" xlink:href="#me971804bc0" y="62.973772"/>
     <use style="fill:#1f77b4;stroke:#1f77b4;" x="272.127273" xlink:href="#me971804bc0" y="62.079892"/>
     <use style="fill:#1f77b4;stroke:#1f77b4;" x="275.750649" xlink:href="#me971804bc0" y="61.385225"/>
     <use style="fill:#1f77b4;stroke:#1f77b4;" x="279.374026" xlink:href="#me971804bc0" y="60.635979"/>
     <use style="fill:#1f77b4;stroke:#1f77b4;" x="282.997403" xlink:href="#me971804bc0" y="59.111936"/>
     <use style="fill:#1f77b4;stroke:#1f77b4;" x="286.620779" xlink:href="#me971804bc0" y="57.652695"/>
     <use style="fill:#1f77b4;stroke:#1f77b4;" x="290.244156" xlink:href="#me971804bc0" y="57.075438"/>
     <use style="fill:#1f77b4;stroke:#1f77b4;" x="293.867532" xlink:href="#me971804bc0" y="56.405906"/>
     <use style="fill:#1f77b4;stroke:#1f77b4;" x="297.490909" xlink:href="#me971804bc0" y="55.133556"/>
     <use style="fill:#1f77b4;stroke:#1f77b4;" x="301.114286" xlink:href="#me971804bc0" y="54.817905"/>
     <use style="fill:#1f77b4;stroke:#1f77b4;" x="304.737662" xlink:href="#me971804bc0" y="54.36631"/>
     <use style="fill:#1f77b4;stroke:#1f77b4;" x="308.361039" xlink:href="#me971804bc0" y="53.237787"/>
     <use style="fill:#1f77b4;stroke:#1f77b4;" x="311.984416" xlink:href="#me971804bc0" y="51.777964"/>
     <use style="fill:#1f77b4;stroke:#1f77b4;" x="315.607792" xlink:href="#me971804bc0" y="51.213803"/>
     <use style="fill:#1f77b4;stroke:#1f77b4;" x="319.231169" xlink:href="#me971804bc0" y="50.700019"/>
     <use style="fill:#1f77b4;stroke:#1f77b4;" x="322.854545" xlink:href="#me971804bc0" y="50.262909"/>
     <use style="fill:#1f77b4;stroke:#1f77b4;" x="326.477922" xlink:href="#me971804bc0" y="49.884689"/>
     <use style="fill:#1f77b4;stroke:#1f77b4;" x="330.101299" xlink:href="#me971804bc0" y="49.436418"/>
     <use style="fill:#1f77b4;stroke:#1f77b4;" x="333.724675" xlink:href="#me971804bc0" y="48.242167"/>
     <use style="fill:#1f77b4;stroke:#1f77b4;" x="337.348052" xlink:href="#me971804bc0" y="47.121515"/>
     <use style="fill:#1f77b4;stroke:#1f77b4;" x="340.971429" xlink:href="#me971804bc0" y="46.823638"/>
     <use style="fill:#1f77b4;stroke:#1f77b4;" x="344.594805" xlink:href="#me971804bc0" y="46.491211"/>
     <use style="fill:#1f77b4;stroke:#1f77b4;" x="348.218182" xlink:href="#me971804bc0" y="46.209718"/>
     <use style="fill:#1f77b4;stroke:#1f77b4;" x="351.841558" xlink:href="#me971804bc0" y="46.004544"/>
     <use style="fill:#1f77b4;stroke:#1f77b4;" x="355.464935" xlink:href="#me971804bc0" y="45.788518"/>
     <use style="fill:#1f77b4;stroke:#1f77b4;" x="359.088312" xlink:href="#me971804bc0" y="45.274271"/>
     <use style="fill:#1f77b4;stroke:#1f77b4;" x="362.711688" xlink:href="#me971804bc0" y="44.891657"/>
     <use style="fill:#1f77b4;stroke:#1f77b4;" x="366.335065" xlink:href="#me971804bc0" y="44.736598"/>
     <use style="fill:#1f77b4;stroke:#1f77b4;" x="369.958442" xlink:href="#me971804bc0" y="44.588912"/>
     <use style="fill:#1f77b4;stroke:#1f77b4;" x="373.581818" xlink:href="#me971804bc0" y="44.443636"/>
    </g>
   </g>
   <g id="PathCollection_2">
    <defs>
     <path d="M 0 3 
C 0.795609 3 1.55874 2.683901 2.12132 2.12132 
C 2.683901 1.55874 3 0.795609 3 0 
C 3 -0.795609 2.683901 -1.55874 2.12132 -2.12132 
C 1.55874 -2.683901 0.795609 -3 0 -3 
C -0.795609 -3 -1.55874 -2.683901 -2.12132 -2.12132 
C -2.683901 -1.55874 -3 -0.795609 -3 0 
C -3 0.795609 -2.683901 1.55874 -2.12132 2.12132 
C -1.55874 2.683901 -0.795609 3 0 3 
z
" id="m29d73fa1d3" style="stroke:#ff7f0e;"/>
    </defs>
    <g clip-path="url(#pd48e64be6c)">
     <use style="fill:#ff7f0e;stroke:#ff7f0e;" x="69.218182" xlink:href="#m29d73fa1d3" y="242.116364"/>
     <use style="fill:#ff7f0e;stroke:#ff7f0e;" x="72.841558" xlink:href="#m29d73fa1d3" y="241.816125"/>
     <use style="fill:#ff7f0e;stroke:#ff7f0e;" x="76.464935" xlink:href="#m29d73fa1d3" y="241.45724"/>
     <use style="fill:#ff7f0e;stroke:#ff7f0e;" x="80.088312" xlink:href="#m29d73fa1d3" y="241.028537"/>
     <use style="fill:#ff7f0e;stroke:#ff7f0e;" x="83.711688" xlink:href="#m29d73fa1d3" y="240.516835"/>
     <use style="fill:#ff7f0e;stroke:#ff7f0e;" x="87.335065" xlink:href="#m29d73fa1d3" y="239.906638"/>
     <use style="fill:#ff7f0e;stroke:#ff7f0e;" x="90.958442" xlink:href="#m29d73fa1d3" y="239.179802"/>
     <use style="fill:#ff7f0e;stroke:#ff7f0e;" x="94.581818" xlink:href="#m29d73fa1d3" y="238.315183"/>
     <use style="fill:#ff7f0e;stroke:#ff7f0e;" x="98.205195" xlink:href="#m29d73fa1d3" y="237.288296"/>
     <use style="fill:#ff7f0e;stroke:#ff7f0e;" x="101.828571" xlink:href="#m29d73fa1d3" y="236.070973"/>
     <use style="fill:#ff7f0e;stroke:#ff7f0e;" x="105.451948" xlink:href="#m29d73fa1d3" y="234.631121"/>
     <use style="fill:#ff7f0e;stroke:#ff7f0e;" x="109.075325" xlink:href="#m29d73fa1d3" y="232.932547"/>
     <use style="fill:#ff7f0e;stroke:#ff7f0e;" x="112.698701" xlink:href="#m29d73fa1d3" y="230.934986"/>
     <use style="fill:#ff7f0e;stroke:#ff7f0e;" x="116.322078" xlink:href="#m29d73fa1d3" y="228.594399"/>
     <use style="fill:#ff7f0e;stroke:#ff7f0e;" x="119.945455" xlink:href="#m29d73fa1d3" y="225.863596"/>
     <use style="fill:#ff7f0e;stroke:#ff7f0e;" x="123.568831" xlink:href="#m29d73fa1d3" y="222.693418"/>
     <use style="fill:#ff7f0e;stroke:#ff7f0e;" x="127.192208" xlink:href="#m29d73fa1d3" y="219.034449"/>
     <use style="fill:#ff7f0e;stroke:#ff7f0e;" x="130.815584" xlink:href="#m29d73fa1d3" y="214.839494"/>
     <use style="fill:#ff7f0e;stroke:#ff7f0e;" x="134.438961" xlink:href="#m29d73fa1d3" y="210.066789"/>
     <use style="fill:#ff7f0e;stroke:#ff7f0e;" x="138.062338" xlink:href="#m29d73fa1d3" y="204.683896"/>
     <use style="fill:#ff7f0e;stroke:#ff7f0e;" x="141.685714" xlink:href="#m29d73fa1d3" y="198.672191"/>
     <use style="fill:#ff7f0e;stroke:#ff7f0e;" x="145.309091" xlink:href="#m29d73fa1d3" y="192.031471"/>
     <use style="fill:#ff7f0e;stroke:#ff7f0e;" x="148.932468" xlink:href="#m29d73fa1d3" y="184.784242"/>
     <use style="fill:#ff7f0e;stroke:#ff7f0e;" x="152.555844" xlink:href="#m29d73fa1d3" y="176.978907"/>
     <use style="fill:#ff7f0e;stroke:#ff7f0e;" x="156.179221" xlink:href="#m29d73fa1d3" y="168.69121"/>
     <use style="fill:#ff7f0e;stroke:#ff7f0e;" x="159.802597" xlink:href="#m29d73fa1d3" y="160.023167"/>
     <use style="fill:#ff7f0e;stroke:#ff7f0e;" x="163.425974" xlink:href="#m29d73fa1d3" y="151.099252"/>
     <use style="fill:#ff7f0e;stroke:#ff7f0e;" x="167.049351" xlink:href="#m29d73fa1d3" y="142.059934"/>
     <use style="fill:#ff7f0e;stroke:#ff7f0e;" x="170.672727" xlink:href="#m29d73fa1d3" y="133.053129"/>
     <use style="fill:#ff7f0e;stroke:#ff7f0e;" x="174.296104" xlink:href="#m29d73fa1d3" y="124.224655"/>
     <use style="fill:#ff7f0e;stroke:#ff7f0e;" x="177.919481" xlink:href="#m29d73fa1d3" y="115.708934"/>
     <use style="fill:#ff7f0e;stroke:#ff7f0e;" x="181.542857" xlink:href="#m29d73fa1d3" y="107.621252"/>
     <use style="fill:#ff7f0e;stroke:#ff7f0e;" x="185.166234" xlink:href="#m29d73fa1d3" y="100.052436"/>
     <use style="fill:#ff7f0e;stroke:#ff7f0e;" x="188.78961" xlink:href="#m29d73fa1d3" y="93.066243"/>
     <use style="fill:#ff7f0e;stroke:#ff7f0e;" x="192.412987" xlink:href="#m29d73fa1d3" y="86.699431"/>
     <use style="fill:#ff7f0e;stroke:#ff7f0e;" x="196.036364" xlink:href="#m29d73fa1d3" y="80.964111"/>
     <use style="fill:#ff7f0e;stroke:#ff7f0e;" x="199.65974" xlink:href="#m29d73fa1d3" y="75.851437"/>
     <use style="fill:#ff7f0e;stroke:#ff7f0e;" x="203.283117" xlink:href="#m29d73fa1d3" y="71.336192"/>
     <use style="fill:#ff7f0e;stroke:#ff7f0e;" x="206.906494" xlink:href="#m29d73fa1d3" y="67.38132"/>
     <use style="fill:#ff7f0e;stroke:#ff7f0e;" x="210.52987" xlink:href="#m29d73fa1d3" y="63.942238"/>
     <use style="fill:#ff7f0e;stroke:#ff7f0e;" x="214.153247" xlink:href="#m29d73fa1d3" y="60.970448"/>
     <use style="fill:#ff7f0e;stroke:#ff7f0e;" x="217.776623" xlink:href="#m29d73fa1d3" y="58.416355"/>
     <use style="fill:#ff7f0e;stroke:#ff7f0e;" x="221.4" xlink:href="#m29d73fa1d3" y="56.231507"/>
     <use style="fill:#ff7f0e;stroke:#ff7f0e;" x="225.023377" xlink:href="#m29d73fa1d3" y="54.369991"/>
     <use style="fill:#ff7f0e;stroke:#ff7f0e;" x="228.646753" xlink:href="#m29d73fa1d3" y="52.78935"/>
     <use style="fill:#ff7f0e;stroke:#ff7f0e;" x="232.27013" xlink:href="#m29d73fa1d3" y="51.451094"/>
     <use style="fill:#ff7f0e;stroke:#ff7f0e;" x="235.893506" xlink:href="#m29d73fa1d3" y="50.320801"/>
     <use style="fill:#ff7f0e;stroke:#ff7f0e;" x="239.516883" xlink:href="#m29d73fa1d3" y="49.368162"/>
     <use style="fill:#ff7f0e;stroke:#ff7f0e;" x="243.14026" xlink:href="#m29d73fa1d3" y="48.566639"/>
     <use style="fill:#ff7f0e;stroke:#ff7f0e;" x="246.763636" xlink:href="#m29d73fa1d3" y="47.893261"/>
     <use style="fill:#ff7f0e;stroke:#ff7f0e;" x="250.387013" xlink:href="#m29d73fa1d3" y="47.328245"/>
     <use style="fill:#ff7f0e;stroke:#ff7f0e;" x="254.01039" xlink:href="#m29d73fa1d3" y="46.854626"/>
     <use style="fill:#ff7f0e;stroke:#ff7f0e;" x="257.633766" xlink:href="#m29d73fa1d3" y="46.457979"/>
     <use style="fill:#ff7f0e;stroke:#ff7f0e;" x="261.257143" xlink:href="#m29d73fa1d3" y="46.126015"/>
     <use style="fill:#ff7f0e;stroke:#ff7f0e;" x="264.880519" xlink:href="#m29d73fa1d3" y="45.848381"/>
     <use style="fill:#ff7f0e;stroke:#ff7f0e;" x="268.503896" xlink:href="#m29d73fa1d3" y="45.616279"/>
     <use style="fill:#ff7f0e;stroke:#ff7f0e;" x="272.127273" xlink:href="#m29d73fa1d3" y="45.422349"/>
     <use style="fill:#ff7f0e;stroke:#ff7f0e;" x="275.750649" xlink:href="#m29d73fa1d3" y="45.260356"/>
     <use style="fill:#ff7f0e;stroke:#ff7f0e;" x="279.374026" xlink:href="#m29d73fa1d3" y="45.125077"/>
     <use style="fill:#ff7f0e;stroke:#ff7f0e;" x="282.997403" xlink:href="#m29d73fa1d3" y="45.012143"/>
     <use style="fill:#ff7f0e;stroke:#ff7f0e;" x="286.620779" xlink:href="#m29d73fa1d3" y="44.917884"/>
     <use style="fill:#ff7f0e;stroke:#ff7f0e;" x="290.244156" xlink:href="#m29d73fa1d3" y="44.839215"/>
     <use style="fill:#ff7f0e;stroke:#ff7f0e;" x="293.867532" xlink:href="#m29d73fa1d3" y="44.773582"/>
     <use style="fill:#ff7f0e;stroke:#ff7f0e;" x="297.490909" xlink:href="#m29d73fa1d3" y="44.718825"/>
     <use style="fill:#ff7f0e;stroke:#ff7f0e;" x="301.114286" xlink:href="#m29d73fa1d3" y="44.673138"/>
     <use style="fill:#ff7f0e;stroke:#ff7f0e;" x="304.737662" xlink:href="#m29d73fa1d3" y="44.635014"/>
     <use style="fill:#ff7f0e;stroke:#ff7f0e;" x="308.361039" xlink:href="#m29d73fa1d3" y="44.603243"/>
     <use style="fill:#ff7f0e;stroke:#ff7f0e;" x="311.984416" xlink:href="#m29d73fa1d3" y="44.576731"/>
     <use style="fill:#ff7f0e;stroke:#ff7f0e;" x="315.607792" xlink:href="#m29d73fa1d3" y="44.554623"/>
     <use style="fill:#ff7f0e;stroke:#ff7f0e;" x="319.231169" xlink:href="#m29d73fa1d3" y="44.536197"/>
     <use style="fill:#ff7f0e;stroke:#ff7f0e;" x="322.854545" xlink:href="#m29d73fa1d3" y="44.520822"/>
     <use style="fill:#ff7f0e;stroke:#ff7f0e;" x="326.477922" xlink:href="#m29d73fa1d3" y="44.507999"/>
     <use style="fill:#ff7f0e;stroke:#ff7f0e;" x="330.101299" xlink:href="#m29d73fa1d3" y="44.497302"/>
     <use style="fill:#ff7f0e;stroke:#ff7f0e;" x="333.724675" xlink:href="#m29d73fa1d3" y="44.488373"/>
     <use style="fill:#ff7f0e;stroke:#ff7f0e;" x="337.348052" xlink:href="#m29d73fa1d3" y="44.480941"/>
     <use style="fill:#ff7f0e;stroke:#ff7f0e;" x="340.971429" xlink:href="#m29d73fa1d3" y="44.474743"/>
     <use style="fill:#ff7f0e;stroke:#ff7f0e;" x="344.594805" xlink:href="#m29d73fa1d3" y="44.469567"/>
     <use style="fill:#ff7f0e;stroke:#ff7f0e;" x="348.218182" xlink:href="#m29d73fa1d3" y="44.465257"/>
     <use style="fill:#ff7f0e;stroke:#ff7f0e;" x="351.841558" xlink:href="#m29d73fa1d3" y="44.461671"/>
     <use style="fill:#ff7f0e;stroke:#ff7f0e;" x="355.464935" xlink:href="#m29d73fa1d3" y="44.458667"/>
     <use style="fill:#ff7f0e;stroke:#ff7f0e;" x="359.088312" xlink:href="#m29d73fa1d3" y="44.456174"/>
     <use style="fill:#ff7f0e;stroke:#ff7f0e;" x="362.711688" xlink:href="#m29d73fa1d3" y="44.454084"/>
     <use style="fill:#ff7f0e;stroke:#ff7f0e;" x="366.335065" xlink:href="#m29d73fa1d3" y="44.452351"/>
     <use style="fill:#ff7f0e;stroke:#ff7f0e;" x="369.958442" xlink:href="#m29d73fa1d3" y="44.450903"/>
     <use style="fill:#ff7f0e;stroke:#ff7f0e;" x="373.581818" xlink:href="#m29d73fa1d3" y="44.449692"/>
    </g>
   </g>
   <g id="matplotlib.axis_1">
    <g id="xtick_1">
     <g id="line2d_1">
      <defs>
       <path d="M 0 0 
L 0 3.5 
" id="mbb7b59383a" style="stroke:#000000;stroke-width:0.8;"/>
      </defs>
      <g>
       <use style="stroke:#000000;stroke-width:0.8;" x="69.218182" xlink:href="#mbb7b59383a" y="252"/>
      </g>
     </g>
     <g id="text_1">
      <!-- 0 -->
      <g transform="translate(66.036932 266.598437)scale(0.1 -0.1)">
       <defs>
        <path d="M 2034 4250 
Q 1547 4250 1301 3770 
Q 1056 3291 1056 2328 
Q 1056 1369 1301 889 
Q 1547 409 2034 409 
Q 2525 409 2770 889 
Q 3016 1369 3016 2328 
Q 3016 3291 2770 3770 
Q 2525 4250 2034 4250 
z
M 2034 4750 
Q 2819 4750 3233 4129 
Q 3647 3509 3647 2328 
Q 3647 1150 3233 529 
Q 2819 -91 2034 -91 
Q 1250 -91 836 529 
Q 422 1150 422 2328 
Q 422 3509 836 4129 
Q 1250 4750 2034 4750 
z
" id="DejaVuSans-30" transform="scale(0.015625)"/>
       </defs>
       <use xlink:href="#DejaVuSans-30"/>
      </g>
     </g>
    </g>
    <g id="xtick_2">
     <g id="line2d_2">
      <g>
       <use style="stroke:#000000;stroke-width:0.8;" x="141.685714" xlink:href="#mbb7b59383a" y="252"/>
      </g>
     </g>
     <g id="text_2">
      <!-- 20 -->
      <g transform="translate(135.323214 266.598437)scale(0.1 -0.1)">
       <defs>
        <path d="M 1228 531 
L 3431 531 
L 3431 0 
L 469 0 
L 469 531 
Q 828 903 1448 1529 
Q 2069 2156 2228 2338 
Q 2531 2678 2651 2914 
Q 2772 3150 2772 3378 
Q 2772 3750 2511 3984 
Q 2250 4219 1831 4219 
Q 1534 4219 1204 4116 
Q 875 4013 500 3803 
L 500 4441 
Q 881 4594 1212 4672 
Q 1544 4750 1819 4750 
Q 2544 4750 2975 4387 
Q 3406 4025 3406 3419 
Q 3406 3131 3298 2873 
Q 3191 2616 2906 2266 
Q 2828 2175 2409 1742 
Q 1991 1309 1228 531 
z
" id="DejaVuSans-32" transform="scale(0.015625)"/>
       </defs>
       <use xlink:href="#DejaVuSans-32"/>
       <use x="63.623047" xlink:href="#DejaVuSans-30"/>
      </g>
     </g>
    </g>
    <g id="xtick_3">
     <g id="line2d_3">
      <g>
       <use style="stroke:#000000;stroke-width:0.8;" x="214.153247" xlink:href="#mbb7b59383a" y="252"/>
      </g>
     </g>
     <g id="text_3">
      <!-- 40 -->
      <g transform="translate(207.790747 266.598437)scale(0.1 -0.1)">
       <defs>
        <path d="M 2419 4116 
L 825 1625 
L 2419 1625 
L 2419 4116 
z
M 2253 4666 
L 3047 4666 
L 3047 1625 
L 3713 1625 
L 3713 1100 
L 3047 1100 
L 3047 0 
L 2419 0 
L 2419 1100 
L 313 1100 
L 313 1709 
L 2253 4666 
z
" id="DejaVuSans-34" transform="scale(0.015625)"/>
       </defs>
       <use xlink:href="#DejaVuSans-34"/>
       <use x="63.623047" xlink:href="#DejaVuSans-30"/>
      </g>
     </g>
    </g>
    <g id="xtick_4">
     <g id="line2d_4">
      <g>
       <use style="stroke:#000000;stroke-width:0.8;" x="286.620779" xlink:href="#mbb7b59383a" y="252"/>
      </g>
     </g>
     <g id="text_4">
      <!-- 60 -->
      <g transform="translate(280.258279 266.598437)scale(0.1 -0.1)">
       <defs>
        <path d="M 2113 2584 
Q 1688 2584 1439 2293 
Q 1191 2003 1191 1497 
Q 1191 994 1439 701 
Q 1688 409 2113 409 
Q 2538 409 2786 701 
Q 3034 994 3034 1497 
Q 3034 2003 2786 2293 
Q 2538 2584 2113 2584 
z
M 3366 4563 
L 3366 3988 
Q 3128 4100 2886 4159 
Q 2644 4219 2406 4219 
Q 1781 4219 1451 3797 
Q 1122 3375 1075 2522 
Q 1259 2794 1537 2939 
Q 1816 3084 2150 3084 
Q 2853 3084 3261 2657 
Q 3669 2231 3669 1497 
Q 3669 778 3244 343 
Q 2819 -91 2113 -91 
Q 1303 -91 875 529 
Q 447 1150 447 2328 
Q 447 3434 972 4092 
Q 1497 4750 2381 4750 
Q 2619 4750 2861 4703 
Q 3103 4656 3366 4563 
z
" id="DejaVuSans-36" transform="scale(0.015625)"/>
       </defs>
       <use xlink:href="#DejaVuSans-36"/>
       <use x="63.623047" xlink:href="#DejaVuSans-30"/>
      </g>
     </g>
    </g>
    <g id="xtick_5">
     <g id="line2d_5">
      <g>
       <use style="stroke:#000000;stroke-width:0.8;" x="359.088312" xlink:href="#mbb7b59383a" y="252"/>
      </g>
     </g>
     <g id="text_5">
      <!-- 80 -->
      <g transform="translate(352.725812 266.598437)scale(0.1 -0.1)">
       <defs>
        <path d="M 2034 2216 
Q 1584 2216 1326 1975 
Q 1069 1734 1069 1313 
Q 1069 891 1326 650 
Q 1584 409 2034 409 
Q 2484 409 2743 651 
Q 3003 894 3003 1313 
Q 3003 1734 2745 1975 
Q 2488 2216 2034 2216 
z
M 1403 2484 
Q 997 2584 770 2862 
Q 544 3141 544 3541 
Q 544 4100 942 4425 
Q 1341 4750 2034 4750 
Q 2731 4750 3128 4425 
Q 3525 4100 3525 3541 
Q 3525 3141 3298 2862 
Q 3072 2584 2669 2484 
Q 3125 2378 3379 2068 
Q 3634 1759 3634 1313 
Q 3634 634 3220 271 
Q 2806 -91 2034 -91 
Q 1263 -91 848 271 
Q 434 634 434 1313 
Q 434 1759 690 2068 
Q 947 2378 1403 2484 
z
M 1172 3481 
Q 1172 3119 1398 2916 
Q 1625 2713 2034 2713 
Q 2441 2713 2670 2916 
Q 2900 3119 2900 3481 
Q 2900 3844 2670 4047 
Q 2441 4250 2034 4250 
Q 1625 4250 1398 4047 
Q 1172 3844 1172 3481 
z
" id="DejaVuSans-38" transform="scale(0.015625)"/>
       </defs>
       <use xlink:href="#DejaVuSans-38"/>
       <use x="63.623047" xlink:href="#DejaVuSans-30"/>
      </g>
     </g>
    </g>
   </g>
   <g id="matplotlib.axis_2">
    <g id="ytick_1">
     <g id="line2d_6">
      <defs>
       <path d="M 0 0 
L -3.5 0 
" id="mb0d7254a66" style="stroke:#000000;stroke-width:0.8;"/>
      </defs>
      <g>
       <use style="stroke:#000000;stroke-width:0.8;" x="54" xlink:href="#mb0d7254a66" y="243.636506"/>
      </g>
     </g>
     <g id="text_6">
      <!-- 0.0 -->
      <g transform="translate(31.096875 247.435724)scale(0.1 -0.1)">
       <defs>
        <path d="M 684 794 
L 1344 794 
L 1344 0 
L 684 0 
L 684 794 
z
" id="DejaVuSans-2e" transform="scale(0.015625)"/>
       </defs>
       <use xlink:href="#DejaVuSans-30"/>
       <use x="63.623047" xlink:href="#DejaVuSans-2e"/>
       <use x="95.410156" xlink:href="#DejaVuSans-30"/>
      </g>
     </g>
    </g>
    <g id="ytick_2">
     <g id="line2d_7">
      <g>
       <use style="stroke:#000000;stroke-width:0.8;" x="54" xlink:href="#mb0d7254a66" y="203.797932"/>
      </g>
     </g>
     <g id="text_7">
      <!-- 0.2 -->
      <g transform="translate(31.096875 207.597151)scale(0.1 -0.1)">
       <use xlink:href="#DejaVuSans-30"/>
       <use x="63.623047" xlink:href="#DejaVuSans-2e"/>
       <use x="95.410156" xlink:href="#DejaVuSans-32"/>
      </g>
     </g>
    </g>
    <g id="ytick_3">
     <g id="line2d_8">
      <g>
       <use style="stroke:#000000;stroke-width:0.8;" x="54" xlink:href="#mb0d7254a66" y="163.959358"/>
      </g>
     </g>
     <g id="text_8">
      <!-- 0.4 -->
      <g transform="translate(31.096875 167.758577)scale(0.1 -0.1)">
       <use xlink:href="#DejaVuSans-30"/>
       <use x="63.623047" xlink:href="#DejaVuSans-2e"/>
       <use x="95.410156" xlink:href="#DejaVuSans-34"/>
      </g>
     </g>
    </g>
    <g id="ytick_4">
     <g id="line2d_9">
      <g>
       <use style="stroke:#000000;stroke-width:0.8;" x="54" xlink:href="#mb0d7254a66" y="124.120784"/>
      </g>
     </g>
     <g id="text_9">
      <!-- 0.6 -->
      <g transform="translate(31.096875 127.920003)scale(0.1 -0.1)">
       <use xlink:href="#DejaVuSans-30"/>
       <use x="63.623047" xlink:href="#DejaVuSans-2e"/>
       <use x="95.410156" xlink:href="#DejaVuSans-36"/>
      </g>
     </g>
    </g>
    <g id="ytick_5">
     <g id="line2d_10">
      <g>
       <use style="stroke:#000000;stroke-width:0.8;" x="54" xlink:href="#mb0d7254a66" y="84.28221"/>
      </g>
     </g>
     <g id="text_10">
      <!-- 0.8 -->
      <g transform="translate(31.096875 88.081429)scale(0.1 -0.1)">
       <use xlink:href="#DejaVuSans-30"/>
       <use x="63.623047" xlink:href="#DejaVuSans-2e"/>
       <use x="95.410156" xlink:href="#DejaVuSans-38"/>
      </g>
     </g>
    </g>
    <g id="ytick_6">
     <g id="line2d_11">
      <g>
       <use style="stroke:#000000;stroke-width:0.8;" x="54" xlink:href="#mb0d7254a66" y="44.443636"/>
      </g>
     </g>
     <g id="text_11">
      <!-- 1.0 -->
      <g transform="translate(31.096875 48.242855)scale(0.1 -0.1)">
       <defs>
        <path d="M 794 531 
L 1825 531 
L 1825 4091 
L 703 3866 
L 703 4441 
L 1819 4666 
L 2450 4666 
L 2450 531 
L 3481 531 
L 3481 0 
L 794 0 
L 794 531 
z
" id="DejaVuSans-31" transform="scale(0.015625)"/>
       </defs>
       <use xlink:href="#DejaVuSans-31"/>
       <use x="63.623047" xlink:href="#DejaVuSans-2e"/>
       <use x="95.410156" xlink:href="#DejaVuSans-30"/>
      </g>
     </g>
    </g>
   </g>
   <g id="patch_3">
    <path d="M 54 252 
L 54 34.56 
" style="fill:none;stroke:#000000;stroke-linecap:square;stroke-linejoin:miter;stroke-width:0.8;"/>
   </g>
   <g id="patch_4">
    <path d="M 388.8 252 
L 388.8 34.56 
" style="fill:none;stroke:#000000;stroke-linecap:square;stroke-linejoin:miter;stroke-width:0.8;"/>
   </g>
   <g id="patch_5">
    <path d="M 54 252 
L 388.8 252 
" style="fill:none;stroke:#000000;stroke-linecap:square;stroke-linejoin:miter;stroke-width:0.8;"/>
   </g>
   <g id="patch_6">
    <path d="M 54 34.56 
L 388.8 34.56 
" style="fill:none;stroke:#000000;stroke-linecap:square;stroke-linejoin:miter;stroke-width:0.8;"/>
   </g>
   <g id="legend_1">
    <g id="patch_7">
     <path d="M 61 71.91625 
L 135.503125 71.91625 
Q 137.503125 71.91625 137.503125 69.91625 
L 137.503125 41.56 
Q 137.503125 39.56 135.503125 39.56 
L 61 39.56 
Q 59 39.56 59 41.56 
L 59 69.91625 
Q 59 71.91625 61 71.91625 
z
" style="fill:#ffffff;opacity:0.8;stroke:#cccccc;stroke-linejoin:miter;"/>
    </g>
    <g id="PathCollection_3">
     <g>
      <use style="fill:#1f77b4;stroke:#1f77b4;" x="73" xlink:href="#me971804bc0" y="48.533437"/>
     </g>
    </g>
    <g id="text_12">
     <!-- Actual -->
     <g transform="translate(91 51.158437)scale(0.1 -0.1)">
      <defs>
       <path d="M 2188 4044 
L 1331 1722 
L 3047 1722 
L 2188 4044 
z
M 1831 4666 
L 2547 4666 
L 4325 0 
L 3669 0 
L 3244 1197 
L 1141 1197 
L 716 0 
L 50 0 
L 1831 4666 
z
" id="DejaVuSans-41" transform="scale(0.015625)"/>
       <path d="M 3122 3366 
L 3122 2828 
Q 2878 2963 2633 3030 
Q 2388 3097 2138 3097 
Q 1578 3097 1268 2742 
Q 959 2388 959 1747 
Q 959 1106 1268 751 
Q 1578 397 2138 397 
Q 2388 397 2633 464 
Q 2878 531 3122 666 
L 3122 134 
Q 2881 22 2623 -34 
Q 2366 -91 2075 -91 
Q 1284 -91 818 406 
Q 353 903 353 1747 
Q 353 2603 823 3093 
Q 1294 3584 2113 3584 
Q 2378 3584 2631 3529 
Q 2884 3475 3122 3366 
z
" id="DejaVuSans-63" transform="scale(0.015625)"/>
       <path d="M 1172 4494 
L 1172 3500 
L 2356 3500 
L 2356 3053 
L 1172 3053 
L 1172 1153 
Q 1172 725 1289 603 
Q 1406 481 1766 481 
L 2356 481 
L 2356 0 
L 1766 0 
Q 1100 0 847 248 
Q 594 497 594 1153 
L 594 3053 
L 172 3053 
L 172 3500 
L 594 3500 
L 594 4494 
L 1172 4494 
z
" id="DejaVuSans-74" transform="scale(0.015625)"/>
       <path d="M 544 1381 
L 544 3500 
L 1119 3500 
L 1119 1403 
Q 1119 906 1312 657 
Q 1506 409 1894 409 
Q 2359 409 2629 706 
Q 2900 1003 2900 1516 
L 2900 3500 
L 3475 3500 
L 3475 0 
L 2900 0 
L 2900 538 
Q 2691 219 2414 64 
Q 2138 -91 1772 -91 
Q 1169 -91 856 284 
Q 544 659 544 1381 
z
M 1991 3584 
L 1991 3584 
z
" id="DejaVuSans-75" transform="scale(0.015625)"/>
       <path d="M 2194 1759 
Q 1497 1759 1228 1600 
Q 959 1441 959 1056 
Q 959 750 1161 570 
Q 1363 391 1709 391 
Q 2188 391 2477 730 
Q 2766 1069 2766 1631 
L 2766 1759 
L 2194 1759 
z
M 3341 1997 
L 3341 0 
L 2766 0 
L 2766 531 
Q 2569 213 2275 61 
Q 1981 -91 1556 -91 
Q 1019 -91 701 211 
Q 384 513 384 1019 
Q 384 1609 779 1909 
Q 1175 2209 1959 2209 
L 2766 2209 
L 2766 2266 
Q 2766 2663 2505 2880 
Q 2244 3097 1772 3097 
Q 1472 3097 1187 3025 
Q 903 2953 641 2809 
L 641 3341 
Q 956 3463 1253 3523 
Q 1550 3584 1831 3584 
Q 2591 3584 2966 3190 
Q 3341 2797 3341 1997 
z
" id="DejaVuSans-61" transform="scale(0.015625)"/>
       <path d="M 603 4863 
L 1178 4863 
L 1178 0 
L 603 0 
L 603 4863 
z
" id="DejaVuSans-6c" transform="scale(0.015625)"/>
      </defs>
      <use xlink:href="#DejaVuSans-41"/>
      <use x="66.658203" xlink:href="#DejaVuSans-63"/>
      <use x="121.638672" xlink:href="#DejaVuSans-74"/>
      <use x="160.847656" xlink:href="#DejaVuSans-75"/>
      <use x="224.226562" xlink:href="#DejaVuSans-61"/>
      <use x="285.505859" xlink:href="#DejaVuSans-6c"/>
     </g>
    </g>
    <g id="PathCollection_4">
     <g>
      <use style="fill:#ff7f0e;stroke:#ff7f0e;" x="73" xlink:href="#m29d73fa1d3" y="63.211562"/>
     </g>
    </g>
    <g id="text_13">
     <!-- SI Model -->
     <g transform="translate(91 65.836562)scale(0.1 -0.1)">
      <defs>
       <path d="M 3425 4513 
L 3425 3897 
Q 3066 4069 2747 4153 
Q 2428 4238 2131 4238 
Q 1616 4238 1336 4038 
Q 1056 3838 1056 3469 
Q 1056 3159 1242 3001 
Q 1428 2844 1947 2747 
L 2328 2669 
Q 3034 2534 3370 2195 
Q 3706 1856 3706 1288 
Q 3706 609 3251 259 
Q 2797 -91 1919 -91 
Q 1588 -91 1214 -16 
Q 841 59 441 206 
L 441 856 
Q 825 641 1194 531 
Q 1563 422 1919 422 
Q 2459 422 2753 634 
Q 3047 847 3047 1241 
Q 3047 1584 2836 1778 
Q 2625 1972 2144 2069 
L 1759 2144 
Q 1053 2284 737 2584 
Q 422 2884 422 3419 
Q 422 4038 858 4394 
Q 1294 4750 2059 4750 
Q 2388 4750 2728 4690 
Q 3069 4631 3425 4513 
z
" id="DejaVuSans-53" transform="scale(0.015625)"/>
       <path d="M 628 4666 
L 1259 4666 
L 1259 0 
L 628 0 
L 628 4666 
z
" id="DejaVuSans-49" transform="scale(0.015625)"/>
       <path id="DejaVuSans-20" transform="scale(0.015625)"/>
       <path d="M 628 4666 
L 1569 4666 
L 2759 1491 
L 3956 4666 
L 4897 4666 
L 4897 0 
L 4281 0 
L 4281 4097 
L 3078 897 
L 2444 897 
L 1241 4097 
L 1241 0 
L 628 0 
L 628 4666 
z
" id="DejaVuSans-4d" transform="scale(0.015625)"/>
       <path d="M 1959 3097 
Q 1497 3097 1228 2736 
Q 959 2375 959 1747 
Q 959 1119 1226 758 
Q 1494 397 1959 397 
Q 2419 397 2687 759 
Q 2956 1122 2956 1747 
Q 2956 2369 2687 2733 
Q 2419 3097 1959 3097 
z
M 1959 3584 
Q 2709 3584 3137 3096 
Q 3566 2609 3566 1747 
Q 3566 888 3137 398 
Q 2709 -91 1959 -91 
Q 1206 -91 779 398 
Q 353 888 353 1747 
Q 353 2609 779 3096 
Q 1206 3584 1959 3584 
z
" id="DejaVuSans-6f" transform="scale(0.015625)"/>
       <path d="M 2906 2969 
L 2906 4863 
L 3481 4863 
L 3481 0 
L 2906 0 
L 2906 525 
Q 2725 213 2448 61 
Q 2172 -91 1784 -91 
Q 1150 -91 751 415 
Q 353 922 353 1747 
Q 353 2572 751 3078 
Q 1150 3584 1784 3584 
Q 2172 3584 2448 3432 
Q 2725 3281 2906 2969 
z
M 947 1747 
Q 947 1113 1208 752 
Q 1469 391 1925 391 
Q 2381 391 2643 752 
Q 2906 1113 2906 1747 
Q 2906 2381 2643 2742 
Q 2381 3103 1925 3103 
Q 1469 3103 1208 2742 
Q 947 2381 947 1747 
z
" id="DejaVuSans-64" transform="scale(0.015625)"/>
       <path d="M 3597 1894 
L 3597 1613 
L 953 1613 
Q 991 1019 1311 708 
Q 1631 397 2203 397 
Q 2534 397 2845 478 
Q 3156 559 3463 722 
L 3463 178 
Q 3153 47 2828 -22 
Q 2503 -91 2169 -91 
Q 1331 -91 842 396 
Q 353 884 353 1716 
Q 353 2575 817 3079 
Q 1281 3584 2069 3584 
Q 2775 3584 3186 3129 
Q 3597 2675 3597 1894 
z
M 3022 2063 
Q 3016 2534 2758 2815 
Q 2500 3097 2075 3097 
Q 1594 3097 1305 2825 
Q 1016 2553 972 2059 
L 3022 2063 
z
" id="DejaVuSans-65" transform="scale(0.015625)"/>
      </defs>
      <use xlink:href="#DejaVuSans-53"/>
      <use x="63.476562" xlink:href="#DejaVuSans-49"/>
      <use x="92.96875" xlink:href="#DejaVuSans-20"/>
      <use x="124.755859" xlink:href="#DejaVuSans-4d"/>
      <use x="211.035156" xlink:href="#DejaVuSans-6f"/>
      <use x="272.216797" xlink:href="#DejaVuSans-64"/>
      <use x="335.693359" xlink:href="#DejaVuSans-65"/>
      <use x="397.216797" xlink:href="#DejaVuSans-6c"/>
     </g>
    </g>
   </g>
  </g>
 </g>
 <defs>
  <clipPath id="pd48e64be6c">
   <rect height="217.44" width="334.8" x="54" y="34.56"/>
  </clipPath>
 </defs>
</svg>
