<?xml version="1.0" encoding="utf-8" standalone="no"?>
<!DOCTYPE svg PUBLIC "-//W3C//DTD SVG 1.1//EN"
  "http://www.w3.org/Graphics/SVG/1.1/DTD/svg11.dtd">
<svg height="288pt" version="1.1" viewBox="0 0 432 288" width="432pt" xmlns="http://www.w3.org/2000/svg" xmlns:xlink="http://www.w3.org/1999/xlink">
 <metadata>
  <rdf:RDF xmlns:cc="http://creativecommons.org/ns#" xmlns:dc="http://purl.org/dc/elements/1.1/" xmlns:rdf="http://www.w3.org/1999/02/22-rdf-syntax-ns#">
   <cc:Work>
    <dc:type rdf:resource="http://purl.org/dc/dcmitype/StillImage"/>
    <dc:date>2021-08-29T20:46:38.561260</dc:date>
    <dc:format>image/svg+xml</dc:format>
    <dc:creator>
     <cc:Agent>
      <dc:title>Matplotlib v3.4.2, https://matplotlib.org/</dc:title>
     </cc:Agent>
    </dc:creator>
   </cc:Work>
  </rdf:RDF>
 </metadata>
 <defs>
  <style type="text/css">*{stroke-linecap:butt;stroke-linejoin:round;}</style>
 </defs>
 <g id="figure_1">
  <g id="patch_1">
   <path d="M 0 288 
L 432 288 
L 432 0 
L 0 0 
z
" style="fill:none;"/>
  </g>
  <g id="axes_1">
   <g id="patch_2">
    <path d="M 54 252 
L 388.8 252 
L 388.8 34.56 
L 54 34.56 
z
" style="fill:#ffffff;"/>
   </g>
   <g id="PathCollection_1">
    <defs>
     <path d="M 0 3 
C 0.795609 3 1.55874 2.683901 2.12132 2.12132 
C 2.683901 1.55874 3 0.795609 3 0 
C 3 -0.795609 2.683901 -1.55874 2.12132 -2.12132 
C 1.55874 -2.683901 0.795609 -3 0 -3 
C -0.795609 -3 -1.55874 -2.683901 -2.12132 -2.12132 
C -2.683901 -1.55874 -3 -0.795609 -3 0 
C -3 0.795609 -2.683901 1.55874 -2.12132 2.12132 
C -1.55874 2.683901 -0.795609 3 0 3 
z
" id="ma373a4b8d2" style="stroke:#1f77b4;"/>
    </defs>
    <g clip-path="url(#p91c9d4269c)">
     <use style="fill:#1f77b4;stroke:#1f77b4;" x="69.218182" xlink:href="#ma373a4b8d2" y="242.116364"/>
     <use style="fill:#1f77b4;stroke:#1f77b4;" x="74.127273" xlink:href="#ma373a4b8d2" y="237.779979"/>
     <use style="fill:#1f77b4;stroke:#1f77b4;" x="79.036364" xlink:href="#ma373a4b8d2" y="232.225043"/>
     <use style="fill:#1f77b4;stroke:#1f77b4;" x="83.945455" xlink:href="#ma373a4b8d2" y="221.35415"/>
     <use style="fill:#1f77b4;stroke:#1f77b4;" x="88.854545" xlink:href="#ma373a4b8d2" y="209.590779"/>
     <use style="fill:#1f77b4;stroke:#1f77b4;" x="93.763636" xlink:href="#ma373a4b8d2" y="197.97227"/>
     <use style="fill:#1f77b4;stroke:#1f77b4;" x="98.672727" xlink:href="#ma373a4b8d2" y="193.312151"/>
     <use style="fill:#1f77b4;stroke:#1f77b4;" x="103.581818" xlink:href="#ma373a4b8d2" y="188.848694"/>
     <use style="fill:#1f77b4;stroke:#1f77b4;" x="108.490909" xlink:href="#ma373a4b8d2" y="184.625038"/>
     <use style="fill:#1f77b4;stroke:#1f77b4;" x="113.4" xlink:href="#ma373a4b8d2" y="179.506896"/>
     <use style="fill:#1f77b4;stroke:#1f77b4;" x="118.309091" xlink:href="#ma373a4b8d2" y="169.18332"/>
     <use style="fill:#1f77b4;stroke:#1f77b4;" x="123.218182" xlink:href="#ma373a4b8d2" y="159.727694"/>
     <use style="fill:#1f77b4;stroke:#1f77b4;" x="128.127273" xlink:href="#ma373a4b8d2" y="156.215801"/>
     <use style="fill:#1f77b4;stroke:#1f77b4;" x="133.036364" xlink:href="#ma373a4b8d2" y="152.87664"/>
     <use style="fill:#1f77b4;stroke:#1f77b4;" x="137.945455" xlink:href="#ma373a4b8d2" y="149.884227"/>
     <use style="fill:#1f77b4;stroke:#1f77b4;" x="142.854545" xlink:href="#ma373a4b8d2" y="147.030076"/>
     <use style="fill:#1f77b4;stroke:#1f77b4;" x="147.763636" xlink:href="#ma373a4b8d2" y="143.313819"/>
     <use style="fill:#1f77b4;stroke:#1f77b4;" x="152.672727" xlink:href="#ma373a4b8d2" y="134.77622"/>
     <use style="fill:#1f77b4;stroke:#1f77b4;" x="157.581818" xlink:href="#ma373a4b8d2" y="127.342562"/>
     <use style="fill:#1f77b4;stroke:#1f77b4;" x="162.490909" xlink:href="#ma373a4b8d2" y="124.970559"/>
     <use style="fill:#1f77b4;stroke:#1f77b4;" x="167.4" xlink:href="#ma373a4b8d2" y="122.653722"/>
     <use style="fill:#1f77b4;stroke:#1f77b4;" x="172.309091" xlink:href="#ma373a4b8d2" y="120.613652"/>
     <use style="fill:#1f77b4;stroke:#1f77b4;" x="177.218182" xlink:href="#ma373a4b8d2" y="118.809676"/>
     <use style="fill:#1f77b4;stroke:#1f77b4;" x="182.127273" xlink:href="#ma373a4b8d2" y="116.601198"/>
     <use style="fill:#1f77b4;stroke:#1f77b4;" x="187.036364" xlink:href="#ma373a4b8d2" y="110.930976"/>
     <use style="fill:#1f77b4;stroke:#1f77b4;" x="191.945455" xlink:href="#ma373a4b8d2" y="105.847547"/>
     <use style="fill:#1f77b4;stroke:#1f77b4;" x="196.854545" xlink:href="#ma373a4b8d2" y="104.433885"/>
     <use style="fill:#1f77b4;stroke:#1f77b4;" x="201.763636" xlink:href="#ma373a4b8d2" y="103.110364"/>
     <use style="fill:#1f77b4;stroke:#1f77b4;" x="206.672727" xlink:href="#ma373a4b8d2" y="102.066169"/>
     <use style="fill:#1f77b4;stroke:#1f77b4;" x="211.581818" xlink:href="#ma373a4b8d2" y="101.08883"/>
     <use style="fill:#1f77b4;stroke:#1f77b4;" x="216.490909" xlink:href="#ma373a4b8d2" y="99.147608"/>
     <use style="fill:#1f77b4;stroke:#1f77b4;" x="221.4" xlink:href="#ma373a4b8d2" y="94.104001"/>
     <use style="fill:#1f77b4;stroke:#1f77b4;" x="226.309091" xlink:href="#ma373a4b8d2" y="89.111309"/>
     <use style="fill:#1f77b4;stroke:#1f77b4;" x="231.218182" xlink:href="#ma373a4b8d2" y="82.090945"/>
     <use style="fill:#1f77b4;stroke:#1f77b4;" x="236.127273" xlink:href="#ma373a4b8d2" y="74.669794"/>
     <use style="fill:#1f77b4;stroke:#1f77b4;" x="241.036364" xlink:href="#ma373a4b8d2" y="71.413455"/>
     <use style="fill:#1f77b4;stroke:#1f77b4;" x="245.945455" xlink:href="#ma373a4b8d2" y="70.1834"/>
     <use style="fill:#1f77b4;stroke:#1f77b4;" x="250.854545" xlink:href="#ma373a4b8d2" y="68.712818"/>
     <use style="fill:#1f77b4;stroke:#1f77b4;" x="255.763636" xlink:href="#ma373a4b8d2" y="64.619211"/>
     <use style="fill:#1f77b4;stroke:#1f77b4;" x="260.672727" xlink:href="#ma373a4b8d2" y="61.126863"/>
     <use style="fill:#1f77b4;stroke:#1f77b4;" x="265.581818" xlink:href="#ma373a4b8d2" y="60.205372"/>
     <use style="fill:#1f77b4;stroke:#1f77b4;" x="270.490909" xlink:href="#ma373a4b8d2" y="59.344832"/>
     <use style="fill:#1f77b4;stroke:#1f77b4;" x="275.4" xlink:href="#ma373a4b8d2" y="58.560427"/>
     <use style="fill:#1f77b4;stroke:#1f77b4;" x="280.309091" xlink:href="#ma373a4b8d2" y="57.941826"/>
     <use style="fill:#1f77b4;stroke:#1f77b4;" x="285.218182" xlink:href="#ma373a4b8d2" y="57.119999"/>
     <use style="fill:#1f77b4;stroke:#1f77b4;" x="290.127273" xlink:href="#ma373a4b8d2" y="55.173821"/>
     <use style="fill:#1f77b4;stroke:#1f77b4;" x="295.036364" xlink:href="#ma373a4b8d2" y="53.326309"/>
     <use style="fill:#1f77b4;stroke:#1f77b4;" x="299.945455" xlink:href="#ma373a4b8d2" y="52.754068"/>
     <use style="fill:#1f77b4;stroke:#1f77b4;" x="304.854545" xlink:href="#ma373a4b8d2" y="52.188769"/>
     <use style="fill:#1f77b4;stroke:#1f77b4;" x="309.763636" xlink:href="#ma373a4b8d2" y="51.613143"/>
     <use style="fill:#1f77b4;stroke:#1f77b4;" x="314.672727" xlink:href="#ma373a4b8d2" y="51.119402"/>
     <use style="fill:#1f77b4;stroke:#1f77b4;" x="319.581818" xlink:href="#ma373a4b8d2" y="50.572601"/>
     <use style="fill:#1f77b4;stroke:#1f77b4;" x="324.490909" xlink:href="#ma373a4b8d2" y="49.544541"/>
     <use style="fill:#1f77b4;stroke:#1f77b4;" x="329.4" xlink:href="#ma373a4b8d2" y="48.317895"/>
     <use style="fill:#1f77b4;stroke:#1f77b4;" x="334.309091" xlink:href="#ma373a4b8d2" y="47.092017"/>
     <use style="fill:#1f77b4;stroke:#1f77b4;" x="339.218182" xlink:href="#ma373a4b8d2" y="46.822508"/>
     <use style="fill:#1f77b4;stroke:#1f77b4;" x="344.127273" xlink:href="#ma373a4b8d2" y="46.573335"/>
     <use style="fill:#1f77b4;stroke:#1f77b4;" x="349.036364" xlink:href="#ma373a4b8d2" y="46.33986"/>
     <use style="fill:#1f77b4;stroke:#1f77b4;" x="353.945455" xlink:href="#ma373a4b8d2" y="45.965523"/>
     <use style="fill:#1f77b4;stroke:#1f77b4;" x="358.854545" xlink:href="#ma373a4b8d2" y="45.345886"/>
     <use style="fill:#1f77b4;stroke:#1f77b4;" x="363.763636" xlink:href="#ma373a4b8d2" y="44.830979"/>
     <use style="fill:#1f77b4;stroke:#1f77b4;" x="368.672727" xlink:href="#ma373a4b8d2" y="44.639104"/>
     <use style="fill:#1f77b4;stroke:#1f77b4;" x="373.581818" xlink:href="#ma373a4b8d2" y="44.443636"/>
    </g>
   </g>
   <g id="PathCollection_2">
    <defs>
     <path d="M 0 3 
C 0.795609 3 1.55874 2.683901 2.12132 2.12132 
C 2.683901 1.55874 3 0.795609 3 0 
C 3 -0.795609 2.683901 -1.55874 2.12132 -2.12132 
C 1.55874 -2.683901 0.795609 -3 0 -3 
C -0.795609 -3 -1.55874 -2.683901 -2.12132 -2.12132 
C -2.683901 -1.55874 -3 -0.795609 -3 0 
C -3 0.795609 -2.683901 1.55874 -2.12132 2.12132 
C -1.55874 2.683901 -0.795609 3 0 3 
z
" id="m1b3cb693f5" style="stroke:#ff7f0e;"/>
    </defs>
    <g clip-path="url(#p91c9d4269c)">
     <use style="fill:#ff7f0e;stroke:#ff7f0e;" x="69.218182" xlink:href="#m1b3cb693f5" y="242.116364"/>
     <use style="fill:#ff7f0e;stroke:#ff7f0e;" x="74.127273" xlink:href="#m1b3cb693f5" y="240.803171"/>
     <use style="fill:#ff7f0e;stroke:#ff7f0e;" x="79.036364" xlink:href="#m1b3cb693f5" y="239.242725"/>
     <use style="fill:#ff7f0e;stroke:#ff7f0e;" x="83.945455" xlink:href="#m1b3cb693f5" y="237.393788"/>
     <use style="fill:#ff7f0e;stroke:#ff7f0e;" x="88.854545" xlink:href="#m1b3cb693f5" y="235.210463"/>
     <use style="fill:#ff7f0e;stroke:#ff7f0e;" x="93.763636" xlink:href="#m1b3cb693f5" y="232.642606"/>
     <use style="fill:#ff7f0e;stroke:#ff7f0e;" x="98.672727" xlink:href="#m1b3cb693f5" y="229.636713"/>
     <use style="fill:#ff7f0e;stroke:#ff7f0e;" x="103.581818" xlink:href="#m1b3cb693f5" y="226.137451"/>
     <use style="fill:#ff7f0e;stroke:#ff7f0e;" x="108.490909" xlink:href="#m1b3cb693f5" y="222.089937"/>
     <use style="fill:#ff7f0e;stroke:#ff7f0e;" x="113.4" xlink:href="#m1b3cb693f5" y="217.442934"/>
     <use style="fill:#ff7f0e;stroke:#ff7f0e;" x="118.309091" xlink:href="#m1b3cb693f5" y="212.152952"/>
     <use style="fill:#ff7f0e;stroke:#ff7f0e;" x="123.218182" xlink:href="#m1b3cb693f5" y="206.18916"/>
     <use style="fill:#ff7f0e;stroke:#ff7f0e;" x="128.127273" xlink:href="#m1b3cb693f5" y="199.538816"/>
     <use style="fill:#ff7f0e;stroke:#ff7f0e;" x="133.036364" xlink:href="#m1b3cb693f5" y="192.212668"/>
     <use style="fill:#ff7f0e;stroke:#ff7f0e;" x="137.945455" xlink:href="#m1b3cb693f5" y="184.249556"/>
     <use style="fill:#ff7f0e;stroke:#ff7f0e;" x="142.854545" xlink:href="#m1b3cb693f5" y="175.719252"/>
     <use style="fill:#ff7f0e;stroke:#ff7f0e;" x="147.763636" xlink:href="#m1b3cb693f5" y="166.722801"/>
     <use style="fill:#ff7f0e;stroke:#ff7f0e;" x="152.672727" xlink:href="#m1b3cb693f5" y="157.389442"/>
     <use style="fill:#ff7f0e;stroke:#ff7f0e;" x="157.581818" xlink:href="#m1b3cb693f5" y="147.870285"/>
     <use style="fill:#ff7f0e;stroke:#ff7f0e;" x="162.490909" xlink:href="#m1b3cb693f5" y="138.329031"/>
     <use style="fill:#ff7f0e;stroke:#ff7f0e;" x="167.4" xlink:href="#m1b3cb693f5" y="128.930806"/>
     <use style="fill:#ff7f0e;stroke:#ff7f0e;" x="172.309091" xlink:href="#m1b3cb693f5" y="119.831111"/>
     <use style="fill:#ff7f0e;stroke:#ff7f0e;" x="177.218182" xlink:href="#m1b3cb693f5" y="111.165754"/>
     <use style="fill:#ff7f0e;stroke:#ff7f0e;" x="182.127273" xlink:href="#m1b3cb693f5" y="103.043715"/>
     <use style="fill:#ff7f0e;stroke:#ff7f0e;" x="187.036364" xlink:href="#m1b3cb693f5" y="95.543163"/>
     <use style="fill:#ff7f0e;stroke:#ff7f0e;" x="191.945455" xlink:href="#m1b3cb693f5" y="88.710985"/>
     <use style="fill:#ff7f0e;stroke:#ff7f0e;" x="196.854545" xlink:href="#m1b3cb693f5" y="82.565008"/>
     <use style="fill:#ff7f0e;stroke:#ff7f0e;" x="201.763636" xlink:href="#m1b3cb693f5" y="77.098242"/>
     <use style="fill:#ff7f0e;stroke:#ff7f0e;" x="206.672727" xlink:href="#m1b3cb693f5" y="72.284091"/>
     <use style="fill:#ff7f0e;stroke:#ff7f0e;" x="211.581818" xlink:href="#m1b3cb693f5" y="68.081929"/>
     <use style="fill:#ff7f0e;stroke:#ff7f0e;" x="216.490909" xlink:href="#m1b3cb693f5" y="64.442156"/>
     <use style="fill:#ff7f0e;stroke:#ff7f0e;" x="221.4" xlink:href="#m1b3cb693f5" y="61.310506"/>
     <use style="fill:#ff7f0e;stroke:#ff7f0e;" x="226.309091" xlink:href="#m1b3cb693f5" y="58.63151"/>
     <use style="fill:#ff7f0e;stroke:#ff7f0e;" x="231.218182" xlink:href="#m1b3cb693f5" y="56.351"/>
     <use style="fill:#ff7f0e;stroke:#ff7f0e;" x="236.127273" xlink:href="#m1b3cb693f5" y="54.417803"/>
     <use style="fill:#ff7f0e;stroke:#ff7f0e;" x="241.036364" xlink:href="#m1b3cb693f5" y="52.784866"/>
     <use style="fill:#ff7f0e;stroke:#ff7f0e;" x="245.945455" xlink:href="#m1b3cb693f5" y="51.409687"/>
     <use style="fill:#ff7f0e;stroke:#ff7f0e;" x="250.854545" xlink:href="#m1b3cb693f5" y="50.254514"/>
     <use style="fill:#ff7f0e;stroke:#ff7f0e;" x="255.763636" xlink:href="#m1b3cb693f5" y="49.286186"/>
     <use style="fill:#ff7f0e;stroke:#ff7f0e;" x="260.672727" xlink:href="#m1b3cb693f5" y="48.475953"/>
     <use style="fill:#ff7f0e;stroke:#ff7f0e;" x="265.581818" xlink:href="#m1b3cb693f5" y="47.799006"/>
     <use style="fill:#ff7f0e;stroke:#ff7f0e;" x="270.490909" xlink:href="#m1b3cb693f5" y="47.234109"/>
     <use style="fill:#ff7f0e;stroke:#ff7f0e;" x="275.4" xlink:href="#m1b3cb693f5" y="46.763226"/>
     <use style="fill:#ff7f0e;stroke:#ff7f0e;" x="280.309091" xlink:href="#m1b3cb693f5" y="46.371048"/>
     <use style="fill:#ff7f0e;stroke:#ff7f0e;" x="285.218182" xlink:href="#m1b3cb693f5" y="46.044643"/>
     <use style="fill:#ff7f0e;stroke:#ff7f0e;" x="290.127273" xlink:href="#m1b3cb693f5" y="45.773149"/>
     <use style="fill:#ff7f0e;stroke:#ff7f0e;" x="295.036364" xlink:href="#m1b3cb693f5" y="45.547443"/>
     <use style="fill:#ff7f0e;stroke:#ff7f0e;" x="299.945455" xlink:href="#m1b3cb693f5" y="45.359879"/>
     <use style="fill:#ff7f0e;stroke:#ff7f0e;" x="304.854545" xlink:href="#m1b3cb693f5" y="45.204074"/>
     <use style="fill:#ff7f0e;stroke:#ff7f0e;" x="309.763636" xlink:href="#m1b3cb693f5" y="45.074684"/>
     <use style="fill:#ff7f0e;stroke:#ff7f0e;" x="314.672727" xlink:href="#m1b3cb693f5" y="44.96725"/>
     <use style="fill:#ff7f0e;stroke:#ff7f0e;" x="319.581818" xlink:href="#m1b3cb693f5" y="44.878071"/>
     <use style="fill:#ff7f0e;stroke:#ff7f0e;" x="324.490909" xlink:href="#m1b3cb693f5" y="44.804054"/>
     <use style="fill:#ff7f0e;stroke:#ff7f0e;" x="329.4" xlink:href="#m1b3cb693f5" y="44.742629"/>
     <use style="fill:#ff7f0e;stroke:#ff7f0e;" x="334.309091" xlink:href="#m1b3cb693f5" y="44.691652"/>
     <use style="fill:#ff7f0e;stroke:#ff7f0e;" x="339.218182" xlink:href="#m1b3cb693f5" y="44.64937"/>
     <use style="fill:#ff7f0e;stroke:#ff7f0e;" x="344.127273" xlink:href="#m1b3cb693f5" y="44.614286"/>
     <use style="fill:#ff7f0e;stroke:#ff7f0e;" x="349.036364" xlink:href="#m1b3cb693f5" y="44.58518"/>
     <use style="fill:#ff7f0e;stroke:#ff7f0e;" x="353.945455" xlink:href="#m1b3cb693f5" y="44.561032"/>
     <use style="fill:#ff7f0e;stroke:#ff7f0e;" x="358.854545" xlink:href="#m1b3cb693f5" y="44.540999"/>
     <use style="fill:#ff7f0e;stroke:#ff7f0e;" x="363.763636" xlink:href="#m1b3cb693f5" y="44.524388"/>
     <use style="fill:#ff7f0e;stroke:#ff7f0e;" x="368.672727" xlink:href="#m1b3cb693f5" y="44.510615"/>
     <use style="fill:#ff7f0e;stroke:#ff7f0e;" x="373.581818" xlink:href="#m1b3cb693f5" y="44.49918"/>
    </g>
   </g>
   <g id="matplotlib.axis_1">
    <g id="xtick_1">
     <g id="line2d_1">
      <defs>
       <path d="M 0 0 
L 0 3.5 
" id="mb827b713c8" style="stroke:#000000;stroke-width:0.8;"/>
      </defs>
      <g>
       <use style="stroke:#000000;stroke-width:0.8;" x="69.218182" xlink:href="#mb827b713c8" y="252"/>
      </g>
     </g>
     <g id="text_1">
      <!-- 0 -->
      <g transform="translate(66.036932 266.598437)scale(0.1 -0.1)">
       <defs>
        <path d="M 2034 4250 
Q 1547 4250 1301 3770 
Q 1056 3291 1056 2328 
Q 1056 1369 1301 889 
Q 1547 409 2034 409 
Q 2525 409 2770 889 
Q 3016 1369 3016 2328 
Q 3016 3291 2770 3770 
Q 2525 4250 2034 4250 
z
M 2034 4750 
Q 2819 4750 3233 4129 
Q 3647 3509 3647 2328 
Q 3647 1150 3233 529 
Q 2819 -91 2034 -91 
Q 1250 -91 836 529 
Q 422 1150 422 2328 
Q 422 3509 836 4129 
Q 1250 4750 2034 4750 
z
" id="DejaVuSans-30" transform="scale(0.015625)"/>
       </defs>
       <use xlink:href="#DejaVuSans-30"/>
      </g>
     </g>
    </g>
    <g id="xtick_2">
     <g id="line2d_2">
      <g>
       <use style="stroke:#000000;stroke-width:0.8;" x="118.309091" xlink:href="#mb827b713c8" y="252"/>
      </g>
     </g>
     <g id="text_2">
      <!-- 10 -->
      <g transform="translate(111.946591 266.598437)scale(0.1 -0.1)">
       <defs>
        <path d="M 794 531 
L 1825 531 
L 1825 4091 
L 703 3866 
L 703 4441 
L 1819 4666 
L 2450 4666 
L 2450 531 
L 3481 531 
L 3481 0 
L 794 0 
L 794 531 
z
" id="DejaVuSans-31" transform="scale(0.015625)"/>
       </defs>
       <use xlink:href="#DejaVuSans-31"/>
       <use x="63.623047" xlink:href="#DejaVuSans-30"/>
      </g>
     </g>
    </g>
    <g id="xtick_3">
     <g id="line2d_3">
      <g>
       <use style="stroke:#000000;stroke-width:0.8;" x="167.4" xlink:href="#mb827b713c8" y="252"/>
      </g>
     </g>
     <g id="text_3">
      <!-- 20 -->
      <g transform="translate(161.0375 266.598437)scale(0.1 -0.1)">
       <defs>
        <path d="M 1228 531 
L 3431 531 
L 3431 0 
L 469 0 
L 469 531 
Q 828 903 1448 1529 
Q 2069 2156 2228 2338 
Q 2531 2678 2651 2914 
Q 2772 3150 2772 3378 
Q 2772 3750 2511 3984 
Q 2250 4219 1831 4219 
Q 1534 4219 1204 4116 
Q 875 4013 500 3803 
L 500 4441 
Q 881 4594 1212 4672 
Q 1544 4750 1819 4750 
Q 2544 4750 2975 4387 
Q 3406 4025 3406 3419 
Q 3406 3131 3298 2873 
Q 3191 2616 2906 2266 
Q 2828 2175 2409 1742 
Q 1991 1309 1228 531 
z
" id="DejaVuSans-32" transform="scale(0.015625)"/>
       </defs>
       <use xlink:href="#DejaVuSans-32"/>
       <use x="63.623047" xlink:href="#DejaVuSans-30"/>
      </g>
     </g>
    </g>
    <g id="xtick_4">
     <g id="line2d_4">
      <g>
       <use style="stroke:#000000;stroke-width:0.8;" x="216.490909" xlink:href="#mb827b713c8" y="252"/>
      </g>
     </g>
     <g id="text_4">
      <!-- 30 -->
      <g transform="translate(210.128409 266.598437)scale(0.1 -0.1)">
       <defs>
        <path d="M 2597 2516 
Q 3050 2419 3304 2112 
Q 3559 1806 3559 1356 
Q 3559 666 3084 287 
Q 2609 -91 1734 -91 
Q 1441 -91 1130 -33 
Q 819 25 488 141 
L 488 750 
Q 750 597 1062 519 
Q 1375 441 1716 441 
Q 2309 441 2620 675 
Q 2931 909 2931 1356 
Q 2931 1769 2642 2001 
Q 2353 2234 1838 2234 
L 1294 2234 
L 1294 2753 
L 1863 2753 
Q 2328 2753 2575 2939 
Q 2822 3125 2822 3475 
Q 2822 3834 2567 4026 
Q 2313 4219 1838 4219 
Q 1578 4219 1281 4162 
Q 984 4106 628 3988 
L 628 4550 
Q 988 4650 1302 4700 
Q 1616 4750 1894 4750 
Q 2613 4750 3031 4423 
Q 3450 4097 3450 3541 
Q 3450 3153 3228 2886 
Q 3006 2619 2597 2516 
z
" id="DejaVuSans-33" transform="scale(0.015625)"/>
       </defs>
       <use xlink:href="#DejaVuSans-33"/>
       <use x="63.623047" xlink:href="#DejaVuSans-30"/>
      </g>
     </g>
    </g>
    <g id="xtick_5">
     <g id="line2d_5">
      <g>
       <use style="stroke:#000000;stroke-width:0.8;" x="265.581818" xlink:href="#mb827b713c8" y="252"/>
      </g>
     </g>
     <g id="text_5">
      <!-- 40 -->
      <g transform="translate(259.219318 266.598437)scale(0.1 -0.1)">
       <defs>
        <path d="M 2419 4116 
L 825 1625 
L 2419 1625 
L 2419 4116 
z
M 2253 4666 
L 3047 4666 
L 3047 1625 
L 3713 1625 
L 3713 1100 
L 3047 1100 
L 3047 0 
L 2419 0 
L 2419 1100 
L 313 1100 
L 313 1709 
L 2253 4666 
z
" id="DejaVuSans-34" transform="scale(0.015625)"/>
       </defs>
       <use xlink:href="#DejaVuSans-34"/>
       <use x="63.623047" xlink:href="#DejaVuSans-30"/>
      </g>
     </g>
    </g>
    <g id="xtick_6">
     <g id="line2d_6">
      <g>
       <use style="stroke:#000000;stroke-width:0.8;" x="314.672727" xlink:href="#mb827b713c8" y="252"/>
      </g>
     </g>
     <g id="text_6">
      <!-- 50 -->
      <g transform="translate(308.310227 266.598437)scale(0.1 -0.1)">
       <defs>
        <path d="M 691 4666 
L 3169 4666 
L 3169 4134 
L 1269 4134 
L 1269 2991 
Q 1406 3038 1543 3061 
Q 1681 3084 1819 3084 
Q 2600 3084 3056 2656 
Q 3513 2228 3513 1497 
Q 3513 744 3044 326 
Q 2575 -91 1722 -91 
Q 1428 -91 1123 -41 
Q 819 9 494 109 
L 494 744 
Q 775 591 1075 516 
Q 1375 441 1709 441 
Q 2250 441 2565 725 
Q 2881 1009 2881 1497 
Q 2881 1984 2565 2268 
Q 2250 2553 1709 2553 
Q 1456 2553 1204 2497 
Q 953 2441 691 2322 
L 691 4666 
z
" id="DejaVuSans-35" transform="scale(0.015625)"/>
       </defs>
       <use xlink:href="#DejaVuSans-35"/>
       <use x="63.623047" xlink:href="#DejaVuSans-30"/>
      </g>
     </g>
    </g>
    <g id="xtick_7">
     <g id="line2d_7">
      <g>
       <use style="stroke:#000000;stroke-width:0.8;" x="363.763636" xlink:href="#mb827b713c8" y="252"/>
      </g>
     </g>
     <g id="text_7">
      <!-- 60 -->
      <g transform="translate(357.401136 266.598437)scale(0.1 -0.1)">
       <defs>
        <path d="M 2113 2584 
Q 1688 2584 1439 2293 
Q 1191 2003 1191 1497 
Q 1191 994 1439 701 
Q 1688 409 2113 409 
Q 2538 409 2786 701 
Q 3034 994 3034 1497 
Q 3034 2003 2786 2293 
Q 2538 2584 2113 2584 
z
M 3366 4563 
L 3366 3988 
Q 3128 4100 2886 4159 
Q 2644 4219 2406 4219 
Q 1781 4219 1451 3797 
Q 1122 3375 1075 2522 
Q 1259 2794 1537 2939 
Q 1816 3084 2150 3084 
Q 2853 3084 3261 2657 
Q 3669 2231 3669 1497 
Q 3669 778 3244 343 
Q 2819 -91 2113 -91 
Q 1303 -91 875 529 
Q 447 1150 447 2328 
Q 447 3434 972 4092 
Q 1497 4750 2381 4750 
Q 2619 4750 2861 4703 
Q 3103 4656 3366 4563 
z
" id="DejaVuSans-36" transform="scale(0.015625)"/>
       </defs>
       <use xlink:href="#DejaVuSans-36"/>
       <use x="63.623047" xlink:href="#DejaVuSans-30"/>
      </g>
     </g>
    </g>
   </g>
   <g id="matplotlib.axis_2">
    <g id="ytick_1">
     <g id="line2d_8">
      <defs>
       <path d="M 0 0 
L -3.5 0 
" id="m4f1b265472" style="stroke:#000000;stroke-width:0.8;"/>
      </defs>
      <g>
       <use style="stroke:#000000;stroke-width:0.8;" x="54" xlink:href="#m4f1b265472" y="248.755231"/>
      </g>
     </g>
     <g id="text_8">
      <!-- 0.0 -->
      <g transform="translate(31.096875 252.55445)scale(0.1 -0.1)">
       <defs>
        <path d="M 684 794 
L 1344 794 
L 1344 0 
L 684 0 
L 684 794 
z
" id="DejaVuSans-2e" transform="scale(0.015625)"/>
       </defs>
       <use xlink:href="#DejaVuSans-30"/>
       <use x="63.623047" xlink:href="#DejaVuSans-2e"/>
       <use x="95.410156" xlink:href="#DejaVuSans-30"/>
      </g>
     </g>
    </g>
    <g id="ytick_2">
     <g id="line2d_9">
      <g>
       <use style="stroke:#000000;stroke-width:0.8;" x="54" xlink:href="#m4f1b265472" y="207.892912"/>
      </g>
     </g>
     <g id="text_9">
      <!-- 0.2 -->
      <g transform="translate(31.096875 211.692131)scale(0.1 -0.1)">
       <use xlink:href="#DejaVuSans-30"/>
       <use x="63.623047" xlink:href="#DejaVuSans-2e"/>
       <use x="95.410156" xlink:href="#DejaVuSans-32"/>
      </g>
     </g>
    </g>
    <g id="ytick_3">
     <g id="line2d_10">
      <g>
       <use style="stroke:#000000;stroke-width:0.8;" x="54" xlink:href="#m4f1b265472" y="167.030593"/>
      </g>
     </g>
     <g id="text_10">
      <!-- 0.4 -->
      <g transform="translate(31.096875 170.829812)scale(0.1 -0.1)">
       <use xlink:href="#DejaVuSans-30"/>
       <use x="63.623047" xlink:href="#DejaVuSans-2e"/>
       <use x="95.410156" xlink:href="#DejaVuSans-34"/>
      </g>
     </g>
    </g>
    <g id="ytick_4">
     <g id="line2d_11">
      <g>
       <use style="stroke:#000000;stroke-width:0.8;" x="54" xlink:href="#m4f1b265472" y="126.168274"/>
      </g>
     </g>
     <g id="text_11">
      <!-- 0.6 -->
      <g transform="translate(31.096875 129.967493)scale(0.1 -0.1)">
       <use xlink:href="#DejaVuSans-30"/>
       <use x="63.623047" xlink:href="#DejaVuSans-2e"/>
       <use x="95.410156" xlink:href="#DejaVuSans-36"/>
      </g>
     </g>
    </g>
    <g id="ytick_5">
     <g id="line2d_12">
      <g>
       <use style="stroke:#000000;stroke-width:0.8;" x="54" xlink:href="#m4f1b265472" y="85.305955"/>
      </g>
     </g>
     <g id="text_12">
      <!-- 0.8 -->
      <g transform="translate(31.096875 89.105174)scale(0.1 -0.1)">
       <defs>
        <path d="M 2034 2216 
Q 1584 2216 1326 1975 
Q 1069 1734 1069 1313 
Q 1069 891 1326 650 
Q 1584 409 2034 409 
Q 2484 409 2743 651 
Q 3003 894 3003 1313 
Q 3003 1734 2745 1975 
Q 2488 2216 2034 2216 
z
M 1403 2484 
Q 997 2584 770 2862 
Q 544 3141 544 3541 
Q 544 4100 942 4425 
Q 1341 4750 2034 4750 
Q 2731 4750 3128 4425 
Q 3525 4100 3525 3541 
Q 3525 3141 3298 2862 
Q 3072 2584 2669 2484 
Q 3125 2378 3379 2068 
Q 3634 1759 3634 1313 
Q 3634 634 3220 271 
Q 2806 -91 2034 -91 
Q 1263 -91 848 271 
Q 434 634 434 1313 
Q 434 1759 690 2068 
Q 947 2378 1403 2484 
z
M 1172 3481 
Q 1172 3119 1398 2916 
Q 1625 2713 2034 2713 
Q 2441 2713 2670 2916 
Q 2900 3119 2900 3481 
Q 2900 3844 2670 4047 
Q 2441 4250 2034 4250 
Q 1625 4250 1398 4047 
Q 1172 3844 1172 3481 
z
" id="DejaVuSans-38" transform="scale(0.015625)"/>
       </defs>
       <use xlink:href="#DejaVuSans-30"/>
       <use x="63.623047" xlink:href="#DejaVuSans-2e"/>
       <use x="95.410156" xlink:href="#DejaVuSans-38"/>
      </g>
     </g>
    </g>
    <g id="ytick_6">
     <g id="line2d_13">
      <g>
       <use style="stroke:#000000;stroke-width:0.8;" x="54" xlink:href="#m4f1b265472" y="44.443636"/>
      </g>
     </g>
     <g id="text_13">
      <!-- 1.0 -->
      <g transform="translate(31.096875 48.242855)scale(0.1 -0.1)">
       <use xlink:href="#DejaVuSans-31"/>
       <use x="63.623047" xlink:href="#DejaVuSans-2e"/>
       <use x="95.410156" xlink:href="#DejaVuSans-30"/>
      </g>
     </g>
    </g>
   </g>
   <g id="patch_3">
    <path d="M 54 252 
L 54 34.56 
" style="fill:none;stroke:#000000;stroke-linecap:square;stroke-linejoin:miter;stroke-width:0.8;"/>
   </g>
   <g id="patch_4">
    <path d="M 388.8 252 
L 388.8 34.56 
" style="fill:none;stroke:#000000;stroke-linecap:square;stroke-linejoin:miter;stroke-width:0.8;"/>
   </g>
   <g id="patch_5">
    <path d="M 54 252 
L 388.8 252 
" style="fill:none;stroke:#000000;stroke-linecap:square;stroke-linejoin:miter;stroke-width:0.8;"/>
   </g>
   <g id="patch_6">
    <path d="M 54 34.56 
L 388.8 34.56 
" style="fill:none;stroke:#000000;stroke-linecap:square;stroke-linejoin:miter;stroke-width:0.8;"/>
   </g>
   <g id="legend_1">
    <g id="patch_7">
     <path d="M 61 71.91625 
L 135.503125 71.91625 
Q 137.503125 71.91625 137.503125 69.91625 
L 137.503125 41.56 
Q 137.503125 39.56 135.503125 39.56 
L 61 39.56 
Q 59 39.56 59 41.56 
L 59 69.91625 
Q 59 71.91625 61 71.91625 
z
" style="fill:#ffffff;opacity:0.8;stroke:#cccccc;stroke-linejoin:miter;"/>
    </g>
    <g id="PathCollection_3">
     <g>
      <use style="fill:#1f77b4;stroke:#1f77b4;" x="73" xlink:href="#ma373a4b8d2" y="48.533437"/>
     </g>
    </g>
    <g id="text_14">
     <!-- Actual -->
     <g transform="translate(91 51.158437)scale(0.1 -0.1)">
      <defs>
       <path d="M 2188 4044 
L 1331 1722 
L 3047 1722 
L 2188 4044 
z
M 1831 4666 
L 2547 4666 
L 4325 0 
L 3669 0 
L 3244 1197 
L 1141 1197 
L 716 0 
L 50 0 
L 1831 4666 
z
" id="DejaVuSans-41" transform="scale(0.015625)"/>
       <path d="M 3122 3366 
L 3122 2828 
Q 2878 2963 2633 3030 
Q 2388 3097 2138 3097 
Q 1578 3097 1268 2742 
Q 959 2388 959 1747 
Q 959 1106 1268 751 
Q 1578 397 2138 397 
Q 2388 397 2633 464 
Q 2878 531 3122 666 
L 3122 134 
Q 2881 22 2623 -34 
Q 2366 -91 2075 -91 
Q 1284 -91 818 406 
Q 353 903 353 1747 
Q 353 2603 823 3093 
Q 1294 3584 2113 3584 
Q 2378 3584 2631 3529 
Q 2884 3475 3122 3366 
z
" id="DejaVuSans-63" transform="scale(0.015625)"/>
       <path d="M 1172 4494 
L 1172 3500 
L 2356 3500 
L 2356 3053 
L 1172 3053 
L 1172 1153 
Q 1172 725 1289 603 
Q 1406 481 1766 481 
L 2356 481 
L 2356 0 
L 1766 0 
Q 1100 0 847 248 
Q 594 497 594 1153 
L 594 3053 
L 172 3053 
L 172 3500 
L 594 3500 
L 594 4494 
L 1172 4494 
z
" id="DejaVuSans-74" transform="scale(0.015625)"/>
       <path d="M 544 1381 
L 544 3500 
L 1119 3500 
L 1119 1403 
Q 1119 906 1312 657 
Q 1506 409 1894 409 
Q 2359 409 2629 706 
Q 2900 1003 2900 1516 
L 2900 3500 
L 3475 3500 
L 3475 0 
L 2900 0 
L 2900 538 
Q 2691 219 2414 64 
Q 2138 -91 1772 -91 
Q 1169 -91 856 284 
Q 544 659 544 1381 
z
M 1991 3584 
L 1991 3584 
z
" id="DejaVuSans-75" transform="scale(0.015625)"/>
       <path d="M 2194 1759 
Q 1497 1759 1228 1600 
Q 959 1441 959 1056 
Q 959 750 1161 570 
Q 1363 391 1709 391 
Q 2188 391 2477 730 
Q 2766 1069 2766 1631 
L 2766 1759 
L 2194 1759 
z
M 3341 1997 
L 3341 0 
L 2766 0 
L 2766 531 
Q 2569 213 2275 61 
Q 1981 -91 1556 -91 
Q 1019 -91 701 211 
Q 384 513 384 1019 
Q 384 1609 779 1909 
Q 1175 2209 1959 2209 
L 2766 2209 
L 2766 2266 
Q 2766 2663 2505 2880 
Q 2244 3097 1772 3097 
Q 1472 3097 1187 3025 
Q 903 2953 641 2809 
L 641 3341 
Q 956 3463 1253 3523 
Q 1550 3584 1831 3584 
Q 2591 3584 2966 3190 
Q 3341 2797 3341 1997 
z
" id="DejaVuSans-61" transform="scale(0.015625)"/>
       <path d="M 603 4863 
L 1178 4863 
L 1178 0 
L 603 0 
L 603 4863 
z
" id="DejaVuSans-6c" transform="scale(0.015625)"/>
      </defs>
      <use xlink:href="#DejaVuSans-41"/>
      <use x="66.658203" xlink:href="#DejaVuSans-63"/>
      <use x="121.638672" xlink:href="#DejaVuSans-74"/>
      <use x="160.847656" xlink:href="#DejaVuSans-75"/>
      <use x="224.226562" xlink:href="#DejaVuSans-61"/>
      <use x="285.505859" xlink:href="#DejaVuSans-6c"/>
     </g>
    </g>
    <g id="PathCollection_4">
     <g>
      <use style="fill:#ff7f0e;stroke:#ff7f0e;" x="73" xlink:href="#m1b3cb693f5" y="63.211562"/>
     </g>
    </g>
    <g id="text_15">
     <!-- SI Model -->
     <g transform="translate(91 65.836562)scale(0.1 -0.1)">
      <defs>
       <path d="M 3425 4513 
L 3425 3897 
Q 3066 4069 2747 4153 
Q 2428 4238 2131 4238 
Q 1616 4238 1336 4038 
Q 1056 3838 1056 3469 
Q 1056 3159 1242 3001 
Q 1428 2844 1947 2747 
L 2328 2669 
Q 3034 2534 3370 2195 
Q 3706 1856 3706 1288 
Q 3706 609 3251 259 
Q 2797 -91 1919 -91 
Q 1588 -91 1214 -16 
Q 841 59 441 206 
L 441 856 
Q 825 641 1194 531 
Q 1563 422 1919 422 
Q 2459 422 2753 634 
Q 3047 847 3047 1241 
Q 3047 1584 2836 1778 
Q 2625 1972 2144 2069 
L 1759 2144 
Q 1053 2284 737 2584 
Q 422 2884 422 3419 
Q 422 4038 858 4394 
Q 1294 4750 2059 4750 
Q 2388 4750 2728 4690 
Q 3069 4631 3425 4513 
z
" id="DejaVuSans-53" transform="scale(0.015625)"/>
       <path d="M 628 4666 
L 1259 4666 
L 1259 0 
L 628 0 
L 628 4666 
z
" id="DejaVuSans-49" transform="scale(0.015625)"/>
       <path id="DejaVuSans-20" transform="scale(0.015625)"/>
       <path d="M 628 4666 
L 1569 4666 
L 2759 1491 
L 3956 4666 
L 4897 4666 
L 4897 0 
L 4281 0 
L 4281 4097 
L 3078 897 
L 2444 897 
L 1241 4097 
L 1241 0 
L 628 0 
L 628 4666 
z
" id="DejaVuSans-4d" transform="scale(0.015625)"/>
       <path d="M 1959 3097 
Q 1497 3097 1228 2736 
Q 959 2375 959 1747 
Q 959 1119 1226 758 
Q 1494 397 1959 397 
Q 2419 397 2687 759 
Q 2956 1122 2956 1747 
Q 2956 2369 2687 2733 
Q 2419 3097 1959 3097 
z
M 1959 3584 
Q 2709 3584 3137 3096 
Q 3566 2609 3566 1747 
Q 3566 888 3137 398 
Q 2709 -91 1959 -91 
Q 1206 -91 779 398 
Q 353 888 353 1747 
Q 353 2609 779 3096 
Q 1206 3584 1959 3584 
z
" id="DejaVuSans-6f" transform="scale(0.015625)"/>
       <path d="M 2906 2969 
L 2906 4863 
L 3481 4863 
L 3481 0 
L 2906 0 
L 2906 525 
Q 2725 213 2448 61 
Q 2172 -91 1784 -91 
Q 1150 -91 751 415 
Q 353 922 353 1747 
Q 353 2572 751 3078 
Q 1150 3584 1784 3584 
Q 2172 3584 2448 3432 
Q 2725 3281 2906 2969 
z
M 947 1747 
Q 947 1113 1208 752 
Q 1469 391 1925 391 
Q 2381 391 2643 752 
Q 2906 1113 2906 1747 
Q 2906 2381 2643 2742 
Q 2381 3103 1925 3103 
Q 1469 3103 1208 2742 
Q 947 2381 947 1747 
z
" id="DejaVuSans-64" transform="scale(0.015625)"/>
       <path d="M 3597 1894 
L 3597 1613 
L 953 1613 
Q 991 1019 1311 708 
Q 1631 397 2203 397 
Q 2534 397 2845 478 
Q 3156 559 3463 722 
L 3463 178 
Q 3153 47 2828 -22 
Q 2503 -91 2169 -91 
Q 1331 -91 842 396 
Q 353 884 353 1716 
Q 353 2575 817 3079 
Q 1281 3584 2069 3584 
Q 2775 3584 3186 3129 
Q 3597 2675 3597 1894 
z
M 3022 2063 
Q 3016 2534 2758 2815 
Q 2500 3097 2075 3097 
Q 1594 3097 1305 2825 
Q 1016 2553 972 2059 
L 3022 2063 
z
" id="DejaVuSans-65" transform="scale(0.015625)"/>
      </defs>
      <use xlink:href="#DejaVuSans-53"/>
      <use x="63.476562" xlink:href="#DejaVuSans-49"/>
      <use x="92.96875" xlink:href="#DejaVuSans-20"/>
      <use x="124.755859" xlink:href="#DejaVuSans-4d"/>
      <use x="211.035156" xlink:href="#DejaVuSans-6f"/>
      <use x="272.216797" xlink:href="#DejaVuSans-64"/>
      <use x="335.693359" xlink:href="#DejaVuSans-65"/>
      <use x="397.216797" xlink:href="#DejaVuSans-6c"/>
     </g>
    </g>
   </g>
  </g>
 </g>
 <defs>
  <clipPath id="p91c9d4269c">
   <rect height="217.44" width="334.8" x="54" y="34.56"/>
  </clipPath>
 </defs>
</svg>
