<?xml version="1.0" encoding="utf-8" standalone="no"?>
<!DOCTYPE svg PUBLIC "-//W3C//DTD SVG 1.1//EN"
  "http://www.w3.org/Graphics/SVG/1.1/DTD/svg11.dtd">
<svg height="288pt" version="1.1" viewBox="0 0 432 288" width="432pt" xmlns="http://www.w3.org/2000/svg" xmlns:xlink="http://www.w3.org/1999/xlink">
 <metadata>
  <rdf:RDF xmlns:cc="http://creativecommons.org/ns#" xmlns:dc="http://purl.org/dc/elements/1.1/" xmlns:rdf="http://www.w3.org/1999/02/22-rdf-syntax-ns#">
   <cc:Work>
    <dc:type rdf:resource="http://purl.org/dc/dcmitype/StillImage"/>
    <dc:date>2021-08-29T20:46:39.433218</dc:date>
    <dc:format>image/svg+xml</dc:format>
    <dc:creator>
     <cc:Agent>
      <dc:title>Matplotlib v3.4.2, https://matplotlib.org/</dc:title>
     </cc:Agent>
    </dc:creator>
   </cc:Work>
  </rdf:RDF>
 </metadata>
 <defs>
  <style type="text/css">*{stroke-linecap:butt;stroke-linejoin:round;}</style>
 </defs>
 <g id="figure_1">
  <g id="patch_1">
   <path d="M 0 288 
L 432 288 
L 432 0 
L 0 0 
z
" style="fill:none;"/>
  </g>
  <g id="axes_1">
   <g id="patch_2">
    <path d="M 54 252 
L 388.8 252 
L 388.8 34.56 
L 54 34.56 
z
" style="fill:#ffffff;"/>
   </g>
   <g id="PathCollection_1">
    <defs>
     <path d="M 0 3 
C 0.795609 3 1.55874 2.683901 2.12132 2.12132 
C 2.683901 1.55874 3 0.795609 3 0 
C 3 -0.795609 2.683901 -1.55874 2.12132 -2.12132 
C 1.55874 -2.683901 0.795609 -3 0 -3 
C -0.795609 -3 -1.55874 -2.683901 -2.12132 -2.12132 
C -2.683901 -1.55874 -3 -0.795609 -3 0 
C -3 0.795609 -2.683901 1.55874 -2.12132 2.12132 
C -1.55874 2.683901 -0.795609 3 0 3 
z
" id="mbd45f2d45a" style="stroke:#1f77b4;"/>
    </defs>
    <g clip-path="url(#pd981c0f1cc)">
     <use style="fill:#1f77b4;stroke:#1f77b4;" x="69.218182" xlink:href="#mbd45f2d45a" y="242.116364"/>
     <use style="fill:#1f77b4;stroke:#1f77b4;" x="74.049351" xlink:href="#mbd45f2d45a" y="237.340325"/>
     <use style="fill:#1f77b4;stroke:#1f77b4;" x="78.880519" xlink:href="#mbd45f2d45a" y="231.791977"/>
     <use style="fill:#1f77b4;stroke:#1f77b4;" x="83.711688" xlink:href="#mbd45f2d45a" y="220.848153"/>
     <use style="fill:#1f77b4;stroke:#1f77b4;" x="88.542857" xlink:href="#mbd45f2d45a" y="209.808217"/>
     <use style="fill:#1f77b4;stroke:#1f77b4;" x="93.374026" xlink:href="#mbd45f2d45a" y="204.704835"/>
     <use style="fill:#1f77b4;stroke:#1f77b4;" x="98.205195" xlink:href="#mbd45f2d45a" y="199.500632"/>
     <use style="fill:#1f77b4;stroke:#1f77b4;" x="103.036364" xlink:href="#mbd45f2d45a" y="194.00781"/>
     <use style="fill:#1f77b4;stroke:#1f77b4;" x="107.867532" xlink:href="#mbd45f2d45a" y="188.159277"/>
     <use style="fill:#1f77b4;stroke:#1f77b4;" x="112.698701" xlink:href="#mbd45f2d45a" y="181.275282"/>
     <use style="fill:#1f77b4;stroke:#1f77b4;" x="117.52987" xlink:href="#mbd45f2d45a" y="170.0725"/>
     <use style="fill:#1f77b4;stroke:#1f77b4;" x="122.361039" xlink:href="#mbd45f2d45a" y="159.80407"/>
     <use style="fill:#1f77b4;stroke:#1f77b4;" x="127.192208" xlink:href="#mbd45f2d45a" y="152.923088"/>
     <use style="fill:#1f77b4;stroke:#1f77b4;" x="132.023377" xlink:href="#mbd45f2d45a" y="146.330513"/>
     <use style="fill:#1f77b4;stroke:#1f77b4;" x="136.854545" xlink:href="#mbd45f2d45a" y="140.50519"/>
     <use style="fill:#1f77b4;stroke:#1f77b4;" x="141.685714" xlink:href="#mbd45f2d45a" y="135.565613"/>
     <use style="fill:#1f77b4;stroke:#1f77b4;" x="146.516883" xlink:href="#mbd45f2d45a" y="130.109482"/>
     <use style="fill:#1f77b4;stroke:#1f77b4;" x="151.348052" xlink:href="#mbd45f2d45a" y="121.09639"/>
     <use style="fill:#1f77b4;stroke:#1f77b4;" x="156.179221" xlink:href="#mbd45f2d45a" y="112.822675"/>
     <use style="fill:#1f77b4;stroke:#1f77b4;" x="161.01039" xlink:href="#mbd45f2d45a" y="109.363349"/>
     <use style="fill:#1f77b4;stroke:#1f77b4;" x="165.841558" xlink:href="#mbd45f2d45a" y="105.848114"/>
     <use style="fill:#1f77b4;stroke:#1f77b4;" x="170.672727" xlink:href="#mbd45f2d45a" y="102.682339"/>
     <use style="fill:#1f77b4;stroke:#1f77b4;" x="175.503896" xlink:href="#mbd45f2d45a" y="99.919371"/>
     <use style="fill:#1f77b4;stroke:#1f77b4;" x="180.335065" xlink:href="#mbd45f2d45a" y="96.6804"/>
     <use style="fill:#1f77b4;stroke:#1f77b4;" x="185.166234" xlink:href="#mbd45f2d45a" y="90.000588"/>
     <use style="fill:#1f77b4;stroke:#1f77b4;" x="189.997403" xlink:href="#mbd45f2d45a" y="84.520389"/>
     <use style="fill:#1f77b4;stroke:#1f77b4;" x="194.828571" xlink:href="#mbd45f2d45a" y="82.41367"/>
     <use style="fill:#1f77b4;stroke:#1f77b4;" x="199.65974" xlink:href="#mbd45f2d45a" y="80.420615"/>
     <use style="fill:#1f77b4;stroke:#1f77b4;" x="204.490909" xlink:href="#mbd45f2d45a" y="78.67911"/>
     <use style="fill:#1f77b4;stroke:#1f77b4;" x="209.322078" xlink:href="#mbd45f2d45a" y="77.111551"/>
     <use style="fill:#1f77b4;stroke:#1f77b4;" x="214.153247" xlink:href="#mbd45f2d45a" y="75.370573"/>
     <use style="fill:#1f77b4;stroke:#1f77b4;" x="218.984416" xlink:href="#mbd45f2d45a" y="71.460665"/>
     <use style="fill:#1f77b4;stroke:#1f77b4;" x="223.815584" xlink:href="#mbd45f2d45a" y="67.897547"/>
     <use style="fill:#1f77b4;stroke:#1f77b4;" x="228.646753" xlink:href="#mbd45f2d45a" y="66.532864"/>
     <use style="fill:#1f77b4;stroke:#1f77b4;" x="233.477922" xlink:href="#mbd45f2d45a" y="65.266044"/>
     <use style="fill:#1f77b4;stroke:#1f77b4;" x="238.309091" xlink:href="#mbd45f2d45a" y="64.212319"/>
     <use style="fill:#1f77b4;stroke:#1f77b4;" x="243.14026" xlink:href="#mbd45f2d45a" y="63.204704"/>
     <use style="fill:#1f77b4;stroke:#1f77b4;" x="247.971429" xlink:href="#mbd45f2d45a" y="62.103432"/>
     <use style="fill:#1f77b4;stroke:#1f77b4;" x="252.802597" xlink:href="#mbd45f2d45a" y="59.368592"/>
     <use style="fill:#1f77b4;stroke:#1f77b4;" x="257.633766" xlink:href="#mbd45f2d45a" y="56.454811"/>
     <use style="fill:#1f77b4;stroke:#1f77b4;" x="262.464935" xlink:href="#mbd45f2d45a" y="55.691319"/>
     <use style="fill:#1f77b4;stroke:#1f77b4;" x="267.296104" xlink:href="#mbd45f2d45a" y="55.033284"/>
     <use style="fill:#1f77b4;stroke:#1f77b4;" x="272.127273" xlink:href="#mbd45f2d45a" y="54.466943"/>
     <use style="fill:#1f77b4;stroke:#1f77b4;" x="276.958442" xlink:href="#mbd45f2d45a" y="53.959805"/>
     <use style="fill:#1f77b4;stroke:#1f77b4;" x="281.78961" xlink:href="#mbd45f2d45a" y="53.384502"/>
     <use style="fill:#1f77b4;stroke:#1f77b4;" x="286.620779" xlink:href="#mbd45f2d45a" y="51.912134"/>
     <use style="fill:#1f77b4;stroke:#1f77b4;" x="291.451948" xlink:href="#mbd45f2d45a" y="50.336968"/>
     <use style="fill:#1f77b4;stroke:#1f77b4;" x="296.283117" xlink:href="#mbd45f2d45a" y="49.947806"/>
     <use style="fill:#1f77b4;stroke:#1f77b4;" x="301.114286" xlink:href="#mbd45f2d45a" y="49.581921"/>
     <use style="fill:#1f77b4;stroke:#1f77b4;" x="305.945455" xlink:href="#mbd45f2d45a" y="49.285183"/>
     <use style="fill:#1f77b4;stroke:#1f77b4;" x="310.776623" xlink:href="#mbd45f2d45a" y="49.028146"/>
     <use style="fill:#1f77b4;stroke:#1f77b4;" x="315.607792" xlink:href="#mbd45f2d45a" y="48.695349"/>
     <use style="fill:#1f77b4;stroke:#1f77b4;" x="320.438961" xlink:href="#mbd45f2d45a" y="47.746998"/>
     <use style="fill:#1f77b4;stroke:#1f77b4;" x="325.27013" xlink:href="#mbd45f2d45a" y="46.937552"/>
     <use style="fill:#1f77b4;stroke:#1f77b4;" x="330.101299" xlink:href="#mbd45f2d45a" y="46.71062"/>
     <use style="fill:#1f77b4;stroke:#1f77b4;" x="334.932468" xlink:href="#mbd45f2d45a" y="46.499214"/>
     <use style="fill:#1f77b4;stroke:#1f77b4;" x="339.763636" xlink:href="#mbd45f2d45a" y="46.305993"/>
     <use style="fill:#1f77b4;stroke:#1f77b4;" x="344.594805" xlink:href="#mbd45f2d45a" y="46.112963"/>
     <use style="fill:#1f77b4;stroke:#1f77b4;" x="349.425974" xlink:href="#mbd45f2d45a" y="45.905678"/>
     <use style="fill:#1f77b4;stroke:#1f77b4;" x="354.257143" xlink:href="#mbd45f2d45a" y="45.411766"/>
     <use style="fill:#1f77b4;stroke:#1f77b4;" x="359.088312" xlink:href="#mbd45f2d45a" y="44.90506"/>
     <use style="fill:#1f77b4;stroke:#1f77b4;" x="363.919481" xlink:href="#mbd45f2d45a" y="44.743405"/>
     <use style="fill:#1f77b4;stroke:#1f77b4;" x="368.750649" xlink:href="#mbd45f2d45a" y="44.597169"/>
     <use style="fill:#1f77b4;stroke:#1f77b4;" x="373.581818" xlink:href="#mbd45f2d45a" y="44.443636"/>
    </g>
   </g>
   <g id="PathCollection_2">
    <defs>
     <path d="M 0 3 
C 0.795609 3 1.55874 2.683901 2.12132 2.12132 
C 2.683901 1.55874 3 0.795609 3 0 
C 3 -0.795609 2.683901 -1.55874 2.12132 -2.12132 
C 1.55874 -2.683901 0.795609 -3 0 -3 
C -0.795609 -3 -1.55874 -2.683901 -2.12132 -2.12132 
C -2.683901 -1.55874 -3 -0.795609 -3 0 
C -3 0.795609 -2.683901 1.55874 -2.12132 2.12132 
C -1.55874 2.683901 -0.795609 3 0 3 
z
" id="mb683bf6441" style="stroke:#ff7f0e;"/>
    </defs>
    <g clip-path="url(#pd981c0f1cc)">
     <use style="fill:#ff7f0e;stroke:#ff7f0e;" x="69.218182" xlink:href="#mb683bf6441" y="242.116364"/>
     <use style="fill:#ff7f0e;stroke:#ff7f0e;" x="74.049351" xlink:href="#mb683bf6441" y="241.126"/>
     <use style="fill:#ff7f0e;stroke:#ff7f0e;" x="78.880519" xlink:href="#mb683bf6441" y="239.848008"/>
     <use style="fill:#ff7f0e;stroke:#ff7f0e;" x="83.711688" xlink:href="#mb683bf6441" y="238.204494"/>
     <use style="fill:#ff7f0e;stroke:#ff7f0e;" x="88.542857" xlink:href="#mb683bf6441" y="236.100189"/>
     <use style="fill:#ff7f0e;stroke:#ff7f0e;" x="93.374026" xlink:href="#mb683bf6441" y="233.421033"/>
     <use style="fill:#ff7f0e;stroke:#ff7f0e;" x="98.205195" xlink:href="#mb683bf6441" y="230.034343"/>
     <use style="fill:#ff7f0e;stroke:#ff7f0e;" x="103.036364" xlink:href="#mb683bf6441" y="225.791816"/>
     <use style="fill:#ff7f0e;stroke:#ff7f0e;" x="107.867532" xlink:href="#mb683bf6441" y="220.537014"/>
     <use style="fill:#ff7f0e;stroke:#ff7f0e;" x="112.698701" xlink:href="#mb683bf6441" y="214.118897"/>
     <use style="fill:#ff7f0e;stroke:#ff7f0e;" x="117.52987" xlink:href="#mb683bf6441" y="206.412671"/>
     <use style="fill:#ff7f0e;stroke:#ff7f0e;" x="122.361039" xlink:href="#mb683bf6441" y="197.347285"/>
     <use style="fill:#ff7f0e;stroke:#ff7f0e;" x="127.192208" xlink:href="#mb683bf6441" y="186.936284"/>
     <use style="fill:#ff7f0e;stroke:#ff7f0e;" x="132.023377" xlink:href="#mb683bf6441" y="175.304915"/>
     <use style="fill:#ff7f0e;stroke:#ff7f0e;" x="136.854545" xlink:href="#mb683bf6441" y="162.703452"/>
     <use style="fill:#ff7f0e;stroke:#ff7f0e;" x="141.685714" xlink:href="#mb683bf6441" y="149.497563"/>
     <use style="fill:#ff7f0e;stroke:#ff7f0e;" x="146.516883" xlink:href="#mb683bf6441" y="136.131931"/>
     <use style="fill:#ff7f0e;stroke:#ff7f0e;" x="151.348052" xlink:href="#mb683bf6441" y="123.072998"/>
     <use style="fill:#ff7f0e;stroke:#ff7f0e;" x="156.179221" xlink:href="#mb683bf6441" y="110.74575"/>
     <use style="fill:#ff7f0e;stroke:#ff7f0e;" x="161.01039" xlink:href="#mb683bf6441" y="99.481811"/>
     <use style="fill:#ff7f0e;stroke:#ff7f0e;" x="165.841558" xlink:href="#mb683bf6441" y="89.491413"/>
     <use style="fill:#ff7f0e;stroke:#ff7f0e;" x="170.672727" xlink:href="#mb683bf6441" y="80.861936"/>
     <use style="fill:#ff7f0e;stroke:#ff7f0e;" x="175.503896" xlink:href="#mb683bf6441" y="73.576741"/>
     <use style="fill:#ff7f0e;stroke:#ff7f0e;" x="180.335065" xlink:href="#mb683bf6441" y="67.544313"/>
     <use style="fill:#ff7f0e;stroke:#ff7f0e;" x="185.166234" xlink:href="#mb683bf6441" y="62.628803"/>
     <use style="fill:#ff7f0e;stroke:#ff7f0e;" x="189.997403" xlink:href="#mb683bf6441" y="58.675565"/>
     <use style="fill:#ff7f0e;stroke:#ff7f0e;" x="194.828571" xlink:href="#mb683bf6441" y="55.529604"/>
     <use style="fill:#ff7f0e;stroke:#ff7f0e;" x="199.65974" xlink:href="#mb683bf6441" y="53.047009"/>
     <use style="fill:#ff7f0e;stroke:#ff7f0e;" x="204.490909" xlink:href="#mb683bf6441" y="51.100879"/>
     <use style="fill:#ff7f0e;stroke:#ff7f0e;" x="209.322078" xlink:href="#mb683bf6441" y="49.583215"/>
     <use style="fill:#ff7f0e;stroke:#ff7f0e;" x="214.153247" xlink:href="#mb683bf6441" y="48.404482"/>
     <use style="fill:#ff7f0e;stroke:#ff7f0e;" x="218.984416" xlink:href="#mb683bf6441" y="47.491866"/>
     <use style="fill:#ff7f0e;stroke:#ff7f0e;" x="223.815584" xlink:href="#mb683bf6441" y="46.787051"/>
     <use style="fill:#ff7f0e;stroke:#ff7f0e;" x="228.646753" xlink:href="#mb683bf6441" y="46.24371"/>
     <use style="fill:#ff7f0e;stroke:#ff7f0e;" x="233.477922" xlink:href="#mb683bf6441" y="45.825462"/>
     <use style="fill:#ff7f0e;stroke:#ff7f0e;" x="238.309091" xlink:href="#mb683bf6441" y="45.503878"/>
     <use style="fill:#ff7f0e;stroke:#ff7f0e;" x="243.14026" xlink:href="#mb683bf6441" y="45.256832"/>
     <use style="fill:#ff7f0e;stroke:#ff7f0e;" x="247.971429" xlink:href="#mb683bf6441" y="45.067181"/>
     <use style="fill:#ff7f0e;stroke:#ff7f0e;" x="252.802597" xlink:href="#mb683bf6441" y="44.921651"/>
     <use style="fill:#ff7f0e;stroke:#ff7f0e;" x="257.633766" xlink:href="#mb683bf6441" y="44.810024"/>
     <use style="fill:#ff7f0e;stroke:#ff7f0e;" x="262.464935" xlink:href="#mb683bf6441" y="44.724417"/>
     <use style="fill:#ff7f0e;stroke:#ff7f0e;" x="267.296104" xlink:href="#mb683bf6441" y="44.658804"/>
     <use style="fill:#ff7f0e;stroke:#ff7f0e;" x="272.127273" xlink:href="#mb683bf6441" y="44.608501"/>
     <use style="fill:#ff7f0e;stroke:#ff7f0e;" x="276.958442" xlink:href="#mb683bf6441" y="44.569963"/>
     <use style="fill:#ff7f0e;stroke:#ff7f0e;" x="281.78961" xlink:href="#mb683bf6441" y="44.540421"/>
     <use style="fill:#ff7f0e;stroke:#ff7f0e;" x="286.620779" xlink:href="#mb683bf6441" y="44.517779"/>
     <use style="fill:#ff7f0e;stroke:#ff7f0e;" x="291.451948" xlink:href="#mb683bf6441" y="44.500432"/>
     <use style="fill:#ff7f0e;stroke:#ff7f0e;" x="296.283117" xlink:href="#mb683bf6441" y="44.487147"/>
     <use style="fill:#ff7f0e;stroke:#ff7f0e;" x="301.114286" xlink:href="#mb683bf6441" y="44.476976"/>
     <use style="fill:#ff7f0e;stroke:#ff7f0e;" x="305.945455" xlink:href="#mb683bf6441" y="44.469177"/>
     <use style="fill:#ff7f0e;stroke:#ff7f0e;" x="310.776623" xlink:href="#mb683bf6441" y="44.463199"/>
     <use style="fill:#ff7f0e;stroke:#ff7f0e;" x="315.607792" xlink:href="#mb683bf6441" y="44.458623"/>
     <use style="fill:#ff7f0e;stroke:#ff7f0e;" x="320.438961" xlink:href="#mb683bf6441" y="44.455125"/>
     <use style="fill:#ff7f0e;stroke:#ff7f0e;" x="325.27013" xlink:href="#mb683bf6441" y="44.452441"/>
     <use style="fill:#ff7f0e;stroke:#ff7f0e;" x="330.101299" xlink:href="#mb683bf6441" y="44.450381"/>
     <use style="fill:#ff7f0e;stroke:#ff7f0e;" x="334.932468" xlink:href="#mb683bf6441" y="44.4488"/>
     <use style="fill:#ff7f0e;stroke:#ff7f0e;" x="339.763636" xlink:href="#mb683bf6441" y="44.44759"/>
     <use style="fill:#ff7f0e;stroke:#ff7f0e;" x="344.594805" xlink:href="#mb683bf6441" y="44.446667"/>
     <use style="fill:#ff7f0e;stroke:#ff7f0e;" x="349.425974" xlink:href="#mb683bf6441" y="44.44596"/>
     <use style="fill:#ff7f0e;stroke:#ff7f0e;" x="354.257143" xlink:href="#mb683bf6441" y="44.445421"/>
     <use style="fill:#ff7f0e;stroke:#ff7f0e;" x="359.088312" xlink:href="#mb683bf6441" y="44.445002"/>
     <use style="fill:#ff7f0e;stroke:#ff7f0e;" x="363.919481" xlink:href="#mb683bf6441" y="44.444679"/>
     <use style="fill:#ff7f0e;stroke:#ff7f0e;" x="368.750649" xlink:href="#mb683bf6441" y="44.444439"/>
     <use style="fill:#ff7f0e;stroke:#ff7f0e;" x="373.581818" xlink:href="#mb683bf6441" y="44.444235"/>
    </g>
   </g>
   <g id="matplotlib.axis_1">
    <g id="xtick_1">
     <g id="line2d_1">
      <defs>
       <path d="M 0 0 
L 0 3.5 
" id="m3b29107046" style="stroke:#000000;stroke-width:0.8;"/>
      </defs>
      <g>
       <use style="stroke:#000000;stroke-width:0.8;" x="69.218182" xlink:href="#m3b29107046" y="252"/>
      </g>
     </g>
     <g id="text_1">
      <!-- 0 -->
      <g transform="translate(66.036932 266.598437)scale(0.1 -0.1)">
       <defs>
        <path d="M 2034 4250 
Q 1547 4250 1301 3770 
Q 1056 3291 1056 2328 
Q 1056 1369 1301 889 
Q 1547 409 2034 409 
Q 2525 409 2770 889 
Q 3016 1369 3016 2328 
Q 3016 3291 2770 3770 
Q 2525 4250 2034 4250 
z
M 2034 4750 
Q 2819 4750 3233 4129 
Q 3647 3509 3647 2328 
Q 3647 1150 3233 529 
Q 2819 -91 2034 -91 
Q 1250 -91 836 529 
Q 422 1150 422 2328 
Q 422 3509 836 4129 
Q 1250 4750 2034 4750 
z
" id="DejaVuSans-30" transform="scale(0.015625)"/>
       </defs>
       <use xlink:href="#DejaVuSans-30"/>
      </g>
     </g>
    </g>
    <g id="xtick_2">
     <g id="line2d_2">
      <g>
       <use style="stroke:#000000;stroke-width:0.8;" x="117.52987" xlink:href="#m3b29107046" y="252"/>
      </g>
     </g>
     <g id="text_2">
      <!-- 10 -->
      <g transform="translate(111.16737 266.598437)scale(0.1 -0.1)">
       <defs>
        <path d="M 794 531 
L 1825 531 
L 1825 4091 
L 703 3866 
L 703 4441 
L 1819 4666 
L 2450 4666 
L 2450 531 
L 3481 531 
L 3481 0 
L 794 0 
L 794 531 
z
" id="DejaVuSans-31" transform="scale(0.015625)"/>
       </defs>
       <use xlink:href="#DejaVuSans-31"/>
       <use x="63.623047" xlink:href="#DejaVuSans-30"/>
      </g>
     </g>
    </g>
    <g id="xtick_3">
     <g id="line2d_3">
      <g>
       <use style="stroke:#000000;stroke-width:0.8;" x="165.841558" xlink:href="#m3b29107046" y="252"/>
      </g>
     </g>
     <g id="text_3">
      <!-- 20 -->
      <g transform="translate(159.479058 266.598437)scale(0.1 -0.1)">
       <defs>
        <path d="M 1228 531 
L 3431 531 
L 3431 0 
L 469 0 
L 469 531 
Q 828 903 1448 1529 
Q 2069 2156 2228 2338 
Q 2531 2678 2651 2914 
Q 2772 3150 2772 3378 
Q 2772 3750 2511 3984 
Q 2250 4219 1831 4219 
Q 1534 4219 1204 4116 
Q 875 4013 500 3803 
L 500 4441 
Q 881 4594 1212 4672 
Q 1544 4750 1819 4750 
Q 2544 4750 2975 4387 
Q 3406 4025 3406 3419 
Q 3406 3131 3298 2873 
Q 3191 2616 2906 2266 
Q 2828 2175 2409 1742 
Q 1991 1309 1228 531 
z
" id="DejaVuSans-32" transform="scale(0.015625)"/>
       </defs>
       <use xlink:href="#DejaVuSans-32"/>
       <use x="63.623047" xlink:href="#DejaVuSans-30"/>
      </g>
     </g>
    </g>
    <g id="xtick_4">
     <g id="line2d_4">
      <g>
       <use style="stroke:#000000;stroke-width:0.8;" x="214.153247" xlink:href="#m3b29107046" y="252"/>
      </g>
     </g>
     <g id="text_4">
      <!-- 30 -->
      <g transform="translate(207.790747 266.598437)scale(0.1 -0.1)">
       <defs>
        <path d="M 2597 2516 
Q 3050 2419 3304 2112 
Q 3559 1806 3559 1356 
Q 3559 666 3084 287 
Q 2609 -91 1734 -91 
Q 1441 -91 1130 -33 
Q 819 25 488 141 
L 488 750 
Q 750 597 1062 519 
Q 1375 441 1716 441 
Q 2309 441 2620 675 
Q 2931 909 2931 1356 
Q 2931 1769 2642 2001 
Q 2353 2234 1838 2234 
L 1294 2234 
L 1294 2753 
L 1863 2753 
Q 2328 2753 2575 2939 
Q 2822 3125 2822 3475 
Q 2822 3834 2567 4026 
Q 2313 4219 1838 4219 
Q 1578 4219 1281 4162 
Q 984 4106 628 3988 
L 628 4550 
Q 988 4650 1302 4700 
Q 1616 4750 1894 4750 
Q 2613 4750 3031 4423 
Q 3450 4097 3450 3541 
Q 3450 3153 3228 2886 
Q 3006 2619 2597 2516 
z
" id="DejaVuSans-33" transform="scale(0.015625)"/>
       </defs>
       <use xlink:href="#DejaVuSans-33"/>
       <use x="63.623047" xlink:href="#DejaVuSans-30"/>
      </g>
     </g>
    </g>
    <g id="xtick_5">
     <g id="line2d_5">
      <g>
       <use style="stroke:#000000;stroke-width:0.8;" x="262.464935" xlink:href="#m3b29107046" y="252"/>
      </g>
     </g>
     <g id="text_5">
      <!-- 40 -->
      <g transform="translate(256.102435 266.598437)scale(0.1 -0.1)">
       <defs>
        <path d="M 2419 4116 
L 825 1625 
L 2419 1625 
L 2419 4116 
z
M 2253 4666 
L 3047 4666 
L 3047 1625 
L 3713 1625 
L 3713 1100 
L 3047 1100 
L 3047 0 
L 2419 0 
L 2419 1100 
L 313 1100 
L 313 1709 
L 2253 4666 
z
" id="DejaVuSans-34" transform="scale(0.015625)"/>
       </defs>
       <use xlink:href="#DejaVuSans-34"/>
       <use x="63.623047" xlink:href="#DejaVuSans-30"/>
      </g>
     </g>
    </g>
    <g id="xtick_6">
     <g id="line2d_6">
      <g>
       <use style="stroke:#000000;stroke-width:0.8;" x="310.776623" xlink:href="#m3b29107046" y="252"/>
      </g>
     </g>
     <g id="text_6">
      <!-- 50 -->
      <g transform="translate(304.414123 266.598437)scale(0.1 -0.1)">
       <defs>
        <path d="M 691 4666 
L 3169 4666 
L 3169 4134 
L 1269 4134 
L 1269 2991 
Q 1406 3038 1543 3061 
Q 1681 3084 1819 3084 
Q 2600 3084 3056 2656 
Q 3513 2228 3513 1497 
Q 3513 744 3044 326 
Q 2575 -91 1722 -91 
Q 1428 -91 1123 -41 
Q 819 9 494 109 
L 494 744 
Q 775 591 1075 516 
Q 1375 441 1709 441 
Q 2250 441 2565 725 
Q 2881 1009 2881 1497 
Q 2881 1984 2565 2268 
Q 2250 2553 1709 2553 
Q 1456 2553 1204 2497 
Q 953 2441 691 2322 
L 691 4666 
z
" id="DejaVuSans-35" transform="scale(0.015625)"/>
       </defs>
       <use xlink:href="#DejaVuSans-35"/>
       <use x="63.623047" xlink:href="#DejaVuSans-30"/>
      </g>
     </g>
    </g>
    <g id="xtick_7">
     <g id="line2d_7">
      <g>
       <use style="stroke:#000000;stroke-width:0.8;" x="359.088312" xlink:href="#m3b29107046" y="252"/>
      </g>
     </g>
     <g id="text_7">
      <!-- 60 -->
      <g transform="translate(352.725812 266.598437)scale(0.1 -0.1)">
       <defs>
        <path d="M 2113 2584 
Q 1688 2584 1439 2293 
Q 1191 2003 1191 1497 
Q 1191 994 1439 701 
Q 1688 409 2113 409 
Q 2538 409 2786 701 
Q 3034 994 3034 1497 
Q 3034 2003 2786 2293 
Q 2538 2584 2113 2584 
z
M 3366 4563 
L 3366 3988 
Q 3128 4100 2886 4159 
Q 2644 4219 2406 4219 
Q 1781 4219 1451 3797 
Q 1122 3375 1075 2522 
Q 1259 2794 1537 2939 
Q 1816 3084 2150 3084 
Q 2853 3084 3261 2657 
Q 3669 2231 3669 1497 
Q 3669 778 3244 343 
Q 2819 -91 2113 -91 
Q 1303 -91 875 529 
Q 447 1150 447 2328 
Q 447 3434 972 4092 
Q 1497 4750 2381 4750 
Q 2619 4750 2861 4703 
Q 3103 4656 3366 4563 
z
" id="DejaVuSans-36" transform="scale(0.015625)"/>
       </defs>
       <use xlink:href="#DejaVuSans-36"/>
       <use x="63.623047" xlink:href="#DejaVuSans-30"/>
      </g>
     </g>
    </g>
   </g>
   <g id="matplotlib.axis_2">
    <g id="ytick_1">
     <g id="line2d_8">
      <defs>
       <path d="M 0 0 
L -3.5 0 
" id="m5c240271ce" style="stroke:#000000;stroke-width:0.8;"/>
      </defs>
      <g>
       <use style="stroke:#000000;stroke-width:0.8;" x="54" xlink:href="#m5c240271ce" y="245.430114"/>
      </g>
     </g>
     <g id="text_8">
      <!-- 0.0 -->
      <g transform="translate(31.096875 249.229332)scale(0.1 -0.1)">
       <defs>
        <path d="M 684 794 
L 1344 794 
L 1344 0 
L 684 0 
L 684 794 
z
" id="DejaVuSans-2e" transform="scale(0.015625)"/>
       </defs>
       <use xlink:href="#DejaVuSans-30"/>
       <use x="63.623047" xlink:href="#DejaVuSans-2e"/>
       <use x="95.410156" xlink:href="#DejaVuSans-30"/>
      </g>
     </g>
    </g>
    <g id="ytick_2">
     <g id="line2d_9">
      <g>
       <use style="stroke:#000000;stroke-width:0.8;" x="54" xlink:href="#m5c240271ce" y="205.232818"/>
      </g>
     </g>
     <g id="text_9">
      <!-- 0.2 -->
      <g transform="translate(31.096875 209.032037)scale(0.1 -0.1)">
       <use xlink:href="#DejaVuSans-30"/>
       <use x="63.623047" xlink:href="#DejaVuSans-2e"/>
       <use x="95.410156" xlink:href="#DejaVuSans-32"/>
      </g>
     </g>
    </g>
    <g id="ytick_3">
     <g id="line2d_10">
      <g>
       <use style="stroke:#000000;stroke-width:0.8;" x="54" xlink:href="#m5c240271ce" y="165.035523"/>
      </g>
     </g>
     <g id="text_10">
      <!-- 0.4 -->
      <g transform="translate(31.096875 168.834741)scale(0.1 -0.1)">
       <use xlink:href="#DejaVuSans-30"/>
       <use x="63.623047" xlink:href="#DejaVuSans-2e"/>
       <use x="95.410156" xlink:href="#DejaVuSans-34"/>
      </g>
     </g>
    </g>
    <g id="ytick_4">
     <g id="line2d_11">
      <g>
       <use style="stroke:#000000;stroke-width:0.8;" x="54" xlink:href="#m5c240271ce" y="124.838227"/>
      </g>
     </g>
     <g id="text_11">
      <!-- 0.6 -->
      <g transform="translate(31.096875 128.637446)scale(0.1 -0.1)">
       <use xlink:href="#DejaVuSans-30"/>
       <use x="63.623047" xlink:href="#DejaVuSans-2e"/>
       <use x="95.410156" xlink:href="#DejaVuSans-36"/>
      </g>
     </g>
    </g>
    <g id="ytick_5">
     <g id="line2d_12">
      <g>
       <use style="stroke:#000000;stroke-width:0.8;" x="54" xlink:href="#m5c240271ce" y="84.640932"/>
      </g>
     </g>
     <g id="text_12">
      <!-- 0.8 -->
      <g transform="translate(31.096875 88.440151)scale(0.1 -0.1)">
       <defs>
        <path d="M 2034 2216 
Q 1584 2216 1326 1975 
Q 1069 1734 1069 1313 
Q 1069 891 1326 650 
Q 1584 409 2034 409 
Q 2484 409 2743 651 
Q 3003 894 3003 1313 
Q 3003 1734 2745 1975 
Q 2488 2216 2034 2216 
z
M 1403 2484 
Q 997 2584 770 2862 
Q 544 3141 544 3541 
Q 544 4100 942 4425 
Q 1341 4750 2034 4750 
Q 2731 4750 3128 4425 
Q 3525 4100 3525 3541 
Q 3525 3141 3298 2862 
Q 3072 2584 2669 2484 
Q 3125 2378 3379 2068 
Q 3634 1759 3634 1313 
Q 3634 634 3220 271 
Q 2806 -91 2034 -91 
Q 1263 -91 848 271 
Q 434 634 434 1313 
Q 434 1759 690 2068 
Q 947 2378 1403 2484 
z
M 1172 3481 
Q 1172 3119 1398 2916 
Q 1625 2713 2034 2713 
Q 2441 2713 2670 2916 
Q 2900 3119 2900 3481 
Q 2900 3844 2670 4047 
Q 2441 4250 2034 4250 
Q 1625 4250 1398 4047 
Q 1172 3844 1172 3481 
z
" id="DejaVuSans-38" transform="scale(0.015625)"/>
       </defs>
       <use xlink:href="#DejaVuSans-30"/>
       <use x="63.623047" xlink:href="#DejaVuSans-2e"/>
       <use x="95.410156" xlink:href="#DejaVuSans-38"/>
      </g>
     </g>
    </g>
    <g id="ytick_6">
     <g id="line2d_13">
      <g>
       <use style="stroke:#000000;stroke-width:0.8;" x="54" xlink:href="#m5c240271ce" y="44.443636"/>
      </g>
     </g>
     <g id="text_13">
      <!-- 1.0 -->
      <g transform="translate(31.096875 48.242855)scale(0.1 -0.1)">
       <use xlink:href="#DejaVuSans-31"/>
       <use x="63.623047" xlink:href="#DejaVuSans-2e"/>
       <use x="95.410156" xlink:href="#DejaVuSans-30"/>
      </g>
     </g>
    </g>
   </g>
   <g id="patch_3">
    <path d="M 54 252 
L 54 34.56 
" style="fill:none;stroke:#000000;stroke-linecap:square;stroke-linejoin:miter;stroke-width:0.8;"/>
   </g>
   <g id="patch_4">
    <path d="M 388.8 252 
L 388.8 34.56 
" style="fill:none;stroke:#000000;stroke-linecap:square;stroke-linejoin:miter;stroke-width:0.8;"/>
   </g>
   <g id="patch_5">
    <path d="M 54 252 
L 388.8 252 
" style="fill:none;stroke:#000000;stroke-linecap:square;stroke-linejoin:miter;stroke-width:0.8;"/>
   </g>
   <g id="patch_6">
    <path d="M 54 34.56 
L 388.8 34.56 
" style="fill:none;stroke:#000000;stroke-linecap:square;stroke-linejoin:miter;stroke-width:0.8;"/>
   </g>
   <g id="legend_1">
    <g id="patch_7">
     <path d="M 61 71.91625 
L 135.503125 71.91625 
Q 137.503125 71.91625 137.503125 69.91625 
L 137.503125 41.56 
Q 137.503125 39.56 135.503125 39.56 
L 61 39.56 
Q 59 39.56 59 41.56 
L 59 69.91625 
Q 59 71.91625 61 71.91625 
z
" style="fill:#ffffff;opacity:0.8;stroke:#cccccc;stroke-linejoin:miter;"/>
    </g>
    <g id="PathCollection_3">
     <g>
      <use style="fill:#1f77b4;stroke:#1f77b4;" x="73" xlink:href="#mbd45f2d45a" y="48.533437"/>
     </g>
    </g>
    <g id="text_14">
     <!-- Actual -->
     <g transform="translate(91 51.158437)scale(0.1 -0.1)">
      <defs>
       <path d="M 2188 4044 
L 1331 1722 
L 3047 1722 
L 2188 4044 
z
M 1831 4666 
L 2547 4666 
L 4325 0 
L 3669 0 
L 3244 1197 
L 1141 1197 
L 716 0 
L 50 0 
L 1831 4666 
z
" id="DejaVuSans-41" transform="scale(0.015625)"/>
       <path d="M 3122 3366 
L 3122 2828 
Q 2878 2963 2633 3030 
Q 2388 3097 2138 3097 
Q 1578 3097 1268 2742 
Q 959 2388 959 1747 
Q 959 1106 1268 751 
Q 1578 397 2138 397 
Q 2388 397 2633 464 
Q 2878 531 3122 666 
L 3122 134 
Q 2881 22 2623 -34 
Q 2366 -91 2075 -91 
Q 1284 -91 818 406 
Q 353 903 353 1747 
Q 353 2603 823 3093 
Q 1294 3584 2113 3584 
Q 2378 3584 2631 3529 
Q 2884 3475 3122 3366 
z
" id="DejaVuSans-63" transform="scale(0.015625)"/>
       <path d="M 1172 4494 
L 1172 3500 
L 2356 3500 
L 2356 3053 
L 1172 3053 
L 1172 1153 
Q 1172 725 1289 603 
Q 1406 481 1766 481 
L 2356 481 
L 2356 0 
L 1766 0 
Q 1100 0 847 248 
Q 594 497 594 1153 
L 594 3053 
L 172 3053 
L 172 3500 
L 594 3500 
L 594 4494 
L 1172 4494 
z
" id="DejaVuSans-74" transform="scale(0.015625)"/>
       <path d="M 544 1381 
L 544 3500 
L 1119 3500 
L 1119 1403 
Q 1119 906 1312 657 
Q 1506 409 1894 409 
Q 2359 409 2629 706 
Q 2900 1003 2900 1516 
L 2900 3500 
L 3475 3500 
L 3475 0 
L 2900 0 
L 2900 538 
Q 2691 219 2414 64 
Q 2138 -91 1772 -91 
Q 1169 -91 856 284 
Q 544 659 544 1381 
z
M 1991 3584 
L 1991 3584 
z
" id="DejaVuSans-75" transform="scale(0.015625)"/>
       <path d="M 2194 1759 
Q 1497 1759 1228 1600 
Q 959 1441 959 1056 
Q 959 750 1161 570 
Q 1363 391 1709 391 
Q 2188 391 2477 730 
Q 2766 1069 2766 1631 
L 2766 1759 
L 2194 1759 
z
M 3341 1997 
L 3341 0 
L 2766 0 
L 2766 531 
Q 2569 213 2275 61 
Q 1981 -91 1556 -91 
Q 1019 -91 701 211 
Q 384 513 384 1019 
Q 384 1609 779 1909 
Q 1175 2209 1959 2209 
L 2766 2209 
L 2766 2266 
Q 2766 2663 2505 2880 
Q 2244 3097 1772 3097 
Q 1472 3097 1187 3025 
Q 903 2953 641 2809 
L 641 3341 
Q 956 3463 1253 3523 
Q 1550 3584 1831 3584 
Q 2591 3584 2966 3190 
Q 3341 2797 3341 1997 
z
" id="DejaVuSans-61" transform="scale(0.015625)"/>
       <path d="M 603 4863 
L 1178 4863 
L 1178 0 
L 603 0 
L 603 4863 
z
" id="DejaVuSans-6c" transform="scale(0.015625)"/>
      </defs>
      <use xlink:href="#DejaVuSans-41"/>
      <use x="66.658203" xlink:href="#DejaVuSans-63"/>
      <use x="121.638672" xlink:href="#DejaVuSans-74"/>
      <use x="160.847656" xlink:href="#DejaVuSans-75"/>
      <use x="224.226562" xlink:href="#DejaVuSans-61"/>
      <use x="285.505859" xlink:href="#DejaVuSans-6c"/>
     </g>
    </g>
    <g id="PathCollection_4">
     <g>
      <use style="fill:#ff7f0e;stroke:#ff7f0e;" x="73" xlink:href="#mb683bf6441" y="63.211562"/>
     </g>
    </g>
    <g id="text_15">
     <!-- SI Model -->
     <g transform="translate(91 65.836562)scale(0.1 -0.1)">
      <defs>
       <path d="M 3425 4513 
L 3425 3897 
Q 3066 4069 2747 4153 
Q 2428 4238 2131 4238 
Q 1616 4238 1336 4038 
Q 1056 3838 1056 3469 
Q 1056 3159 1242 3001 
Q 1428 2844 1947 2747 
L 2328 2669 
Q 3034 2534 3370 2195 
Q 3706 1856 3706 1288 
Q 3706 609 3251 259 
Q 2797 -91 1919 -91 
Q 1588 -91 1214 -16 
Q 841 59 441 206 
L 441 856 
Q 825 641 1194 531 
Q 1563 422 1919 422 
Q 2459 422 2753 634 
Q 3047 847 3047 1241 
Q 3047 1584 2836 1778 
Q 2625 1972 2144 2069 
L 1759 2144 
Q 1053 2284 737 2584 
Q 422 2884 422 3419 
Q 422 4038 858 4394 
Q 1294 4750 2059 4750 
Q 2388 4750 2728 4690 
Q 3069 4631 3425 4513 
z
" id="DejaVuSans-53" transform="scale(0.015625)"/>
       <path d="M 628 4666 
L 1259 4666 
L 1259 0 
L 628 0 
L 628 4666 
z
" id="DejaVuSans-49" transform="scale(0.015625)"/>
       <path id="DejaVuSans-20" transform="scale(0.015625)"/>
       <path d="M 628 4666 
L 1569 4666 
L 2759 1491 
L 3956 4666 
L 4897 4666 
L 4897 0 
L 4281 0 
L 4281 4097 
L 3078 897 
L 2444 897 
L 1241 4097 
L 1241 0 
L 628 0 
L 628 4666 
z
" id="DejaVuSans-4d" transform="scale(0.015625)"/>
       <path d="M 1959 3097 
Q 1497 3097 1228 2736 
Q 959 2375 959 1747 
Q 959 1119 1226 758 
Q 1494 397 1959 397 
Q 2419 397 2687 759 
Q 2956 1122 2956 1747 
Q 2956 2369 2687 2733 
Q 2419 3097 1959 3097 
z
M 1959 3584 
Q 2709 3584 3137 3096 
Q 3566 2609 3566 1747 
Q 3566 888 3137 398 
Q 2709 -91 1959 -91 
Q 1206 -91 779 398 
Q 353 888 353 1747 
Q 353 2609 779 3096 
Q 1206 3584 1959 3584 
z
" id="DejaVuSans-6f" transform="scale(0.015625)"/>
       <path d="M 2906 2969 
L 2906 4863 
L 3481 4863 
L 3481 0 
L 2906 0 
L 2906 525 
Q 2725 213 2448 61 
Q 2172 -91 1784 -91 
Q 1150 -91 751 415 
Q 353 922 353 1747 
Q 353 2572 751 3078 
Q 1150 3584 1784 3584 
Q 2172 3584 2448 3432 
Q 2725 3281 2906 2969 
z
M 947 1747 
Q 947 1113 1208 752 
Q 1469 391 1925 391 
Q 2381 391 2643 752 
Q 2906 1113 2906 1747 
Q 2906 2381 2643 2742 
Q 2381 3103 1925 3103 
Q 1469 3103 1208 2742 
Q 947 2381 947 1747 
z
" id="DejaVuSans-64" transform="scale(0.015625)"/>
       <path d="M 3597 1894 
L 3597 1613 
L 953 1613 
Q 991 1019 1311 708 
Q 1631 397 2203 397 
Q 2534 397 2845 478 
Q 3156 559 3463 722 
L 3463 178 
Q 3153 47 2828 -22 
Q 2503 -91 2169 -91 
Q 1331 -91 842 396 
Q 353 884 353 1716 
Q 353 2575 817 3079 
Q 1281 3584 2069 3584 
Q 2775 3584 3186 3129 
Q 3597 2675 3597 1894 
z
M 3022 2063 
Q 3016 2534 2758 2815 
Q 2500 3097 2075 3097 
Q 1594 3097 1305 2825 
Q 1016 2553 972 2059 
L 3022 2063 
z
" id="DejaVuSans-65" transform="scale(0.015625)"/>
      </defs>
      <use xlink:href="#DejaVuSans-53"/>
      <use x="63.476562" xlink:href="#DejaVuSans-49"/>
      <use x="92.96875" xlink:href="#DejaVuSans-20"/>
      <use x="124.755859" xlink:href="#DejaVuSans-4d"/>
      <use x="211.035156" xlink:href="#DejaVuSans-6f"/>
      <use x="272.216797" xlink:href="#DejaVuSans-64"/>
      <use x="335.693359" xlink:href="#DejaVuSans-65"/>
      <use x="397.216797" xlink:href="#DejaVuSans-6c"/>
     </g>
    </g>
   </g>
  </g>
 </g>
 <defs>
  <clipPath id="pd981c0f1cc">
   <rect height="217.44" width="334.8" x="54" y="34.56"/>
  </clipPath>
 </defs>
</svg>
